<svg xmlns="http://www.w3.org/2000/svg" version="1.1" xmlns:xlink="http://www.w3.org/1999/xlink" xmlns:svgjs="http://svgjs.dev/svgjs" viewBox="0 0 800 800"><defs><linearGradient x1="50%" y1="0%" x2="50%" y2="100%" id="ffflurry-grad" gradientTransform="rotate(270)"><stop stop-color="hsl(0, 0%, 0%)" stop-opacity="1" offset="0%"></stop><stop stop-color="hsl(184, 100%, 50%)" stop-opacity="1" offset="45%"></stop><stop stop-color="hsl(58, 100%, 50%)" stop-opacity="1" offset="100%"></stop></linearGradient></defs><rect width="100%" height="100%" fill="hsl(0, 0%, 0%)"></rect><g fill="url(#ffflurry-grad)"><rect width="265" height="2" x="-35.5" y="162" rx="1" transform="rotate(55, 97, 163)" opacity="0.61"></rect><rect width="76" height="2" x="537" y="391" rx="1" transform="rotate(55, 575, 392)" opacity="0.62"></rect><rect width="101" height="2" x="640.5" y="555" rx="1" transform="rotate(55, 691, 556)" opacity="0.81"></rect><rect width="53" height="2" x="219.5" y="634" rx="1" transform="rotate(55, 246, 635)" opacity="0.51"></rect><rect width="70" height="2" x="299" y="385" rx="1" transform="rotate(55, 334, 386)" opacity="0.24"></rect><rect width="167" height="2" x="487.5" y="325" rx="1" transform="rotate(55, 571, 326)" opacity="0.88"></rect><rect width="67" height="2" x="427.5" y="334" rx="1" transform="rotate(55, 461, 335)" opacity="0.31"></rect><rect width="173" height="2" x="431.5" y="766" rx="1" transform="rotate(55, 518, 767)" opacity="0.29"></rect><rect width="130" height="2" x="596" y="82" rx="1" transform="rotate(55, 661, 83)" opacity="0.21"></rect><rect width="57" height="2" x="473.5" y="712" rx="1" transform="rotate(55, 502, 713)" opacity="0.24"></rect><rect width="71" height="2" x="58.5" y="650" rx="1" transform="rotate(55, 94, 651)" opacity="0.89"></rect><rect width="38" height="2" x="86" y="237" rx="1" transform="rotate(55, 105, 238)" opacity="0.43"></rect><rect width="182" height="2" x="129" y="759" rx="1" transform="rotate(55, 220, 760)" opacity="0.73"></rect><rect width="234" height="2" x="604" y="725" rx="1" transform="rotate(55, 721, 726)" opacity="0.22"></rect><rect width="185" height="2" x="138.5" y="416" rx="1" transform="rotate(55, 231, 417)" opacity="0.38"></rect><rect width="32" height="2" x="717" y="338" rx="1" transform="rotate(55, 733, 339)" opacity="0.45"></rect><rect width="54" height="2" x="460" y="32" rx="1" transform="rotate(55, 487, 33)" opacity="0.94"></rect><rect width="164" height="2" x="132" y="657" rx="1" transform="rotate(55, 214, 658)" opacity="0.33"></rect><rect width="141" height="2" x="526.5" y="119" rx="1" transform="rotate(55, 597, 120)" opacity="0.38"></rect><rect width="211" height="2" x="610.5" y="28" rx="1" transform="rotate(55, 716, 29)" opacity="0.79"></rect><rect width="127" height="2" x="240.5" y="186" rx="1" transform="rotate(55, 304, 187)" opacity="0.16"></rect><rect width="47" height="2" x="470.5" y="112" rx="1" transform="rotate(55, 494, 113)" opacity="0.41"></rect><rect width="155" height="2" x="8.5" y="63" rx="1" transform="rotate(55, 86, 64)" opacity="0.56"></rect><rect width="266" height="2" x="-97" y="463" rx="1" transform="rotate(55, 36, 464)" opacity="0.21"></rect><rect width="98" height="2" x="102" y="201" rx="1" transform="rotate(55, 151, 202)" opacity="0.10"></rect><rect width="138" height="2" x="485" y="177" rx="1" transform="rotate(55, 554, 178)" opacity="0.62"></rect><rect width="40" height="2" x="310" y="785" rx="1" transform="rotate(55, 330, 786)" opacity="0.36"></rect><rect width="224" height="2" x="87" y="285" rx="1" transform="rotate(55, 199, 286)" opacity="0.18"></rect><rect width="44" height="2" x="534" y="781" rx="1" transform="rotate(55, 556, 782)" opacity="0.97"></rect><rect width="208" height="2" x="88" y="70" rx="1" transform="rotate(55, 192, 71)" opacity="0.64"></rect><rect width="228" height="2" x="-63" y="618" rx="1" transform="rotate(55, 51, 619)" opacity="0.24"></rect><rect width="158" height="2" x="696" y="167" rx="1" transform="rotate(55, 775, 168)" opacity="0.74"></rect><rect width="196" height="2" x="503" y="59" rx="1" transform="rotate(55, 601, 60)" opacity="0.13"></rect><rect width="83" height="2" x="719.5" y="494" rx="1" transform="rotate(55, 761, 495)" opacity="0.40"></rect><rect width="45" height="2" x="35.5" y="19" rx="1" transform="rotate(55, 58, 20)" opacity="0.43"></rect><rect width="173" height="2" x="9.5" y="767" rx="1" transform="rotate(55, 96, 768)" opacity="0.93"></rect><rect width="216" height="2" x="280" y="481" rx="1" transform="rotate(55, 388, 482)" opacity="0.99"></rect><rect width="132" height="2" x="495" y="23" rx="1" transform="rotate(55, 561, 24)" opacity="0.19"></rect><rect width="107" height="2" x="522.5" y="737" rx="1" transform="rotate(55, 576, 738)" opacity="0.90"></rect><rect width="158" height="2" x="355" y="260" rx="1" transform="rotate(55, 434, 261)" opacity="0.66"></rect><rect width="47" height="2" x="139.5" y="247" rx="1" transform="rotate(55, 163, 248)" opacity="0.42"></rect><rect width="224" height="2" x="-56" y="204" rx="1" transform="rotate(55, 56, 205)" opacity="0.25"></rect><rect width="110" height="2" x="246" y="434" rx="1" transform="rotate(55, 301, 435)" opacity="0.45"></rect><rect width="196" height="2" x="562" y="408" rx="1" transform="rotate(55, 660, 409)" opacity="0.66"></rect><rect width="120" height="2" x="106" y="423" rx="1" transform="rotate(55, 166, 424)" opacity="0.54"></rect><rect width="175" height="2" x="686.5" y="297" rx="1" transform="rotate(55, 774, 298)" opacity="0.87"></rect><rect width="100" height="2" x="-26" y="157" rx="1" transform="rotate(55, 24, 158)" opacity="0.95"></rect><rect width="218" height="2" x="663" y="54" rx="1" transform="rotate(55, 772, 55)" opacity="0.65"></rect><rect width="198" height="2" x="68" y="765" rx="1" transform="rotate(55, 167, 766)" opacity="0.13"></rect><rect width="294" height="2" x="506" y="299" rx="1" transform="rotate(55, 653, 300)" opacity="0.94"></rect><rect width="266" height="2" x="460" y="547" rx="1" transform="rotate(55, 593, 548)" opacity="0.78"></rect><rect width="146" height="2" x="244" y="63" rx="1" transform="rotate(55, 317, 64)" opacity="0.78"></rect><rect width="98" height="2" x="729" y="731" rx="1" transform="rotate(55, 778, 732)" opacity="0.26"></rect><rect width="167" height="2" x="499.5" y="691" rx="1" transform="rotate(55, 583, 692)" opacity="0.62"></rect><rect width="130" height="2" x="61" y="702" rx="1" transform="rotate(55, 126, 703)" opacity="0.21"></rect><rect width="49" height="2" x="485.5" y="363" rx="1" transform="rotate(55, 510, 364)" opacity="0.41"></rect><rect width="28" height="2" x="4" y="48" rx="1" transform="rotate(55, 18, 49)" opacity="0.36"></rect><rect width="46" height="2" x="603" y="363" rx="1" transform="rotate(55, 626, 364)" opacity="0.42"></rect><rect width="68" height="2" x="233" y="609" rx="1" transform="rotate(55, 267, 610)" opacity="0.46"></rect><rect width="99" height="2" x="596.5" y="25" rx="1" transform="rotate(55, 646, 26)" opacity="0.21"></rect><rect width="49" height="2" x="502.5" y="420" rx="1" transform="rotate(55, 527, 421)" opacity="0.57"></rect><rect width="133" height="2" x="334.5" y="30" rx="1" transform="rotate(55, 401, 31)" opacity="0.12"></rect><rect width="95" height="2" x="565.5" y="489" rx="1" transform="rotate(55, 613, 490)" opacity="0.43"></rect><rect width="227" height="2" x="13.5" y="301" rx="1" transform="rotate(55, 127, 302)" opacity="0.27"></rect><rect width="232" height="2" x="603" y="628" rx="1" transform="rotate(55, 719, 629)" opacity="0.78"></rect><rect width="79" height="2" x="-21.5" y="243" rx="1" transform="rotate(55, 18, 244)" opacity="0.17"></rect><rect width="45" height="2" x="450.5" y="440" rx="1" transform="rotate(55, 473, 441)" opacity="0.63"></rect><rect width="69" height="2" x="218.5" y="702" rx="1" transform="rotate(55, 253, 703)" opacity="0.56"></rect><rect width="209" height="2" x="495.5" y="633" rx="1" transform="rotate(55, 600, 634)" opacity="0.15"></rect><rect width="273" height="2" x="-67.5" y="401" rx="1" transform="rotate(55, 69, 402)" opacity="0.27"></rect><rect width="66" height="2" x="692" y="151" rx="1" transform="rotate(55, 725, 152)" opacity="0.40"></rect><rect width="160" height="2" x="108" y="695" rx="1" transform="rotate(55, 188, 696)" opacity="0.18"></rect><rect width="138" height="2" x="572" y="225" rx="1" transform="rotate(55, 641, 226)" opacity="0.99"></rect><rect width="207" height="2" x="-54.5" y="108" rx="1" transform="rotate(55, 49, 109)" opacity="0.51"></rect><rect width="241" height="2" x="2.5" y="472" rx="1" transform="rotate(55, 123, 473)" opacity="0.35"></rect><rect width="100" height="2" x="418" y="784" rx="1" transform="rotate(55, 468, 785)" opacity="0.89"></rect><rect width="66" height="2" x="121" y="622" rx="1" transform="rotate(55, 154, 623)" opacity="0.50"></rect><rect width="211" height="2" x="455.5" y="462" rx="1" transform="rotate(55, 561, 463)" opacity="0.46"></rect><rect width="241" height="2" x="405.5" y="563" rx="1" transform="rotate(55, 526, 564)" opacity="0.21"></rect><rect width="209" height="2" x="301.5" y="300" rx="1" transform="rotate(55, 406, 301)" opacity="0.20"></rect><rect width="65" height="2" x="589.5" y="170" rx="1" transform="rotate(55, 622, 171)" opacity="0.94"></rect><rect width="301" height="2" x="371.5" y="646" rx="1" transform="rotate(55, 522, 647)" opacity="0.91"></rect><rect width="74" height="2" x="297" y="304" rx="1" transform="rotate(55, 334, 305)" opacity="0.85"></rect><rect width="162" height="2" x="84" y="538" rx="1" transform="rotate(55, 165, 539)" opacity="0.59"></rect><rect width="64" height="2" x="238" y="768" rx="1" transform="rotate(55, 270, 769)" opacity="0.60"></rect><rect width="146" height="2" x="604" y="679" rx="1" transform="rotate(55, 677, 680)" opacity="0.30"></rect><rect width="157" height="2" x="221.5" y="663" rx="1" transform="rotate(55, 300, 664)" opacity="0.22"></rect><rect width="289" height="2" x="510.5" y="750" rx="1" transform="rotate(55, 655, 751)" opacity="0.43"></rect><rect width="56" height="2" x="324" y="236" rx="1" transform="rotate(55, 352, 237)" opacity="0.15"></rect><rect width="264" height="2" x="160" y="125" rx="1" transform="rotate(55, 292, 126)" opacity="0.79"></rect><rect width="56" height="2" x="236" y="556" rx="1" transform="rotate(55, 264, 557)" opacity="0.87"></rect><rect width="241" height="2" x="116.5" y="349" rx="1" transform="rotate(55, 237, 350)" opacity="0.60"></rect><rect width="237" height="2" x="650.5" y="661" rx="1" transform="rotate(55, 769, 662)" opacity="0.49"></rect><rect width="41" height="2" x="210.5" y="19" rx="1" transform="rotate(55, 231, 20)" opacity="0.34"></rect><rect width="37" height="2" x="207.5" y="130" rx="1" transform="rotate(55, 226, 131)" opacity="0.62"></rect><rect width="268" height="2" x="244" y="653" rx="1" transform="rotate(55, 378, 654)" opacity="0.84"></rect><rect width="261" height="2" x="-32.5" y="546" rx="1" transform="rotate(55, 98, 547)" opacity="0.51"></rect><rect width="27" height="2" x="190.5" y="612" rx="1" transform="rotate(55, 204, 613)" opacity="0.29"></rect><rect width="184" height="2" x="132" y="487" rx="1" transform="rotate(55, 224, 488)" opacity="0.98"></rect><rect width="302" height="2" x="153" y="509" rx="1" transform="rotate(55, 304, 510)" opacity="0.80"></rect><rect width="214" height="2" x="273" y="717" rx="1" transform="rotate(55, 380, 718)" opacity="0.49"></rect><rect width="145" height="2" x="370.5" y="379" rx="1" transform="rotate(55, 443, 380)" opacity="0.69"></rect><rect width="170" height="2" x="57" y="121" rx="1" transform="rotate(55, 142, 122)" opacity="0.40"></rect><rect width="64" height="2" x="470" y="296" rx="1" transform="rotate(55, 502, 297)" opacity="0.72"></rect><rect width="36" height="2" x="718" y="105" rx="1" transform="rotate(55, 736, 106)" opacity="0.99"></rect><rect width="66" height="2" x="637" y="135" rx="1" transform="rotate(55, 670, 136)" opacity="0.39"></rect><rect width="201" height="2" x="352.5" y="605" rx="1" transform="rotate(55, 453, 606)" opacity="0.36"></rect><rect width="181" height="2" x="611.5" y="193" rx="1" transform="rotate(55, 702, 194)" opacity="0.70"></rect><rect width="167" height="2" x="280.5" y="109" rx="1" transform="rotate(55, 364, 110)" opacity="0.24"></rect><rect width="129" height="2" x="-41.5" y="341" rx="1" transform="rotate(55, 23, 342)" opacity="0.24"></rect><rect width="50" height="2" x="749" y="233" rx="1" transform="rotate(55, 774, 234)" opacity="0.65"></rect><rect width="326" height="2" x="521" y="478" rx="1" transform="rotate(55, 684, 479)" opacity="0.25"></rect><rect width="221" height="2" x="-51.5" y="276" rx="1" transform="rotate(55, 59, 277)" opacity="0.89"></rect><rect width="74" height="2" x="360" y="773" rx="1" transform="rotate(55, 397, 774)" opacity="0.80"></rect><rect width="32" height="2" x="592" y="777" rx="1" transform="rotate(55, 608, 778)" opacity="0.36"></rect><rect width="81" height="2" x="291.5" y="751" rx="1" transform="rotate(55, 332, 752)" opacity="0.10"></rect><rect width="88" height="2" x="337" y="593" rx="1" transform="rotate(55, 381, 594)" opacity="0.85"></rect><rect width="67" height="2" x="188.5" y="197" rx="1" transform="rotate(55, 222, 198)" opacity="0.90"></rect><rect width="132" height="2" x="418" y="230" rx="1" transform="rotate(55, 484, 231)" opacity="0.23"></rect><rect width="78" height="2" x="135" y="351" rx="1" transform="rotate(55, 174, 352)" opacity="0.54"></rect><rect width="136" height="2" x="331" y="415" rx="1" transform="rotate(55, 399, 416)" opacity="0.28"></rect><rect width="75" height="2" x="88.5" y="375" rx="1" transform="rotate(55, 126, 376)" opacity="0.92"></rect><rect width="59" height="2" x="231.5" y="250" rx="1" transform="rotate(55, 261, 251)" opacity="0.08"></rect><rect width="108" height="2" x="264" y="18" rx="1" transform="rotate(55, 318, 19)" opacity="0.93"></rect><rect width="285" height="2" x="-117.5" y="560" rx="1" transform="rotate(55, 25, 561)" opacity="0.30"></rect><rect width="145" height="2" x="367.5" y="687" rx="1" transform="rotate(55, 440, 688)" opacity="0.58"></rect><rect width="37" height="2" x="630.5" y="603" rx="1" transform="rotate(55, 649, 604)" opacity="0.65"></rect><rect width="169" height="2" x="381.5" y="514" rx="1" transform="rotate(55, 466, 515)" opacity="0.28"></rect><rect width="85" height="2" x="101.5" y="20" rx="1" transform="rotate(55, 144, 21)" opacity="0.33"></rect><rect width="43" height="2" x="382.5" y="178" rx="1" transform="rotate(55, 404, 179)" opacity="0.43"></rect><rect width="253" height="2" x="124.5" y="67" rx="1" transform="rotate(55, 251, 68)" opacity="0.85"></rect><rect width="128" height="2" x="386" y="750" rx="1" transform="rotate(55, 450, 751)" opacity="0.57"></rect><rect width="60" height="2" x="50" y="335" rx="1" transform="rotate(55, 80, 336)" opacity="0.75"></rect><rect width="36" height="2" x="264" y="315" rx="1" transform="rotate(55, 282, 316)" opacity="0.98"></rect><rect width="45" height="2" x="290.5" y="608" rx="1" transform="rotate(55, 313, 609)" opacity="0.57"></rect><rect width="333" height="2" x="-133.5" y="726" rx="1" transform="rotate(55, 33, 727)" opacity="0.65"></rect><rect width="254" height="2" x="417" y="88" rx="1" transform="rotate(55, 544, 89)" opacity="0.23"></rect><rect width="133" height="2" x="686.5" y="407" rx="1" transform="rotate(55, 753, 408)" opacity="0.51"></rect><rect width="153" height="2" x="61.5" y="72" rx="1" transform="rotate(55, 138, 73)" opacity="0.21"></rect><rect width="62" height="2" x="330" y="546" rx="1" transform="rotate(55, 361, 547)" opacity="0.68"></rect><rect width="168" height="2" x="481" y="255" rx="1" transform="rotate(55, 565, 256)" opacity="0.97"></rect><rect width="106" height="2" x="119" y="161" rx="1" transform="rotate(55, 172, 162)" opacity="0.23"></rect><rect width="79" height="2" x="339.5" y="344" rx="1" transform="rotate(55, 379, 345)" opacity="0.32"></rect><rect width="192" height="2" x="621" y="253" rx="1" transform="rotate(55, 717, 254)" opacity="0.92"></rect><rect width="259" height="2" x="351.5" y="171" rx="1" transform="rotate(55, 481, 172)" opacity="0.51"></rect><rect width="72" height="2" x="705" y="778" rx="1" transform="rotate(55, 741, 779)" opacity="0.46"></rect><rect width="197" height="2" x="112.5" y="567" rx="1" transform="rotate(55, 211, 568)" opacity="0.77"></rect><rect width="182" height="2" x="343" y="93" rx="1" transform="rotate(55, 434, 94)" opacity="0.34"></rect><rect width="69" height="2" x="281.5" y="709" rx="1" transform="rotate(55, 316, 710)" opacity="0.73"></rect><rect width="144" height="2" x="695" y="577" rx="1" transform="rotate(55, 767, 578)" opacity="0.87"></rect></g></svg>