<svg xmlns="http://www.w3.org/2000/svg" version="1.1" xmlns:xlink="http://www.w3.org/1999/xlink" xmlns:svgjs="http://svgjs.dev/svgjs" width="1200" height="800" preserveAspectRatio="none" viewBox="0 0 1200 800"><g mask="url(&quot;#SvgjsMask1101&quot;)" fill="none"><rect width="1200" height="800" x="0" y="0" fill="rgba(0, 6, 12, 1)"></rect><path d="M271 662L270 1192" stroke-width="6" stroke="url(&quot;#SvgjsLinearGradient1102&quot;)" stroke-linecap="round" class="Up"></path><path d="M579 736L578 1091" stroke-width="6" stroke="url(&quot;#SvgjsLinearGradient1102&quot;)" stroke-linecap="round" class="Up"></path><path d="M592 84L591 413" stroke-width="10" stroke="url(&quot;#SvgjsLinearGradient1103&quot;)" stroke-linecap="round" class="Up"></path><path d="M1151 273L1150 654" stroke-width="6" stroke="url(&quot;#SvgjsLinearGradient1104&quot;)" stroke-linecap="round" class="Down"></path><path d="M1064 561L1063 990" stroke-width="6" stroke="url(&quot;#SvgjsLinearGradient1105&quot;)" stroke-linecap="round" class="Down"></path><path d="M866 798L865 1143" stroke-width="8" stroke="url(&quot;#SvgjsLinearGradient1104&quot;)" stroke-linecap="round" class="Down"></path><path d="M1107 764L1106 312" stroke-width="8" stroke="url(&quot;#SvgjsLinearGradient1105&quot;)" stroke-linecap="round" class="Down"></path><path d="M868 294L867 663" stroke-width="10" stroke="url(&quot;#SvgjsLinearGradient1105&quot;)" stroke-linecap="round" class="Down"></path><path d="M633 351L632 792" stroke-width="10" stroke="url(&quot;#SvgjsLinearGradient1106&quot;)" stroke-linecap="round" class="Down"></path><path d="M985 371L984 1" stroke-width="6" stroke="url(&quot;#SvgjsLinearGradient1104&quot;)" stroke-linecap="round" class="Down"></path><path d="M578 330L577 -105" stroke-width="6" stroke="url(&quot;#SvgjsLinearGradient1102&quot;)" stroke-linecap="round" class="Up"></path><path d="M993 686L992 478" stroke-width="10" stroke="url(&quot;#SvgjsLinearGradient1107&quot;)" stroke-linecap="round" class="Up"></path><path d="M929 482L928 984" stroke-width="10" stroke="url(&quot;#SvgjsLinearGradient1106&quot;)" stroke-linecap="round" class="Down"></path><path d="M622 485L621 24" stroke-width="8" stroke="url(&quot;#SvgjsLinearGradient1105&quot;)" stroke-linecap="round" class="Down"></path><path d="M288 767L287 513" stroke-width="6" stroke="url(&quot;#SvgjsLinearGradient1106&quot;)" stroke-linecap="round" class="Down"></path><path d="M809 551L808 -37" stroke-width="10" stroke="url(&quot;#SvgjsLinearGradient1107&quot;)" stroke-linecap="round" class="Up"></path><path d="M907 574L906 1045" stroke-width="8" stroke="url(&quot;#SvgjsLinearGradient1107&quot;)" stroke-linecap="round" class="Up"></path><path d="M203 723L202 1230" stroke-width="8" stroke="url(&quot;#SvgjsLinearGradient1106&quot;)" stroke-linecap="round" class="Down"></path><path d="M600 140L599 581" stroke-width="8" stroke="url(&quot;#SvgjsLinearGradient1105&quot;)" stroke-linecap="round" class="Down"></path><path d="M64 506L63 1059" stroke-width="10" stroke="url(&quot;#SvgjsLinearGradient1106&quot;)" stroke-linecap="round" class="Down"></path><path d="M1088 732L1087 384" stroke-width="10" stroke="url(&quot;#SvgjsLinearGradient1102&quot;)" stroke-linecap="round" class="Up"></path><path d="M141 674L140 1136" stroke-width="8" stroke="url(&quot;#SvgjsLinearGradient1105&quot;)" stroke-linecap="round" class="Down"></path><path d="M101 374L100 660" stroke-width="10" stroke="url(&quot;#SvgjsLinearGradient1107&quot;)" stroke-linecap="round" class="Up"></path><path d="M59 546L58 34" stroke-width="10" stroke="url(&quot;#SvgjsLinearGradient1105&quot;)" stroke-linecap="round" class="Down"></path><path d="M771 368L770 134" stroke-width="6" stroke="url(&quot;#SvgjsLinearGradient1105&quot;)" stroke-linecap="round" class="Down"></path><path d="M1028 166L1027 -319" stroke-width="6" stroke="url(&quot;#SvgjsLinearGradient1102&quot;)" stroke-linecap="round" class="Up"></path><path d="M986 34L985 390" stroke-width="10" stroke="url(&quot;#SvgjsLinearGradient1107&quot;)" stroke-linecap="round" class="Up"></path><path d="M1100 260L1099 -115" stroke-width="6" stroke="url(&quot;#SvgjsLinearGradient1103&quot;)" stroke-linecap="round" class="Up"></path><path d="M190 799L189 375" stroke-width="8" stroke="url(&quot;#SvgjsLinearGradient1102&quot;)" stroke-linecap="round" class="Up"></path><path d="M772 409L771 907" stroke-width="8" stroke="url(&quot;#SvgjsLinearGradient1106&quot;)" stroke-linecap="round" class="Down"></path></g><defs><mask id="SvgjsMask1101"><rect width="1200" height="800" fill="#ffffff"></rect></mask><linearGradient x1="0%" y1="100%" x2="0%" y2="0%" id="SvgjsLinearGradient1102"><stop stop-color="rgba(24, 213, 47, 0)" offset="0"></stop><stop stop-color="rgba(24, 213, 47, 0.88)" offset="1"></stop></linearGradient><linearGradient x1="0%" y1="100%" x2="0%" y2="0%" id="SvgjsLinearGradient1103"><stop stop-color="rgba(75, 84, 182, 0)" offset="0"></stop><stop stop-color="rgba(75, 84, 182, 1)" offset="1"></stop></linearGradient><linearGradient x1="0%" y1="0%" x2="0%" y2="100%" id="SvgjsLinearGradient1104"><stop stop-color="rgba(24, 213, 47, 0)" offset="0"></stop><stop stop-color="rgba(24, 213, 47, 0.88)" offset="1"></stop></linearGradient><linearGradient x1="0%" y1="0%" x2="0%" y2="100%" id="SvgjsLinearGradient1105"><stop stop-color="rgba(75, 84, 182, 0)" offset="0"></stop><stop stop-color="rgba(75, 84, 182, 1)" offset="1"></stop></linearGradient><linearGradient x1="0%" y1="0%" x2="0%" y2="100%" id="SvgjsLinearGradient1106"><stop stop-color="rgba(183, 50, 224, 0)" offset="0"></stop><stop stop-color="rgba(183, 50, 224, 1)" offset="1"></stop></linearGradient><linearGradient x1="0%" y1="100%" x2="0%" y2="0%" id="SvgjsLinearGradient1107"><stop stop-color="rgba(183, 50, 224, 0)" offset="0"></stop><stop stop-color="rgba(183, 50, 224, 1)" offset="1"></stop></linearGradient></defs></svg>