<svg xmlns="http://www.w3.org/2000/svg" version="1.1" xmlns:xlink="http://www.w3.org/1999/xlink" xmlns:svgjs="http://svgjs.dev/svgjs" width="1440" height="560" preserveAspectRatio="none" viewBox="0 0 1440 560"><g mask="url(&quot;#SvgjsMask2455&quot;)" fill="none"><rect width="1440" height="560" x="0" y="0" fill="url(&quot;#SvgjsLinearGradient2456&quot;)"></rect><g transform="translate(-28.8, 5.6)" stroke-linecap="round"><path d="M448 230.28 L448 329.72" stroke-width="25.5" stroke="rgba(78, 52, 80, 1)"></path><path d="M482 214.55 L482 345.45" stroke-width="25.5" stroke="rgba(78, 52, 80, 1)"></path><path d="M516 229.81 L516 330.19" stroke-width="25.5" stroke="rgba(78, 52, 80, 1)"></path><path d="M550 259.75 L550 300.25" stroke-width="25.5" stroke="rgba(78, 52, 80, 1)"></path><path d="M584 201.21 L584 358.79" stroke-width="25.5" stroke="rgba(78, 52, 80, 1)"></path><path d="M618 244.28 L618 315.72" stroke-width="25.5" stroke="rgba(78, 52, 80, 1)"></path><path d="M652 242.94 L652 317.06" stroke-width="25.5" stroke="rgba(78, 52, 80, 1)"></path><path d="M686 187.22 L686 372.77" stroke-width="25.5" stroke="rgba(78, 52, 80, 1)"></path><path d="M720 221.79 L720 338.21" stroke-width="25.5" stroke="rgba(78, 52, 80, 1)"></path><path d="M754 206.95 L754 353.05" stroke-width="25.5" stroke="rgba(78, 52, 80, 1)"></path><path d="M788 190.97 L788 369.03" stroke-width="25.5" stroke="rgba(78, 52, 80, 1)"></path><path d="M822 224.06 L822 335.94" stroke-width="25.5" stroke="rgba(78, 52, 80, 1)"></path><path d="M856 201.03 L856 358.97" stroke-width="25.5" stroke="rgba(78, 52, 80, 1)"></path><path d="M890 252.38 L890 307.62" stroke-width="25.5" stroke="rgba(78, 52, 80, 1)"></path><path d="M924 228.05 L924 331.95" stroke-width="25.5" stroke="rgba(78, 52, 80, 1)"></path><path d="M958 234.66 L958 325.34" stroke-width="25.5" stroke="rgba(78, 52, 80, 1)"></path><path d="M992 244.74 L992 315.26" stroke-width="25.5" stroke="rgba(78, 52, 80, 1)"></path></g></g><defs><mask id="SvgjsMask2455"><rect width="1440" height="560" fill="#ffffff"></rect></mask><linearGradient x1="15.28%" y1="139.29%" x2="84.72%" y2="-39.29%" gradientUnits="userSpaceOnUse" id="SvgjsLinearGradient2456"><stop stop-color="#0e2a47" offset="0"></stop><stop stop-color="rgba(137, 89, 138, 1)" offset="0.52"></stop><stop stop-color="rgba(171, 203, 168, 1)" offset="0.68"></stop></linearGradient></defs></svg>