<svg xmlns="http://www.w3.org/2000/svg" version="1.1" xmlns:xlink="http://www.w3.org/1999/xlink" xmlns:svgjs="http://svgjs.dev/svgjs" viewBox="0 0 800 800" opacity="1"><defs><linearGradient gradientTransform="rotate(270)" x1="50%" y1="0%" x2="50%" y2="100%" id="sssquiggly-grad"><stop stop-color="hsl(37, 99%, 67%)" stop-opacity="1" offset="0%"></stop><stop stop-color="hsl(316, 73%, 52%)" stop-opacity="1" offset="100%"></stop></linearGradient></defs><g stroke-width="2" stroke="url(#sssquiggly-grad)" fill="none" stroke-linecap="round" transform="matrix(1,0,0,1,-5,16.026901245117188)"><path d="M10,10C26.435185185185183,17.916666666666664,53.93518518518518,58.20833333333333,88.88888888888889,48C123.84259259259258,37.79166666666667,140.74074074074073,-36.708333333333336,177.77777777777777,-39C214.8148148148148,-41.291666666666664,229.6296296296296,29.708333333333336,266.66666666666663,37C303.7037037037037,44.291666666666664,318.5185185185185,-11.083333333333334,355.55555555555554,-4C392.5925925925926,3.083333333333334,407.40740740740745,71.20833333333333,444.44444444444446,71C481.48148148148147,70.79166666666667,496.29629629629625,-2.7083333333333335,533.3333333333333,-5C570.3703703703703,-7.291666666666666,585.1851851851851,59.375,622.2222222222222,60C659.2592592592592,60.625,674.074074074074,-0.75,711.1111111111111,-2C748.1481481481482,-3.25,781.4814814814815,42.33333333333333,800,54"></path><path d="M10,10C26.435185185185183,17.916666666666664,53.93518518518518,58.20833333333333,88.88888888888889,48C123.84259259259258,37.79166666666667,140.74074074074073,-36.708333333333336,177.77777777777777,-39C214.8148148148148,-41.291666666666664,229.6296296296296,29.708333333333336,266.66666666666663,37C303.7037037037037,44.291666666666664,318.5185185185185,-11.083333333333334,355.55555555555554,-4C392.5925925925926,3.083333333333334,407.40740740740745,71.20833333333333,444.44444444444446,71C481.48148148148147,70.79166666666667,496.29629629629625,-2.7083333333333335,533.3333333333333,-5C570.3703703703703,-7.291666666666666,585.1851851851851,59.375,622.2222222222222,60C659.2592592592592,60.625,674.074074074074,-0.75,711.1111111111111,-2C748.1481481481482,-3.25,781.4814814814815,42.33333333333333,800,54" transform="matrix(1,0,0,1,0,736)"></path><path d="M10,10C26.435185185185183,17.916666666666664,53.93518518518518,58.20833333333333,88.88888888888889,48C123.84259259259258,37.79166666666667,140.74074074074073,-36.708333333333336,177.77777777777777,-39C214.8148148148148,-41.291666666666664,229.6296296296296,29.708333333333336,266.66666666666663,37C303.7037037037037,44.291666666666664,318.5185185185185,-11.083333333333334,355.55555555555554,-4C392.5925925925926,3.083333333333334,407.40740740740745,71.20833333333333,444.44444444444446,71C481.48148148148147,70.79166666666667,496.29629629629625,-2.7083333333333335,533.3333333333333,-5C570.3703703703703,-7.291666666666666,585.1851851851851,59.375,622.2222222222222,60C659.2592592592592,60.625,674.074074074074,-0.75,711.1111111111111,-2C748.1481481481482,-3.25,781.4814814814815,42.33333333333333,800,54" transform="matrix(1,0,0,1,0,704)"></path><path d="M10,10C26.435185185185183,17.916666666666664,53.93518518518518,58.20833333333333,88.88888888888889,48C123.84259259259258,37.79166666666667,140.74074074074073,-36.708333333333336,177.77777777777777,-39C214.8148148148148,-41.291666666666664,229.6296296296296,29.708333333333336,266.66666666666663,37C303.7037037037037,44.291666666666664,318.5185185185185,-11.083333333333334,355.55555555555554,-4C392.5925925925926,3.083333333333334,407.40740740740745,71.20833333333333,444.44444444444446,71C481.48148148148147,70.79166666666667,496.29629629629625,-2.7083333333333335,533.3333333333333,-5C570.3703703703703,-7.291666666666666,585.1851851851851,59.375,622.2222222222222,60C659.2592592592592,60.625,674.074074074074,-0.75,711.1111111111111,-2C748.1481481481482,-3.25,781.4814814814815,42.33333333333333,800,54" transform="matrix(1,0,0,1,0,672)"></path><path d="M10,10C26.435185185185183,17.916666666666664,53.93518518518518,58.20833333333333,88.88888888888889,48C123.84259259259258,37.79166666666667,140.74074074074073,-36.708333333333336,177.77777777777777,-39C214.8148148148148,-41.291666666666664,229.6296296296296,29.708333333333336,266.66666666666663,37C303.7037037037037,44.291666666666664,318.5185185185185,-11.083333333333334,355.55555555555554,-4C392.5925925925926,3.083333333333334,407.40740740740745,71.20833333333333,444.44444444444446,71C481.48148148148147,70.79166666666667,496.29629629629625,-2.7083333333333335,533.3333333333333,-5C570.3703703703703,-7.291666666666666,585.1851851851851,59.375,622.2222222222222,60C659.2592592592592,60.625,674.074074074074,-0.75,711.1111111111111,-2C748.1481481481482,-3.25,781.4814814814815,42.33333333333333,800,54" transform="matrix(1,0,0,1,0,640)"></path><path d="M10,10C26.435185185185183,17.916666666666664,53.93518518518518,58.20833333333333,88.88888888888889,48C123.84259259259258,37.79166666666667,140.74074074074073,-36.708333333333336,177.77777777777777,-39C214.8148148148148,-41.291666666666664,229.6296296296296,29.708333333333336,266.66666666666663,37C303.7037037037037,44.291666666666664,318.5185185185185,-11.083333333333334,355.55555555555554,-4C392.5925925925926,3.083333333333334,407.40740740740745,71.20833333333333,444.44444444444446,71C481.48148148148147,70.79166666666667,496.29629629629625,-2.7083333333333335,533.3333333333333,-5C570.3703703703703,-7.291666666666666,585.1851851851851,59.375,622.2222222222222,60C659.2592592592592,60.625,674.074074074074,-0.75,711.1111111111111,-2C748.1481481481482,-3.25,781.4814814814815,42.33333333333333,800,54" transform="matrix(1,0,0,1,0,608)"></path><path d="M10,10C26.435185185185183,17.916666666666664,53.93518518518518,58.20833333333333,88.88888888888889,48C123.84259259259258,37.79166666666667,140.74074074074073,-36.708333333333336,177.77777777777777,-39C214.8148148148148,-41.291666666666664,229.6296296296296,29.708333333333336,266.66666666666663,37C303.7037037037037,44.291666666666664,318.5185185185185,-11.083333333333334,355.55555555555554,-4C392.5925925925926,3.083333333333334,407.40740740740745,71.20833333333333,444.44444444444446,71C481.48148148148147,70.79166666666667,496.29629629629625,-2.7083333333333335,533.3333333333333,-5C570.3703703703703,-7.291666666666666,585.1851851851851,59.375,622.2222222222222,60C659.2592592592592,60.625,674.074074074074,-0.75,711.1111111111111,-2C748.1481481481482,-3.25,781.4814814814815,42.33333333333333,800,54" transform="matrix(1,0,0,1,0,576)"></path><path d="M10,10C26.435185185185183,17.916666666666664,53.93518518518518,58.20833333333333,88.88888888888889,48C123.84259259259258,37.79166666666667,140.74074074074073,-36.708333333333336,177.77777777777777,-39C214.8148148148148,-41.291666666666664,229.6296296296296,29.708333333333336,266.66666666666663,37C303.7037037037037,44.291666666666664,318.5185185185185,-11.083333333333334,355.55555555555554,-4C392.5925925925926,3.083333333333334,407.40740740740745,71.20833333333333,444.44444444444446,71C481.48148148148147,70.79166666666667,496.29629629629625,-2.7083333333333335,533.3333333333333,-5C570.3703703703703,-7.291666666666666,585.1851851851851,59.375,622.2222222222222,60C659.2592592592592,60.625,674.074074074074,-0.75,711.1111111111111,-2C748.1481481481482,-3.25,781.4814814814815,42.33333333333333,800,54" transform="matrix(1,0,0,1,0,544)"></path><path d="M10,10C26.435185185185183,17.916666666666664,53.93518518518518,58.20833333333333,88.88888888888889,48C123.84259259259258,37.79166666666667,140.74074074074073,-36.708333333333336,177.77777777777777,-39C214.8148148148148,-41.291666666666664,229.6296296296296,29.708333333333336,266.66666666666663,37C303.7037037037037,44.291666666666664,318.5185185185185,-11.083333333333334,355.55555555555554,-4C392.5925925925926,3.083333333333334,407.40740740740745,71.20833333333333,444.44444444444446,71C481.48148148148147,70.79166666666667,496.29629629629625,-2.7083333333333335,533.3333333333333,-5C570.3703703703703,-7.291666666666666,585.1851851851851,59.375,622.2222222222222,60C659.2592592592592,60.625,674.074074074074,-0.75,711.1111111111111,-2C748.1481481481482,-3.25,781.4814814814815,42.33333333333333,800,54" transform="matrix(1,0,0,1,0,512)"></path><path d="M10,10C26.435185185185183,17.916666666666664,53.93518518518518,58.20833333333333,88.88888888888889,48C123.84259259259258,37.79166666666667,140.74074074074073,-36.708333333333336,177.77777777777777,-39C214.8148148148148,-41.291666666666664,229.6296296296296,29.708333333333336,266.66666666666663,37C303.7037037037037,44.291666666666664,318.5185185185185,-11.083333333333334,355.55555555555554,-4C392.5925925925926,3.083333333333334,407.40740740740745,71.20833333333333,444.44444444444446,71C481.48148148148147,70.79166666666667,496.29629629629625,-2.7083333333333335,533.3333333333333,-5C570.3703703703703,-7.291666666666666,585.1851851851851,59.375,622.2222222222222,60C659.2592592592592,60.625,674.074074074074,-0.75,711.1111111111111,-2C748.1481481481482,-3.25,781.4814814814815,42.33333333333333,800,54" transform="matrix(1,0,0,1,0,480)"></path><path d="M10,10C26.435185185185183,17.916666666666664,53.93518518518518,58.20833333333333,88.88888888888889,48C123.84259259259258,37.79166666666667,140.74074074074073,-36.708333333333336,177.77777777777777,-39C214.8148148148148,-41.291666666666664,229.6296296296296,29.708333333333336,266.66666666666663,37C303.7037037037037,44.291666666666664,318.5185185185185,-11.083333333333334,355.55555555555554,-4C392.5925925925926,3.083333333333334,407.40740740740745,71.20833333333333,444.44444444444446,71C481.48148148148147,70.79166666666667,496.29629629629625,-2.7083333333333335,533.3333333333333,-5C570.3703703703703,-7.291666666666666,585.1851851851851,59.375,622.2222222222222,60C659.2592592592592,60.625,674.074074074074,-0.75,711.1111111111111,-2C748.1481481481482,-3.25,781.4814814814815,42.33333333333333,800,54" transform="matrix(1,0,0,1,0,448)"></path><path d="M10,10C26.435185185185183,17.916666666666664,53.93518518518518,58.20833333333333,88.88888888888889,48C123.84259259259258,37.79166666666667,140.74074074074073,-36.708333333333336,177.77777777777777,-39C214.8148148148148,-41.291666666666664,229.6296296296296,29.708333333333336,266.66666666666663,37C303.7037037037037,44.291666666666664,318.5185185185185,-11.083333333333334,355.55555555555554,-4C392.5925925925926,3.083333333333334,407.40740740740745,71.20833333333333,444.44444444444446,71C481.48148148148147,70.79166666666667,496.29629629629625,-2.7083333333333335,533.3333333333333,-5C570.3703703703703,-7.291666666666666,585.1851851851851,59.375,622.2222222222222,60C659.2592592592592,60.625,674.074074074074,-0.75,711.1111111111111,-2C748.1481481481482,-3.25,781.4814814814815,42.33333333333333,800,54" transform="matrix(1,0,0,1,0,416)"></path><path d="M10,10C26.435185185185183,17.916666666666664,53.93518518518518,58.20833333333333,88.88888888888889,48C123.84259259259258,37.79166666666667,140.74074074074073,-36.708333333333336,177.77777777777777,-39C214.8148148148148,-41.291666666666664,229.6296296296296,29.708333333333336,266.66666666666663,37C303.7037037037037,44.291666666666664,318.5185185185185,-11.083333333333334,355.55555555555554,-4C392.5925925925926,3.083333333333334,407.40740740740745,71.20833333333333,444.44444444444446,71C481.48148148148147,70.79166666666667,496.29629629629625,-2.7083333333333335,533.3333333333333,-5C570.3703703703703,-7.291666666666666,585.1851851851851,59.375,622.2222222222222,60C659.2592592592592,60.625,674.074074074074,-0.75,711.1111111111111,-2C748.1481481481482,-3.25,781.4814814814815,42.33333333333333,800,54" transform="matrix(1,0,0,1,0,384)"></path><path d="M10,10C26.435185185185183,17.916666666666664,53.93518518518518,58.20833333333333,88.88888888888889,48C123.84259259259258,37.79166666666667,140.74074074074073,-36.708333333333336,177.77777777777777,-39C214.8148148148148,-41.291666666666664,229.6296296296296,29.708333333333336,266.66666666666663,37C303.7037037037037,44.291666666666664,318.5185185185185,-11.083333333333334,355.55555555555554,-4C392.5925925925926,3.083333333333334,407.40740740740745,71.20833333333333,444.44444444444446,71C481.48148148148147,70.79166666666667,496.29629629629625,-2.7083333333333335,533.3333333333333,-5C570.3703703703703,-7.291666666666666,585.1851851851851,59.375,622.2222222222222,60C659.2592592592592,60.625,674.074074074074,-0.75,711.1111111111111,-2C748.1481481481482,-3.25,781.4814814814815,42.33333333333333,800,54" transform="matrix(1,0,0,1,0,352)"></path><path d="M10,10C26.435185185185183,17.916666666666664,53.93518518518518,58.20833333333333,88.88888888888889,48C123.84259259259258,37.79166666666667,140.74074074074073,-36.708333333333336,177.77777777777777,-39C214.8148148148148,-41.291666666666664,229.6296296296296,29.708333333333336,266.66666666666663,37C303.7037037037037,44.291666666666664,318.5185185185185,-11.083333333333334,355.55555555555554,-4C392.5925925925926,3.083333333333334,407.40740740740745,71.20833333333333,444.44444444444446,71C481.48148148148147,70.79166666666667,496.29629629629625,-2.7083333333333335,533.3333333333333,-5C570.3703703703703,-7.291666666666666,585.1851851851851,59.375,622.2222222222222,60C659.2592592592592,60.625,674.074074074074,-0.75,711.1111111111111,-2C748.1481481481482,-3.25,781.4814814814815,42.33333333333333,800,54" transform="matrix(1,0,0,1,0,320)"></path><path d="M10,10C26.435185185185183,17.916666666666664,53.93518518518518,58.20833333333333,88.88888888888889,48C123.84259259259258,37.79166666666667,140.74074074074073,-36.708333333333336,177.77777777777777,-39C214.8148148148148,-41.291666666666664,229.6296296296296,29.708333333333336,266.66666666666663,37C303.7037037037037,44.291666666666664,318.5185185185185,-11.083333333333334,355.55555555555554,-4C392.5925925925926,3.083333333333334,407.40740740740745,71.20833333333333,444.44444444444446,71C481.48148148148147,70.79166666666667,496.29629629629625,-2.7083333333333335,533.3333333333333,-5C570.3703703703703,-7.291666666666666,585.1851851851851,59.375,622.2222222222222,60C659.2592592592592,60.625,674.074074074074,-0.75,711.1111111111111,-2C748.1481481481482,-3.25,781.4814814814815,42.33333333333333,800,54" transform="matrix(1,0,0,1,0,288)"></path><path d="M10,10C26.435185185185183,17.916666666666664,53.93518518518518,58.20833333333333,88.88888888888889,48C123.84259259259258,37.79166666666667,140.74074074074073,-36.708333333333336,177.77777777777777,-39C214.8148148148148,-41.291666666666664,229.6296296296296,29.708333333333336,266.66666666666663,37C303.7037037037037,44.291666666666664,318.5185185185185,-11.083333333333334,355.55555555555554,-4C392.5925925925926,3.083333333333334,407.40740740740745,71.20833333333333,444.44444444444446,71C481.48148148148147,70.79166666666667,496.29629629629625,-2.7083333333333335,533.3333333333333,-5C570.3703703703703,-7.291666666666666,585.1851851851851,59.375,622.2222222222222,60C659.2592592592592,60.625,674.074074074074,-0.75,711.1111111111111,-2C748.1481481481482,-3.25,781.4814814814815,42.33333333333333,800,54" transform="matrix(1,0,0,1,0,256)"></path><path d="M10,10C26.435185185185183,17.916666666666664,53.93518518518518,58.20833333333333,88.88888888888889,48C123.84259259259258,37.79166666666667,140.74074074074073,-36.708333333333336,177.77777777777777,-39C214.8148148148148,-41.291666666666664,229.6296296296296,29.708333333333336,266.66666666666663,37C303.7037037037037,44.291666666666664,318.5185185185185,-11.083333333333334,355.55555555555554,-4C392.5925925925926,3.083333333333334,407.40740740740745,71.20833333333333,444.44444444444446,71C481.48148148148147,70.79166666666667,496.29629629629625,-2.7083333333333335,533.3333333333333,-5C570.3703703703703,-7.291666666666666,585.1851851851851,59.375,622.2222222222222,60C659.2592592592592,60.625,674.074074074074,-0.75,711.1111111111111,-2C748.1481481481482,-3.25,781.4814814814815,42.33333333333333,800,54" transform="matrix(1,0,0,1,0,224)"></path><path d="M10,10C26.435185185185183,17.916666666666664,53.93518518518518,58.20833333333333,88.88888888888889,48C123.84259259259258,37.79166666666667,140.74074074074073,-36.708333333333336,177.77777777777777,-39C214.8148148148148,-41.291666666666664,229.6296296296296,29.708333333333336,266.66666666666663,37C303.7037037037037,44.291666666666664,318.5185185185185,-11.083333333333334,355.55555555555554,-4C392.5925925925926,3.083333333333334,407.40740740740745,71.20833333333333,444.44444444444446,71C481.48148148148147,70.79166666666667,496.29629629629625,-2.7083333333333335,533.3333333333333,-5C570.3703703703703,-7.291666666666666,585.1851851851851,59.375,622.2222222222222,60C659.2592592592592,60.625,674.074074074074,-0.75,711.1111111111111,-2C748.1481481481482,-3.25,781.4814814814815,42.33333333333333,800,54" transform="matrix(1,0,0,1,0,192)"></path><path d="M10,10C26.435185185185183,17.916666666666664,53.93518518518518,58.20833333333333,88.88888888888889,48C123.84259259259258,37.79166666666667,140.74074074074073,-36.708333333333336,177.77777777777777,-39C214.8148148148148,-41.291666666666664,229.6296296296296,29.708333333333336,266.66666666666663,37C303.7037037037037,44.291666666666664,318.5185185185185,-11.083333333333334,355.55555555555554,-4C392.5925925925926,3.083333333333334,407.40740740740745,71.20833333333333,444.44444444444446,71C481.48148148148147,70.79166666666667,496.29629629629625,-2.7083333333333335,533.3333333333333,-5C570.3703703703703,-7.291666666666666,585.1851851851851,59.375,622.2222222222222,60C659.2592592592592,60.625,674.074074074074,-0.75,711.1111111111111,-2C748.1481481481482,-3.25,781.4814814814815,42.33333333333333,800,54" transform="matrix(1,0,0,1,0,160)"></path><path d="M10,10C26.435185185185183,17.916666666666664,53.93518518518518,58.20833333333333,88.88888888888889,48C123.84259259259258,37.79166666666667,140.74074074074073,-36.708333333333336,177.77777777777777,-39C214.8148148148148,-41.291666666666664,229.6296296296296,29.708333333333336,266.66666666666663,37C303.7037037037037,44.291666666666664,318.5185185185185,-11.083333333333334,355.55555555555554,-4C392.5925925925926,3.083333333333334,407.40740740740745,71.20833333333333,444.44444444444446,71C481.48148148148147,70.79166666666667,496.29629629629625,-2.7083333333333335,533.3333333333333,-5C570.3703703703703,-7.291666666666666,585.1851851851851,59.375,622.2222222222222,60C659.2592592592592,60.625,674.074074074074,-0.75,711.1111111111111,-2C748.1481481481482,-3.25,781.4814814814815,42.33333333333333,800,54" transform="matrix(1,0,0,1,0,128)"></path><path d="M10,10C26.435185185185183,17.916666666666664,53.93518518518518,58.20833333333333,88.88888888888889,48C123.84259259259258,37.79166666666667,140.74074074074073,-36.708333333333336,177.77777777777777,-39C214.8148148148148,-41.291666666666664,229.6296296296296,29.708333333333336,266.66666666666663,37C303.7037037037037,44.291666666666664,318.5185185185185,-11.083333333333334,355.55555555555554,-4C392.5925925925926,3.083333333333334,407.40740740740745,71.20833333333333,444.44444444444446,71C481.48148148148147,70.79166666666667,496.29629629629625,-2.7083333333333335,533.3333333333333,-5C570.3703703703703,-7.291666666666666,585.1851851851851,59.375,622.2222222222222,60C659.2592592592592,60.625,674.074074074074,-0.75,711.1111111111111,-2C748.1481481481482,-3.25,781.4814814814815,42.33333333333333,800,54" transform="matrix(1,0,0,1,0,96)"></path><path d="M10,10C26.435185185185183,17.916666666666664,53.93518518518518,58.20833333333333,88.88888888888889,48C123.84259259259258,37.79166666666667,140.74074074074073,-36.708333333333336,177.77777777777777,-39C214.8148148148148,-41.291666666666664,229.6296296296296,29.708333333333336,266.66666666666663,37C303.7037037037037,44.291666666666664,318.5185185185185,-11.083333333333334,355.55555555555554,-4C392.5925925925926,3.083333333333334,407.40740740740745,71.20833333333333,444.44444444444446,71C481.48148148148147,70.79166666666667,496.29629629629625,-2.7083333333333335,533.3333333333333,-5C570.3703703703703,-7.291666666666666,585.1851851851851,59.375,622.2222222222222,60C659.2592592592592,60.625,674.074074074074,-0.75,711.1111111111111,-2C748.1481481481482,-3.25,781.4814814814815,42.33333333333333,800,54" transform="matrix(1,0,0,1,0,64)"></path><path d="M10,10C26.435185185185183,17.916666666666664,53.93518518518518,58.20833333333333,88.88888888888889,48C123.84259259259258,37.79166666666667,140.74074074074073,-36.708333333333336,177.77777777777777,-39C214.8148148148148,-41.291666666666664,229.6296296296296,29.708333333333336,266.66666666666663,37C303.7037037037037,44.291666666666664,318.5185185185185,-11.083333333333334,355.55555555555554,-4C392.5925925925926,3.083333333333334,407.40740740740745,71.20833333333333,444.44444444444446,71C481.48148148148147,70.79166666666667,496.29629629629625,-2.7083333333333335,533.3333333333333,-5C570.3703703703703,-7.291666666666666,585.1851851851851,59.375,622.2222222222222,60C659.2592592592592,60.625,674.074074074074,-0.75,711.1111111111111,-2C748.1481481481482,-3.25,781.4814814814815,42.33333333333333,800,54" transform="matrix(1,0,0,1,0,32)"></path></g></svg>