<svg id="visual" viewBox="0 0 3840 2160" width="3840" height="2160" xmlns="http://www.w3.org/2000/svg" xmlns:xlink="http://www.w3.org/1999/xlink" version="1.1"><rect x="0" y="0" width="3840" height="2160" fill="#000000"></rect><path d="M0 453L427 265L853 372L1280 113L1707 187L2133 399L2560 369L2987 461L3413 177L3840 274L3840 2161L3413 2161L2987 2161L2560 2161L2133 2161L1707 2161L1280 2161L853 2161L427 2161L0 2161Z" fill="#f7770f"></path><path d="M0 623L427 391L853 534L1280 573L1707 386L2133 285L2560 566L2987 674L3413 616L3840 350L3840 2161L3413 2161L2987 2161L2560 2161L2133 2161L1707 2161L1280 2161L853 2161L427 2161L0 2161Z" fill="#ef602c"></path><path d="M0 806L427 803L853 802L1280 744L1707 496L2133 784L2560 561L2987 627L3413 805L3840 578L3840 2161L3413 2161L2987 2161L2560 2161L2133 2161L1707 2161L1280 2161L853 2161L427 2161L0 2161Z" fill="#e24a3d"></path><path d="M0 746L427 856L853 924L1280 986L1707 598L2133 940L2560 607L2987 927L3413 854L3840 778L3840 2161L3413 2161L2987 2161L2560 2161L2133 2161L1707 2161L1280 2161L853 2161L427 2161L0 2161Z" fill="#d1394a"></path><path d="M0 935L427 999L853 1102L1280 971L1707 945L2133 1029L2560 900L2987 1092L3413 989L3840 996L3840 2161L3413 2161L2987 2161L2560 2161L2133 2161L1707 2161L1280 2161L853 2161L427 2161L0 2161Z" fill="#bc2d53"></path><path d="M0 1085L427 1236L853 1232L1280 1220L1707 1059L2133 1162L2560 1161L2987 1059L3413 934L3840 1026L3840 2161L3413 2161L2987 2161L2560 2161L2133 2161L1707 2161L1280 2161L853 2161L427 2161L0 2161Z" fill="#a32659"></path><path d="M0 1159L427 1373L853 1080L1280 1154L1707 1167L2133 1075L2560 1284L2987 1243L3413 1162L3840 1400L3840 2161L3413 2161L2987 2161L2560 2161L2133 2161L1707 2161L1280 2161L853 2161L427 2161L0 2161Z" fill="#89235a"></path><path d="M0 1404L427 1546L853 1463L1280 1265L1707 1499L2133 1279L2560 1555L2987 1331L3413 1268L3840 1376L3840 2161L3413 2161L2987 2161L2560 2161L2133 2161L1707 2161L1280 2161L853 2161L427 2161L0 2161Z" fill="#6d2258"></path><path d="M0 1524L427 1421L853 1454L1280 1544L1707 1685L2133 1658L2560 1555L2987 1601L3413 1403L3840 1660L3840 2161L3413 2161L2987 2161L2560 2161L2133 2161L1707 2161L1280 2161L853 2161L427 2161L0 2161Z" fill="#522051"></path><path d="M0 1714L427 1734L853 1820L1280 1743L1707 1688L2133 1745L2560 1693L2987 1569L3413 1823L3840 1776L3840 2161L3413 2161L2987 2161L2560 2161L2133 2161L1707 2161L1280 2161L853 2161L427 2161L0 2161Z" fill="#391d47"></path><path d="M0 1964L427 1948L853 1732L1280 1731L1707 1801L2133 1961L2560 1953L2987 1871L3413 1858L3840 1957L3840 2161L3413 2161L2987 2161L2560 2161L2133 2161L1707 2161L1280 2161L853 2161L427 2161L0 2161Z" fill="#22183a"></path><path d="M0 2004L427 1924L853 1902L1280 2056L1707 2060L2133 2086L2560 1937L2987 1877L3413 1990L3840 1944L3840 2161L3413 2161L2987 2161L2560 2161L2133 2161L1707 2161L1280 2161L853 2161L427 2161L0 2161Z" fill="#0f102a"></path></svg>