<svg id="visual" viewBox="0 0 3840 2160" width="3840" height="2160" xmlns="http://www.w3.org/2000/svg" xmlns:xlink="http://www.w3.org/1999/xlink" version="1.1"><rect x="0" y="0" width="3840" height="2160" fill="#000000"></rect><path d="M0 140L349 478L698 139L1047 416L1396 581L1745 195L2095 485L2444 394L2793 226L3142 567L3491 300L3840 357L3840 2161L3491 2161L3142 2161L2793 2161L2444 2161L2095 2161L1745 2161L1396 2161L1047 2161L698 2161L349 2161L0 2161Z" fill="#ffa000"></path><path d="M0 463L349 510L698 710L1047 715L1396 376L1745 341L2095 423L2444 283L2793 398L3142 298L3491 640L3840 390L3840 2161L3491 2161L3142 2161L2793 2161L2444 2161L2095 2161L1745 2161L1396 2161L1047 2161L698 2161L349 2161L0 2161Z" fill="#ff8633"></path><path d="M0 608L349 866L698 578L1047 512L1396 459L1745 620L2095 679L2444 550L2793 590L3142 471L3491 488L3840 865L3840 2161L3491 2161L3142 2161L2793 2161L2444 2161L2095 2161L1745 2161L1396 2161L1047 2161L698 2161L349 2161L0 2161Z" fill="#ff6f4f"></path><path d="M0 757L349 690L698 600L1047 684L1396 804L1745 717L2095 961L2444 690L2793 998L3142 895L3491 799L3840 607L3840 2161L3491 2161L3142 2161L2793 2161L2444 2161L2095 2161L1745 2161L1396 2161L1047 2161L698 2161L349 2161L0 2161Z" fill="#f85e67"></path><path d="M0 1082L349 899L698 1110L1047 954L1396 1034L1745 863L2095 925L2444 1128L2793 773L3142 772L3491 1032L3840 1117L3840 2161L3491 2161L3142 2161L2793 2161L2444 2161L2095 2161L1745 2161L1396 2161L1047 2161L698 2161L349 2161L0 2161Z" fill="#e4547b"></path><path d="M0 1006L349 940L698 1060L1047 948L1396 987L1745 952L2095 1194L2444 1013L2793 932L3142 1220L3491 1171L3840 1212L3840 2161L3491 2161L3142 2161L2793 2161L2444 2161L2095 2161L1745 2161L1396 2161L1047 2161L698 2161L349 2161L0 2161Z" fill="#c95189"></path><path d="M0 1146L349 1315L698 1234L1047 1173L1396 1284L1745 1115L2095 1266L2444 1418L2793 1228L3142 1095L3491 1337L3840 1185L3840 2161L3491 2161L3142 2161L2793 2161L2444 2161L2095 2161L1745 2161L1396 2161L1047 2161L698 2161L349 2161L0 2161Z" fill="#a95291"></path><path d="M0 1475L349 1466L698 1391L1047 1496L1396 1384L1745 1532L2095 1411L2444 1438L2793 1379L3142 1470L3491 1246L3840 1339L3840 2161L3491 2161L3142 2161L2793 2161L2444 2161L2095 2161L1745 2161L1396 2161L1047 2161L698 2161L349 2161L0 2161Z" fill="#865292"></path><path d="M0 1445L349 1495L698 1425L1047 1544L1396 1417L1745 1670L2095 1468L2444 1503L2793 1481L3142 1404L3491 1409L3840 1478L3840 2161L3491 2161L3142 2161L2793 2161L2444 2161L2095 2161L1745 2161L1396 2161L1047 2161L698 2161L349 2161L0 2161Z" fill="#64518c"></path><path d="M0 1664L349 1771L698 1686L1047 1595L1396 1730L1745 1574L2095 1775L2444 1789L2793 1739L3142 1829L3491 1659L3840 1662L3840 2161L3491 2161L3142 2161L2793 2161L2444 2161L2095 2161L1745 2161L1396 2161L1047 2161L698 2161L349 2161L0 2161Z" fill="#454e7f"></path><path d="M0 1966L349 1954L698 1754L1047 1717L1396 1834L1745 1900L2095 1921L2444 1728L2793 1820L3142 1773L3491 1903L3840 1820L3840 2161L3491 2161L3142 2161L2793 2161L2444 2161L2095 2161L1745 2161L1396 2161L1047 2161L698 2161L349 2161L0 2161Z" fill="#2c486d"></path><path d="M0 2095L349 2003L698 1946L1047 1986L1396 2002L1745 2019L2095 2103L2444 1986L2793 1960L3142 2001L3491 2048L3840 1923L3840 2161L3491 2161L3142 2161L2793 2161L2444 2161L2095 2161L1745 2161L1396 2161L1047 2161L698 2161L349 2161L0 2161Z" fill="#1d4059"></path></svg>