<svg id="visual" viewBox="0 0 3840 2160" width="3840" height="2160" xmlns="http://www.w3.org/2000/svg" xmlns:xlink="http://www.w3.org/1999/xlink" version="1.1"><rect x="0" y="0" width="3840" height="2160" fill="#000000"></rect><path d="M0 1132L349 1019L698 1030L1047 1238L1396 1051L1745 1331L2095 1311L2444 1268L2793 1385L3142 1564L3491 1109L3840 1257L3840 2161L3491 2161L3142 2161L2793 2161L2444 2161L2095 2161L1745 2161L1396 2161L1047 2161L698 2161L349 2161L0 2161Z" fill="#715df2"></path><path d="M0 1580L349 1574L698 1629L1047 1503L1396 1489L1745 1451L2095 1335L2444 1445L2793 1299L3142 1392L3491 1292L3840 1161L3840 2161L3491 2161L3142 2161L2793 2161L2444 2161L2095 2161L1745 2161L1396 2161L1047 2161L698 2161L349 2161L0 2161Z" fill="#2d7eff"></path><path d="M0 1449L349 1565L698 1713L1047 1390L1396 1475L1745 1378L2095 1531L2444 1539L2793 1420L3142 1419L3491 1568L3840 1600L3840 2161L3491 2161L3142 2161L2793 2161L2444 2161L2095 2161L1745 2161L1396 2161L1047 2161L698 2161L349 2161L0 2161Z" fill="#0099ff"></path><path d="M0 1640L349 1740L698 1763L1047 1586L1396 1542L1745 1461L2095 1318L2444 1330L2793 1659L3142 1694L3491 1389L3840 1675L3840 2161L3491 2161L3142 2161L2793 2161L2444 2161L2095 2161L1745 2161L1396 2161L1047 2161L698 2161L349 2161L0 2161Z" fill="#00afff"></path><path d="M0 1538L349 1715L698 1828L1047 1690L1396 1576L1745 1704L2095 1832L2444 1790L2793 1451L3142 1433L3491 1432L3840 1424L3840 2161L3491 2161L3142 2161L2793 2161L2444 2161L2095 2161L1745 2161L1396 2161L1047 2161L698 2161L349 2161L0 2161Z" fill="#00c3ff"></path><path d="M0 1788L349 1597L698 1721L1047 1776L1396 1670L1745 1658L2095 1711L2444 1822L2793 1787L3142 1862L3491 1656L3840 1596L3840 2161L3491 2161L3142 2161L2793 2161L2444 2161L2095 2161L1745 2161L1396 2161L1047 2161L698 2161L349 2161L0 2161Z" fill="#00d5ff"></path><path d="M0 1910L349 1766L698 1802L1047 1748L1396 1791L1745 1667L2095 1884L2444 1841L2793 1793L3142 1912L3491 1708L3840 1903L3840 2161L3491 2161L3142 2161L2793 2161L2444 2161L2095 2161L1745 2161L1396 2161L1047 2161L698 2161L349 2161L0 2161Z" fill="#00e5f7"></path><path d="M0 1761L349 1815L698 1891L1047 1745L1396 1778L1745 1798L2095 1769L2444 1768L2793 1976L3142 1750L3491 1771L3840 1818L3840 2161L3491 2161L3142 2161L2793 2161L2444 2161L2095 2161L1745 2161L1396 2161L1047 2161L698 2161L349 2161L0 2161Z" fill="#00f2d1"></path><path d="M0 1977L349 1888L698 2004L1047 1945L1396 1919L1745 1934L2095 2005L2444 1995L2793 2017L3142 1884L3491 1871L3840 1952L3840 2161L3491 2161L3142 2161L2793 2161L2444 2161L2095 2161L1745 2161L1396 2161L1047 2161L698 2161L349 2161L0 2161Z" fill="#00fb92"></path><path d="M0 2057L349 2015L698 2056L1047 2071L1396 2050L1745 1978L2095 2010L2444 2115L2793 2112L3142 2028L3491 1987L3840 2102L3840 2161L3491 2161L3142 2161L2793 2161L2444 2161L2095 2161L1745 2161L1396 2161L1047 2161L698 2161L349 2161L0 2161Z" fill="#00ff33"></path></svg>