<svg xmlns="http://www.w3.org/2000/svg" version="1.1" xmlns:xlink="http://www.w3.org/1999/xlink" xmlns:svgjs="http://svgjs.dev/svgjs" width="1200" height="800" preserveAspectRatio="none" viewBox="0 0 1200 800"><g mask="url(&quot;#SvgjsMask1065&quot;)" fill="none"><rect width="1200" height="800" x="0" y="0" fill="#0e2a47"></rect><g mask="url(&quot;#SvgjsMask1066&quot;)"><path d="M795 615L1185 615" stroke-width="5" stroke="rgba(38, 163, 70, 1)"></path><path d="M787.5 615 a7.5 7.5 0 1 0 15 0 a7.5 7.5 0 1 0 -15 0zM1177.5 615 a7.5 7.5 0 1 0 15 0 a7.5 7.5 0 1 0 -15 0z" fill="rgba(38, 163, 70, 1)"></path><path d="M1095 525L1155 585L1185 585" stroke-width="5" stroke="rgba(38, 163, 70, 1)"></path><path d="M1087.5 525 a7.5 7.5 0 1 0 15 0 a7.5 7.5 0 1 0 -15 0zM1177.5 585 a7.5 7.5 0 1 0 15 0 a7.5 7.5 0 1 0 -15 0z" fill="rgba(38, 163, 70, 1)"></path><path d="M1035 405L1185 555" stroke-width="5" stroke="rgba(38, 163, 70, 1)"></path><path d="M1027.5 405 a7.5 7.5 0 1 0 15 0 a7.5 7.5 0 1 0 -15 0zM1177.5 555 a7.5 7.5 0 1 0 15 0 a7.5 7.5 0 1 0 -15 0z" fill="rgba(38, 163, 70, 1)"></path><path d="M15 585L165 585L285 465L285 285L255 255L165 255" stroke-width="5" stroke="rgba(38, 163, 70, 1)"></path><path d="M7.5 585 a7.5 7.5 0 1 0 15 0 a7.5 7.5 0 1 0 -15 0zM157.5 255 a7.5 7.5 0 1 0 15 0 a7.5 7.5 0 1 0 -15 0z" fill="rgba(38, 163, 70, 1)"></path><path d="M825 705L585 705L405 525L255 525" stroke-width="5" stroke="rgba(38, 163, 70, 1)"></path><path d="M817.5 705 a7.5 7.5 0 1 0 15 0 a7.5 7.5 0 1 0 -15 0zM247.5 525 a7.5 7.5 0 1 0 15 0 a7.5 7.5 0 1 0 -15 0z" fill="rgba(38, 163, 70, 1)"></path><path d="M735 435L855 555L1035 555L1065 585L1125 585" stroke-width="5" stroke="rgba(38, 163, 70, 1)"></path><path d="M727.5 435 a7.5 7.5 0 1 0 15 0 a7.5 7.5 0 1 0 -15 0zM1117.5 585 a7.5 7.5 0 1 0 15 0 a7.5 7.5 0 1 0 -15 0z" fill="rgba(38, 163, 70, 1)"></path><path d="M765 15L855 105L855 525" stroke-width="5" stroke="rgba(38, 163, 70, 1)"></path><path d="M757.5 15 a7.5 7.5 0 1 0 15 0 a7.5 7.5 0 1 0 -15 0zM847.5 525 a7.5 7.5 0 1 0 15 0 a7.5 7.5 0 1 0 -15 0z" fill="rgba(38, 163, 70, 1)"></path><path d="M975 375L885 285L885 15" stroke-width="5" stroke="rgba(38, 163, 70, 1)"></path><path d="M967.5 375 a7.5 7.5 0 1 0 15 0 a7.5 7.5 0 1 0 -15 0zM877.5 15 a7.5 7.5 0 1 0 15 0 a7.5 7.5 0 1 0 -15 0z" fill="rgba(38, 163, 70, 1)"></path><path d="M405 315L465 375L465 555L585 675L795 675" stroke-width="5" stroke="rgba(38, 163, 70, 1)"></path><path d="M397.5 315 a7.5 7.5 0 1 0 15 0 a7.5 7.5 0 1 0 -15 0zM787.5 675 a7.5 7.5 0 1 0 15 0 a7.5 7.5 0 1 0 -15 0z" fill="rgba(38, 163, 70, 1)"></path><path d="M555 135L555 615L585 645L645 645" stroke-width="5" stroke="rgba(38, 163, 70, 1)"></path><path d="M547.5 135 a7.5 7.5 0 1 0 15 0 a7.5 7.5 0 1 0 -15 0zM637.5 645 a7.5 7.5 0 1 0 15 0 a7.5 7.5 0 1 0 -15 0z" fill="rgba(38, 163, 70, 1)"></path><path d="M765 585L765 645" stroke-width="5" stroke="rgba(38, 163, 70, 1)"></path><path d="M757.5 585 a7.5 7.5 0 1 0 15 0 a7.5 7.5 0 1 0 -15 0zM757.5 645 a7.5 7.5 0 1 0 15 0 a7.5 7.5 0 1 0 -15 0z" fill="rgba(38, 163, 70, 1)"></path><path d="M1125 735L1185 675L1185 645" stroke-width="5" stroke="rgba(38, 163, 70, 1)"></path><path d="M1117.5 735 a7.5 7.5 0 1 0 15 0 a7.5 7.5 0 1 0 -15 0zM1177.5 645 a7.5 7.5 0 1 0 15 0 a7.5 7.5 0 1 0 -15 0z" fill="rgba(38, 163, 70, 1)"></path><path d="M75 165L135 225L525 225" stroke-width="5" stroke="rgba(38, 163, 70, 1)"></path><path d="M67.5 165 a7.5 7.5 0 1 0 15 0 a7.5 7.5 0 1 0 -15 0zM517.5 225 a7.5 7.5 0 1 0 15 0 a7.5 7.5 0 1 0 -15 0z" fill="rgba(38, 163, 70, 1)"></path><path d="M525 195L525 105L435 15L195 15L45 165" stroke-width="5" stroke="rgba(38, 163, 70, 1)"></path><path d="M517.5 195 a7.5 7.5 0 1 0 15 0 a7.5 7.5 0 1 0 -15 0zM37.5 165 a7.5 7.5 0 1 0 15 0 a7.5 7.5 0 1 0 -15 0z" fill="rgba(38, 163, 70, 1)"></path><path d="M1155 255L885 525" stroke-width="5" stroke="rgba(38, 163, 70, 1)"></path><path d="M1147.5 255 a7.5 7.5 0 1 0 15 0 a7.5 7.5 0 1 0 -15 0zM877.5 525 a7.5 7.5 0 1 0 15 0 a7.5 7.5 0 1 0 -15 0z" fill="rgba(38, 163, 70, 1)"></path><path d="M1185 15L1185 315L1095 405L1095 435L1185 525" stroke-width="5" stroke="rgba(38, 163, 70, 1)"></path><path d="M1177.5 15 a7.5 7.5 0 1 0 15 0 a7.5 7.5 0 1 0 -15 0zM1177.5 525 a7.5 7.5 0 1 0 15 0 a7.5 7.5 0 1 0 -15 0z" fill="rgba(38, 163, 70, 1)"></path><path d="M675 255L825 255" stroke-width="5" stroke="rgba(38, 163, 70, 1)"></path><path d="M667.5 255 a7.5 7.5 0 1 0 15 0 a7.5 7.5 0 1 0 -15 0zM817.5 255 a7.5 7.5 0 1 0 15 0 a7.5 7.5 0 1 0 -15 0z" fill="rgba(38, 163, 70, 1)"></path><path d="M285 135L465 135L495 165L495 195" stroke-width="5" stroke="rgba(38, 163, 70, 1)"></path><path d="M277.5 135 a7.5 7.5 0 1 0 15 0 a7.5 7.5 0 1 0 -15 0zM487.5 195 a7.5 7.5 0 1 0 15 0 a7.5 7.5 0 1 0 -15 0z" fill="rgba(38, 163, 70, 1)"></path><path d="M465 345L465 255" stroke-width="5" stroke="rgba(38, 163, 70, 1)"></path><path d="M457.5 345 a7.5 7.5 0 1 0 15 0 a7.5 7.5 0 1 0 -15 0zM457.5 255 a7.5 7.5 0 1 0 15 0 a7.5 7.5 0 1 0 -15 0z" fill="rgba(38, 163, 70, 1)"></path><path d="M75 555L15 555" stroke-width="5" stroke="rgba(38, 163, 70, 1)"></path><path d="M67.5 555 a7.5 7.5 0 1 0 15 0 a7.5 7.5 0 1 0 -15 0zM7.5 555 a7.5 7.5 0 1 0 15 0 a7.5 7.5 0 1 0 -15 0z" fill="rgba(38, 163, 70, 1)"></path><path d="M255 285L255 315L45 525L15 525" stroke-width="5" stroke="rgba(38, 163, 70, 1)"></path><path d="M247.5 285 a7.5 7.5 0 1 0 15 0 a7.5 7.5 0 1 0 -15 0zM7.5 525 a7.5 7.5 0 1 0 15 0 a7.5 7.5 0 1 0 -15 0z" fill="rgba(38, 163, 70, 1)"></path><path d="M885 765L885 645" stroke-width="5" stroke="rgba(38, 163, 70, 1)"></path><path d="M877.5 765 a7.5 7.5 0 1 0 15 0 a7.5 7.5 0 1 0 -15 0zM877.5 645 a7.5 7.5 0 1 0 15 0 a7.5 7.5 0 1 0 -15 0z" fill="rgba(38, 163, 70, 1)"></path><path d="M15 645L15 795" stroke-width="5" stroke="rgba(38, 163, 70, 1)"></path><path d="M7.5 645 a7.5 7.5 0 1 0 15 0 a7.5 7.5 0 1 0 -15 0zM7.5 795 a7.5 7.5 0 1 0 15 0 a7.5 7.5 0 1 0 -15 0z" fill="rgba(38, 163, 70, 1)"></path><path d="M135 555L105 555L75 525" stroke-width="5" stroke="rgba(38, 163, 70, 1)"></path><path d="M127.5 555 a7.5 7.5 0 1 0 15 0 a7.5 7.5 0 1 0 -15 0zM67.5 525 a7.5 7.5 0 1 0 15 0 a7.5 7.5 0 1 0 -15 0z" fill="rgba(38, 163, 70, 1)"></path><path d="M165 285L165 345L15 495" stroke-width="5" stroke="rgba(38, 163, 70, 1)"></path><path d="M157.5 285 a7.5 7.5 0 1 0 15 0 a7.5 7.5 0 1 0 -15 0zM7.5 495 a7.5 7.5 0 1 0 15 0 a7.5 7.5 0 1 0 -15 0z" fill="rgba(38, 163, 70, 1)"></path><path d="M495 345L525 375L525 585" stroke-width="5" stroke="rgba(38, 163, 70, 1)"></path><path d="M487.5 345 a7.5 7.5 0 1 0 15 0 a7.5 7.5 0 1 0 -15 0zM517.5 585 a7.5 7.5 0 1 0 15 0 a7.5 7.5 0 1 0 -15 0z" fill="rgba(38, 163, 70, 1)"></path><path d="M375 405L435 465L435 525" stroke-width="5" stroke="rgba(38, 163, 70, 1)"></path><path d="M367.5 405 a7.5 7.5 0 1 0 15 0 a7.5 7.5 0 1 0 -15 0zM427.5 525 a7.5 7.5 0 1 0 15 0 a7.5 7.5 0 1 0 -15 0z" fill="rgba(38, 163, 70, 1)"></path><path d="M675 195L705 225L765 225L825 165L825 105L735 15L465 15" stroke-width="5" stroke="rgba(38, 163, 70, 1)"></path><path d="M667.5 195 a7.5 7.5 0 1 0 15 0 a7.5 7.5 0 1 0 -15 0zM457.5 15 a7.5 7.5 0 1 0 15 0 a7.5 7.5 0 1 0 -15 0z" fill="rgba(38, 163, 70, 1)"></path><path d="M525 255L525 345" stroke-width="5" stroke="rgba(38, 163, 70, 1)"></path><path d="M517.5 255 a7.5 7.5 0 1 0 15 0 a7.5 7.5 0 1 0 -15 0zM517.5 345 a7.5 7.5 0 1 0 15 0 a7.5 7.5 0 1 0 -15 0z" fill="rgba(38, 163, 70, 1)"></path><path d="M1035 705L1035 645" stroke-width="5" stroke="rgba(38, 163, 70, 1)"></path><path d="M1027.5 705 a7.5 7.5 0 1 0 15 0 a7.5 7.5 0 1 0 -15 0zM1027.5 645 a7.5 7.5 0 1 0 15 0 a7.5 7.5 0 1 0 -15 0z" fill="rgba(38, 163, 70, 1)"></path><path d="M945 585L1035 585" stroke-width="5" stroke="rgba(38, 163, 70, 1)"></path><path d="M937.5 585 a7.5 7.5 0 1 0 15 0 a7.5 7.5 0 1 0 -15 0zM1027.5 585 a7.5 7.5 0 1 0 15 0 a7.5 7.5 0 1 0 -15 0z" fill="rgba(38, 163, 70, 1)"></path><path d="M345 375L435 375" stroke-width="5" stroke="rgba(38, 163, 70, 1)"></path><path d="M337.5 375 a7.5 7.5 0 1 0 15 0 a7.5 7.5 0 1 0 -15 0zM427.5 375 a7.5 7.5 0 1 0 15 0 a7.5 7.5 0 1 0 -15 0z" fill="rgba(38, 163, 70, 1)"></path><path d="M315 45L375 105L495 105" stroke-width="5" stroke="rgba(38, 163, 70, 1)"></path><path d="M307.5 45 a7.5 7.5 0 1 0 15 0 a7.5 7.5 0 1 0 -15 0zM487.5 105 a7.5 7.5 0 1 0 15 0 a7.5 7.5 0 1 0 -15 0z" fill="rgba(38, 163, 70, 1)"></path><path d="M345 255L375 285L375 345" stroke-width="5" stroke="rgba(38, 163, 70, 1)"></path><path d="M337.5 255 a7.5 7.5 0 1 0 15 0 a7.5 7.5 0 1 0 -15 0zM367.5 345 a7.5 7.5 0 1 0 15 0 a7.5 7.5 0 1 0 -15 0z" fill="rgba(38, 163, 70, 1)"></path><path d="M285 675L195 765L45 765" stroke-width="5" stroke="rgba(38, 163, 70, 1)"></path><path d="M277.5 675 a7.5 7.5 0 1 0 15 0 a7.5 7.5 0 1 0 -15 0zM37.5 765 a7.5 7.5 0 1 0 15 0 a7.5 7.5 0 1 0 -15 0z" fill="rgba(38, 163, 70, 1)"></path><path d="M1155 765L1185 735L1185 705" stroke-width="5" stroke="rgba(38, 163, 70, 1)"></path><path d="M1147.5 765 a7.5 7.5 0 1 0 15 0 a7.5 7.5 0 1 0 -15 0zM1177.5 705 a7.5 7.5 0 1 0 15 0 a7.5 7.5 0 1 0 -15 0z" fill="rgba(38, 163, 70, 1)"></path><path d="M75 315L135 255" stroke-width="5" stroke="rgba(38, 163, 70, 1)"></path><path d="M67.5 315 a7.5 7.5 0 1 0 15 0 a7.5 7.5 0 1 0 -15 0zM127.5 255 a7.5 7.5 0 1 0 15 0 a7.5 7.5 0 1 0 -15 0z" fill="rgba(38, 163, 70, 1)"></path><path d="M915 135L915 15" stroke-width="5" stroke="rgba(38, 163, 70, 1)"></path><path d="M907.5 135 a7.5 7.5 0 1 0 15 0 a7.5 7.5 0 1 0 -15 0zM907.5 15 a7.5 7.5 0 1 0 15 0 a7.5 7.5 0 1 0 -15 0z" fill="rgba(38, 163, 70, 1)"></path><path d="M555 735L345 735L285 795L45 795" stroke-width="5" stroke="rgba(38, 163, 70, 1)"></path><path d="M547.5 735 a7.5 7.5 0 1 0 15 0 a7.5 7.5 0 1 0 -15 0zM37.5 795 a7.5 7.5 0 1 0 15 0 a7.5 7.5 0 1 0 -15 0z" fill="rgba(38, 163, 70, 1)"></path><path d="M405 165L435 165L465 195" stroke-width="5" stroke="rgba(38, 163, 70, 1)"></path><path d="M397.5 165 a7.5 7.5 0 1 0 15 0 a7.5 7.5 0 1 0 -15 0zM457.5 195 a7.5 7.5 0 1 0 15 0 a7.5 7.5 0 1 0 -15 0z" fill="rgba(38, 163, 70, 1)"></path><path d="M345 435L315 405L315 345L345 315L345 285L315 255L285 255" stroke-width="5" stroke="rgba(38, 163, 70, 1)"></path><path d="M337.5 435 a7.5 7.5 0 1 0 15 0 a7.5 7.5 0 1 0 -15 0zM277.5 255 a7.5 7.5 0 1 0 15 0 a7.5 7.5 0 1 0 -15 0z" fill="rgba(38, 163, 70, 1)"></path><path d="M135 45L15 165L15 465" stroke-width="5" stroke="rgba(38, 163, 70, 1)"></path><path d="M127.5 45 a7.5 7.5 0 1 0 15 0 a7.5 7.5 0 1 0 -15 0zM7.5 465 a7.5 7.5 0 1 0 15 0 a7.5 7.5 0 1 0 -15 0z" fill="rgba(38, 163, 70, 1)"></path><path d="M1125 705L1035 795L555 795" stroke-width="5" stroke="rgba(38, 163, 70, 1)"></path><path d="M1117.5 705 a7.5 7.5 0 1 0 15 0 a7.5 7.5 0 1 0 -15 0zM547.5 795 a7.5 7.5 0 1 0 15 0 a7.5 7.5 0 1 0 -15 0z" fill="rgba(38, 163, 70, 1)"></path><path d="M945 105L945 315L1005 375" stroke-width="5" stroke="rgba(38, 163, 70, 1)"></path><path d="M937.5 105 a7.5 7.5 0 1 0 15 0 a7.5 7.5 0 1 0 -15 0zM997.5 375 a7.5 7.5 0 1 0 15 0 a7.5 7.5 0 1 0 -15 0z" fill="rgba(38, 163, 70, 1)"></path><path d="M1155 75L1155 15" stroke-width="5" stroke="rgba(38, 163, 70, 1)"></path><path d="M1147.5 75 a7.5 7.5 0 1 0 15 0 a7.5 7.5 0 1 0 -15 0zM1147.5 15 a7.5 7.5 0 1 0 15 0 a7.5 7.5 0 1 0 -15 0z" fill="rgba(38, 163, 70, 1)"></path><path d="M1065 45L1065 195L1125 255" stroke-width="5" stroke="rgba(38, 163, 70, 1)"></path><path d="M1057.5 45 a7.5 7.5 0 1 0 15 0 a7.5 7.5 0 1 0 -15 0zM1117.5 255 a7.5 7.5 0 1 0 15 0 a7.5 7.5 0 1 0 -15 0z" fill="rgba(38, 163, 70, 1)"></path><path d="M795 585L915 585" stroke-width="5" stroke="rgba(38, 163, 70, 1)"></path><path d="M787.5 585 a7.5 7.5 0 1 0 15 0 a7.5 7.5 0 1 0 -15 0zM907.5 585 a7.5 7.5 0 1 0 15 0 a7.5 7.5 0 1 0 -15 0z" fill="rgba(38, 163, 70, 1)"></path><path d="M975 705L1035 765" stroke-width="5" stroke="rgba(38, 163, 70, 1)"></path><path d="M967.5 705 a7.5 7.5 0 1 0 15 0 a7.5 7.5 0 1 0 -15 0zM1027.5 765 a7.5 7.5 0 1 0 15 0 a7.5 7.5 0 1 0 -15 0z" fill="rgba(38, 163, 70, 1)"></path><path d="M1095 255L1035 255L975 195L975 15" stroke-width="5" stroke="rgba(38, 163, 70, 1)"></path><path d="M1087.5 255 a7.5 7.5 0 1 0 15 0 a7.5 7.5 0 1 0 -15 0zM967.5 15 a7.5 7.5 0 1 0 15 0 a7.5 7.5 0 1 0 -15 0z" fill="rgba(38, 163, 70, 1)"></path><path d="M525 795L465 795" stroke-width="5" stroke="rgba(38, 163, 70, 1)"></path><path d="M517.5 795 a7.5 7.5 0 1 0 15 0 a7.5 7.5 0 1 0 -15 0zM457.5 795 a7.5 7.5 0 1 0 15 0 a7.5 7.5 0 1 0 -15 0z" fill="rgba(38, 163, 70, 1)"></path><path d="M165 645L105 705L45 705" stroke-width="5" stroke="rgba(38, 163, 70, 1)"></path><path d="M157.5 645 a7.5 7.5 0 1 0 15 0 a7.5 7.5 0 1 0 -15 0zM37.5 705 a7.5 7.5 0 1 0 15 0 a7.5 7.5 0 1 0 -15 0z" fill="rgba(38, 163, 70, 1)"></path><path d="M1095 705L1125 675L1125 645" stroke-width="5" stroke="rgba(38, 163, 70, 1)"></path><path d="M1087.5 705 a7.5 7.5 0 1 0 15 0 a7.5 7.5 0 1 0 -15 0zM1117.5 645 a7.5 7.5 0 1 0 15 0 a7.5 7.5 0 1 0 -15 0z" fill="rgba(38, 163, 70, 1)"></path><path d="M465 615L405 555L255 555" stroke-width="5" stroke="rgba(38, 163, 70, 1)"></path><path d="M457.5 615 a7.5 7.5 0 1 0 15 0 a7.5 7.5 0 1 0 -15 0zM247.5 555 a7.5 7.5 0 1 0 15 0 a7.5 7.5 0 1 0 -15 0z" fill="rgba(38, 163, 70, 1)"></path><path d="M195 435L225 435L255 405L255 345" stroke-width="5" stroke="rgba(38, 163, 70, 1)"></path><path d="M187.5 435 a7.5 7.5 0 1 0 15 0 a7.5 7.5 0 1 0 -15 0zM247.5 345 a7.5 7.5 0 1 0 15 0 a7.5 7.5 0 1 0 -15 0z" fill="rgba(38, 163, 70, 1)"></path><path d="M705 375L795 285L825 285" stroke-width="5" stroke="rgba(38, 163, 70, 1)"></path><path d="M697.5 375 a7.5 7.5 0 1 0 15 0 a7.5 7.5 0 1 0 -15 0zM817.5 285 a7.5 7.5 0 1 0 15 0 a7.5 7.5 0 1 0 -15 0z" fill="rgba(38, 163, 70, 1)"></path><path d="M705 735L855 735" stroke-width="5" stroke="rgba(38, 163, 70, 1)"></path><path d="M697.5 735 a7.5 7.5 0 1 0 15 0 a7.5 7.5 0 1 0 -15 0zM847.5 735 a7.5 7.5 0 1 0 15 0 a7.5 7.5 0 1 0 -15 0z" fill="rgba(38, 163, 70, 1)"></path><path d="M705 285L765 285" stroke-width="5" stroke="rgba(38, 163, 70, 1)"></path><path d="M697.5 285 a7.5 7.5 0 1 0 15 0 a7.5 7.5 0 1 0 -15 0zM757.5 285 a7.5 7.5 0 1 0 15 0 a7.5 7.5 0 1 0 -15 0z" fill="rgba(38, 163, 70, 1)"></path><path d="M1065 495L945 495L915 525" stroke-width="5" stroke="rgba(38, 163, 70, 1)"></path><path d="M1057.5 495 a7.5 7.5 0 1 0 15 0 a7.5 7.5 0 1 0 -15 0zM907.5 525 a7.5 7.5 0 1 0 15 0 a7.5 7.5 0 1 0 -15 0z" fill="rgba(38, 163, 70, 1)"></path><path d="M705 135L705 45" stroke-width="5" stroke="rgba(38, 163, 70, 1)"></path><path d="M697.5 135 a7.5 7.5 0 1 0 15 0 a7.5 7.5 0 1 0 -15 0zM697.5 45 a7.5 7.5 0 1 0 15 0 a7.5 7.5 0 1 0 -15 0z" fill="rgba(38, 163, 70, 1)"></path><path d="M585 345L585 495L735 645" stroke-width="5" stroke="rgba(38, 163, 70, 1)"></path><path d="M577.5 345 a7.5 7.5 0 1 0 15 0 a7.5 7.5 0 1 0 -15 0zM727.5 645 a7.5 7.5 0 1 0 15 0 a7.5 7.5 0 1 0 -15 0z" fill="rgba(38, 163, 70, 1)"></path><path d="M645 525L735 615" stroke-width="5" stroke="rgba(38, 163, 70, 1)"></path><path d="M637.5 525 a7.5 7.5 0 1 0 15 0 a7.5 7.5 0 1 0 -15 0zM727.5 615 a7.5 7.5 0 1 0 15 0 a7.5 7.5 0 1 0 -15 0z" fill="rgba(38, 163, 70, 1)"></path><path d="M165 615L15 615" stroke-width="5" stroke="rgba(38, 163, 70, 1)"></path><path d="M157.5 615 a7.5 7.5 0 1 0 15 0 a7.5 7.5 0 1 0 -15 0zM7.5 615 a7.5 7.5 0 1 0 15 0 a7.5 7.5 0 1 0 -15 0z" fill="rgba(38, 163, 70, 1)"></path><path d="M645 375L585 315L585 75L615 45L675 45" stroke-width="5" stroke="rgba(38, 163, 70, 1)"></path><path d="M637.5 375 a7.5 7.5 0 1 0 15 0 a7.5 7.5 0 1 0 -15 0zM667.5 45 a7.5 7.5 0 1 0 15 0 a7.5 7.5 0 1 0 -15 0z" fill="rgba(38, 163, 70, 1)"></path><path d="M525 45L585 45" stroke-width="5" stroke="rgba(38, 163, 70, 1)"></path><path d="M517.5 45 a7.5 7.5 0 1 0 15 0 a7.5 7.5 0 1 0 -15 0zM577.5 45 a7.5 7.5 0 1 0 15 0 a7.5 7.5 0 1 0 -15 0z" fill="rgba(38, 163, 70, 1)"></path><path d="M225 135L135 135L105 165" stroke-width="5" stroke="rgba(38, 163, 70, 1)"></path><path d="M217.5 135 a7.5 7.5 0 1 0 15 0 a7.5 7.5 0 1 0 -15 0zM97.5 165 a7.5 7.5 0 1 0 15 0 a7.5 7.5 0 1 0 -15 0z" fill="rgba(38, 163, 70, 1)"></path><path d="M645 435L615 465L615 495" stroke-width="5" stroke="rgba(38, 163, 70, 1)"></path><path d="M637.5 435 a7.5 7.5 0 1 0 15 0 a7.5 7.5 0 1 0 -15 0zM607.5 495 a7.5 7.5 0 1 0 15 0 a7.5 7.5 0 1 0 -15 0z" fill="rgba(38, 163, 70, 1)"></path><path d="M795 465L795 345L825 315" stroke-width="5" stroke="rgba(38, 163, 70, 1)"></path><path d="M787.5 465 a7.5 7.5 0 1 0 15 0 a7.5 7.5 0 1 0 -15 0zM817.5 315 a7.5 7.5 0 1 0 15 0 a7.5 7.5 0 1 0 -15 0z" fill="rgba(38, 163, 70, 1)"></path><path d="M915 165L915 285" stroke-width="5" stroke="rgba(38, 163, 70, 1)"></path><path d="M907.5 165 a7.5 7.5 0 1 0 15 0 a7.5 7.5 0 1 0 -15 0zM907.5 285 a7.5 7.5 0 1 0 15 0 a7.5 7.5 0 1 0 -15 0z" fill="rgba(38, 163, 70, 1)"></path><path d="M825 555L675 405L615 405" stroke-width="5" stroke="rgba(38, 163, 70, 1)"></path><path d="M817.5 555 a7.5 7.5 0 1 0 15 0 a7.5 7.5 0 1 0 -15 0zM607.5 405 a7.5 7.5 0 1 0 15 0 a7.5 7.5 0 1 0 -15 0z" fill="rgba(38, 163, 70, 1)"></path><path d="M135 705L165 735L195 735L255 675L255 585" stroke-width="5" stroke="rgba(38, 163, 70, 1)"></path><path d="M127.5 705 a7.5 7.5 0 1 0 15 0 a7.5 7.5 0 1 0 -15 0zM247.5 585 a7.5 7.5 0 1 0 15 0 a7.5 7.5 0 1 0 -15 0z" fill="rgba(38, 163, 70, 1)"></path><path d="M1185 495L1185 345" stroke-width="5" stroke="rgba(38, 163, 70, 1)"></path><path d="M1177.5 495 a7.5 7.5 0 1 0 15 0 a7.5 7.5 0 1 0 -15 0zM1177.5 345 a7.5 7.5 0 1 0 15 0 a7.5 7.5 0 1 0 -15 0z" fill="rgba(38, 163, 70, 1)"></path><path d="M825 405L825 495" stroke-width="5" stroke="rgba(38, 163, 70, 1)"></path><path d="M817.5 405 a7.5 7.5 0 1 0 15 0 a7.5 7.5 0 1 0 -15 0zM817.5 495 a7.5 7.5 0 1 0 15 0 a7.5 7.5 0 1 0 -15 0z" fill="rgba(38, 163, 70, 1)"></path><path d="M225 645L225 675L195 705L165 705" stroke-width="5" stroke="rgba(38, 163, 70, 1)"></path><path d="M217.5 645 a7.5 7.5 0 1 0 15 0 a7.5 7.5 0 1 0 -15 0zM157.5 705 a7.5 7.5 0 1 0 15 0 a7.5 7.5 0 1 0 -15 0z" fill="rgba(38, 163, 70, 1)"></path><path d="M195 465L135 525L105 525" stroke-width="5" stroke="rgba(38, 163, 70, 1)"></path><path d="M187.5 465 a7.5 7.5 0 1 0 15 0 a7.5 7.5 0 1 0 -15 0zM97.5 525 a7.5 7.5 0 1 0 15 0 a7.5 7.5 0 1 0 -15 0z" fill="rgba(38, 163, 70, 1)"></path><path d="M615 255L615 75" stroke-width="5" stroke="rgba(38, 163, 70, 1)"></path><path d="M607.5 255 a7.5 7.5 0 1 0 15 0 a7.5 7.5 0 1 0 -15 0zM607.5 75 a7.5 7.5 0 1 0 15 0 a7.5 7.5 0 1 0 -15 0z" fill="rgba(38, 163, 70, 1)"></path><path d="M855 675L825 645L795 645" stroke-width="5" stroke="rgba(38, 163, 70, 1)"></path><path d="M847.5 675 a7.5 7.5 0 1 0 15 0 a7.5 7.5 0 1 0 -15 0zM787.5 645 a7.5 7.5 0 1 0 15 0 a7.5 7.5 0 1 0 -15 0z" fill="rgba(38, 163, 70, 1)"></path><path d="M975 405L945 405L885 345L885 315" stroke-width="5" stroke="rgba(38, 163, 70, 1)"></path><path d="M967.5 405 a7.5 7.5 0 1 0 15 0 a7.5 7.5 0 1 0 -15 0zM877.5 315 a7.5 7.5 0 1 0 15 0 a7.5 7.5 0 1 0 -15 0z" fill="rgba(38, 163, 70, 1)"></path><path d="M795 15L825 15L855 45L855 75" stroke-width="5" stroke="rgba(38, 163, 70, 1)"></path><path d="M787.5 15 a7.5 7.5 0 1 0 15 0 a7.5 7.5 0 1 0 -15 0zM847.5 75 a7.5 7.5 0 1 0 15 0 a7.5 7.5 0 1 0 -15 0z" fill="rgba(38, 163, 70, 1)"></path><path d="M915 675L1005 675" stroke-width="5" stroke="rgba(38, 163, 70, 1)"></path><path d="M907.5 675 a7.5 7.5 0 1 0 15 0 a7.5 7.5 0 1 0 -15 0zM997.5 675 a7.5 7.5 0 1 0 15 0 a7.5 7.5 0 1 0 -15 0z" fill="rgba(38, 163, 70, 1)"></path><path d="M345 615L315 645L285 645" stroke-width="5" stroke="rgba(38, 163, 70, 1)"></path><path d="M337.5 615 a7.5 7.5 0 1 0 15 0 a7.5 7.5 0 1 0 -15 0zM277.5 645 a7.5 7.5 0 1 0 15 0 a7.5 7.5 0 1 0 -15 0z" fill="rgba(38, 163, 70, 1)"></path><path d="M855 765L705 765L675 735L585 735L555 765L465 765" stroke-width="5" stroke="rgba(38, 163, 70, 1)"></path><path d="M847.5 765 a7.5 7.5 0 1 0 15 0 a7.5 7.5 0 1 0 -15 0zM457.5 765 a7.5 7.5 0 1 0 15 0 a7.5 7.5 0 1 0 -15 0z" fill="rgba(38, 163, 70, 1)"></path><path d="M195 645L195 585" stroke-width="5" stroke="rgba(38, 163, 70, 1)"></path><path d="M187.5 645 a7.5 7.5 0 1 0 15 0 a7.5 7.5 0 1 0 -15 0zM187.5 585 a7.5 7.5 0 1 0 15 0 a7.5 7.5 0 1 0 -15 0z" fill="rgba(38, 163, 70, 1)"></path><path d="M645 165L645 345L675 375" stroke-width="5" stroke="rgba(38, 163, 70, 1)"></path><path d="M637.5 165 a7.5 7.5 0 1 0 15 0 a7.5 7.5 0 1 0 -15 0zM667.5 375 a7.5 7.5 0 1 0 15 0 a7.5 7.5 0 1 0 -15 0z" fill="rgba(38, 163, 70, 1)"></path><path d="M375 705L465 705L495 675L525 675L555 705" stroke-width="5" stroke="rgba(38, 163, 70, 1)"></path><path d="M367.5 705 a7.5 7.5 0 1 0 15 0 a7.5 7.5 0 1 0 -15 0zM547.5 705 a7.5 7.5 0 1 0 15 0 a7.5 7.5 0 1 0 -15 0z" fill="rgba(38, 163, 70, 1)"></path><path d="M405 585L465 645L465 675" stroke-width="5" stroke="rgba(38, 163, 70, 1)"></path><path d="M397.5 585 a7.5 7.5 0 1 0 15 0 a7.5 7.5 0 1 0 -15 0zM457.5 675 a7.5 7.5 0 1 0 15 0 a7.5 7.5 0 1 0 -15 0z" fill="rgba(38, 163, 70, 1)"></path><path d="M105 45L15 135" stroke-width="5" stroke="rgba(38, 163, 70, 1)"></path><path d="M97.5 45 a7.5 7.5 0 1 0 15 0 a7.5 7.5 0 1 0 -15 0zM7.5 135 a7.5 7.5 0 1 0 15 0 a7.5 7.5 0 1 0 -15 0z" fill="rgba(38, 163, 70, 1)"></path><path d="M135 165L225 165L255 195L435 195" stroke-width="5" stroke="rgba(38, 163, 70, 1)"></path><path d="M127.5 165 a7.5 7.5 0 1 0 15 0 a7.5 7.5 0 1 0 -15 0zM427.5 195 a7.5 7.5 0 1 0 15 0 a7.5 7.5 0 1 0 -15 0z" fill="rgba(38, 163, 70, 1)"></path><path d="M45 75L15 45L15 15" stroke-width="5" stroke="rgba(38, 163, 70, 1)"></path><path d="M37.5 75 a7.5 7.5 0 1 0 15 0 a7.5 7.5 0 1 0 -15 0zM7.5 15 a7.5 7.5 0 1 0 15 0 a7.5 7.5 0 1 0 -15 0z" fill="rgba(38, 163, 70, 1)"></path><path d="M75 645L135 645" stroke-width="5" stroke="rgba(38, 163, 70, 1)"></path><path d="M67.5 645 a7.5 7.5 0 1 0 15 0 a7.5 7.5 0 1 0 -15 0zM127.5 645 a7.5 7.5 0 1 0 15 0 a7.5 7.5 0 1 0 -15 0z" fill="rgba(38, 163, 70, 1)"></path><path d="M255 105L285 75L285 45" stroke-width="5" stroke="rgba(38, 163, 70, 1)"></path><path d="M247.5 105 a7.5 7.5 0 1 0 15 0 a7.5 7.5 0 1 0 -15 0zM277.5 45 a7.5 7.5 0 1 0 15 0 a7.5 7.5 0 1 0 -15 0z" fill="rgba(38, 163, 70, 1)"></path><path d="M1005 315L1065 315L1095 285" stroke-width="5" stroke="rgba(38, 163, 70, 1)"></path><path d="M997.5 315 a7.5 7.5 0 1 0 15 0 a7.5 7.5 0 1 0 -15 0zM1087.5 285 a7.5 7.5 0 1 0 15 0 a7.5 7.5 0 1 0 -15 0z" fill="rgba(38, 163, 70, 1)"></path><path d="M645 615L675 645L705 645" stroke-width="5" stroke="rgba(38, 163, 70, 1)"></path><path d="M637.5 615 a7.5 7.5 0 1 0 15 0 a7.5 7.5 0 1 0 -15 0zM697.5 645 a7.5 7.5 0 1 0 15 0 a7.5 7.5 0 1 0 -15 0z" fill="rgba(38, 163, 70, 1)"></path><path d="M915 735L945 765L975 765" stroke-width="5" stroke="rgba(38, 163, 70, 1)"></path><path d="M907.5 735 a7.5 7.5 0 1 0 15 0 a7.5 7.5 0 1 0 -15 0zM967.5 765 a7.5 7.5 0 1 0 15 0 a7.5 7.5 0 1 0 -15 0z" fill="rgba(38, 163, 70, 1)"></path><path d="M105 345L45 345" stroke-width="5" stroke="rgba(38, 163, 70, 1)"></path><path d="M97.5 345 a7.5 7.5 0 1 0 15 0 a7.5 7.5 0 1 0 -15 0zM37.5 345 a7.5 7.5 0 1 0 15 0 a7.5 7.5 0 1 0 -15 0z" fill="rgba(38, 163, 70, 1)"></path><path d="M1065 405L1065 375L1155 285" stroke-width="5" stroke="rgba(38, 163, 70, 1)"></path><path d="M1057.5 405 a7.5 7.5 0 1 0 15 0 a7.5 7.5 0 1 0 -15 0zM1147.5 285 a7.5 7.5 0 1 0 15 0 a7.5 7.5 0 1 0 -15 0z" fill="rgba(38, 163, 70, 1)"></path><path d="M1095 15L1095 135" stroke-width="5" stroke="rgba(38, 163, 70, 1)"></path><path d="M1087.5 15 a7.5 7.5 0 1 0 15 0 a7.5 7.5 0 1 0 -15 0zM1087.5 135 a7.5 7.5 0 1 0 15 0 a7.5 7.5 0 1 0 -15 0z" fill="rgba(38, 163, 70, 1)"></path><path d="M495 435L495 375" stroke-width="5" stroke="rgba(38, 163, 70, 1)"></path><path d="M487.5 435 a7.5 7.5 0 1 0 15 0 a7.5 7.5 0 1 0 -15 0zM487.5 375 a7.5 7.5 0 1 0 15 0 a7.5 7.5 0 1 0 -15 0z" fill="rgba(38, 163, 70, 1)"></path><path d="M675 285L705 315L705 345" stroke-width="5" stroke="rgba(38, 163, 70, 1)"></path><path d="M667.5 285 a7.5 7.5 0 1 0 15 0 a7.5 7.5 0 1 0 -15 0zM697.5 345 a7.5 7.5 0 1 0 15 0 a7.5 7.5 0 1 0 -15 0z" fill="rgba(38, 163, 70, 1)"></path><path d="M165 195L225 195" stroke-width="5" stroke="rgba(38, 163, 70, 1)"></path><path d="M157.5 195 a7.5 7.5 0 1 0 15 0 a7.5 7.5 0 1 0 -15 0zM217.5 195 a7.5 7.5 0 1 0 15 0 a7.5 7.5 0 1 0 -15 0z" fill="rgba(38, 163, 70, 1)"></path><path d="M165 75L195 45L255 45" stroke-width="5" stroke="rgba(38, 163, 70, 1)"></path><path d="M157.5 75 a7.5 7.5 0 1 0 15 0 a7.5 7.5 0 1 0 -15 0zM247.5 45 a7.5 7.5 0 1 0 15 0 a7.5 7.5 0 1 0 -15 0z" fill="rgba(38, 163, 70, 1)"></path><path d="M675 105L675 165L705 195L765 195L795 165L795 105L735 45" stroke-width="5" stroke="rgba(38, 163, 70, 1)"></path><path d="M667.5 105 a7.5 7.5 0 1 0 15 0 a7.5 7.5 0 1 0 -15 0zM727.5 45 a7.5 7.5 0 1 0 15 0 a7.5 7.5 0 1 0 -15 0z" fill="rgba(38, 163, 70, 1)"></path><path d="M885 495L885 465L915 435L945 435" stroke-width="5" stroke="rgba(38, 163, 70, 1)"></path><path d="M877.5 495 a7.5 7.5 0 1 0 15 0 a7.5 7.5 0 1 0 -15 0zM937.5 435 a7.5 7.5 0 1 0 15 0 a7.5 7.5 0 1 0 -15 0z" fill="rgba(38, 163, 70, 1)"></path><path d="M1065 525L945 525" stroke-width="5" stroke="rgba(38, 163, 70, 1)"></path><path d="M1057.5 525 a7.5 7.5 0 1 0 15 0 a7.5 7.5 0 1 0 -15 0zM937.5 525 a7.5 7.5 0 1 0 15 0 a7.5 7.5 0 1 0 -15 0z" fill="rgba(38, 163, 70, 1)"></path><path d="M195 105L135 105" stroke-width="5" stroke="rgba(38, 163, 70, 1)"></path><path d="M187.5 105 a7.5 7.5 0 1 0 15 0 a7.5 7.5 0 1 0 -15 0zM127.5 105 a7.5 7.5 0 1 0 15 0 a7.5 7.5 0 1 0 -15 0z" fill="rgba(38, 163, 70, 1)"></path><path d="M915 705L945 705L975 735" stroke-width="5" stroke="rgba(38, 163, 70, 1)"></path><path d="M907.5 705 a7.5 7.5 0 1 0 15 0 a7.5 7.5 0 1 0 -15 0zM967.5 735 a7.5 7.5 0 1 0 15 0 a7.5 7.5 0 1 0 -15 0z" fill="rgba(38, 163, 70, 1)"></path><path d="M705 555L735 525L735 495" stroke-width="5" stroke="rgba(38, 163, 70, 1)"></path><path d="M697.5 555 a7.5 7.5 0 1 0 15 0 a7.5 7.5 0 1 0 -15 0zM727.5 495 a7.5 7.5 0 1 0 15 0 a7.5 7.5 0 1 0 -15 0z" fill="rgba(38, 163, 70, 1)"></path><path d="M705 165L765 165" stroke-width="5" stroke="rgba(38, 163, 70, 1)"></path><path d="M697.5 165 a7.5 7.5 0 1 0 15 0 a7.5 7.5 0 1 0 -15 0zM757.5 165 a7.5 7.5 0 1 0 15 0 a7.5 7.5 0 1 0 -15 0z" fill="rgba(38, 163, 70, 1)"></path><path d="M165 465L135 465L105 495" stroke-width="5" stroke="rgba(38, 163, 70, 1)"></path><path d="M157.5 465 a7.5 7.5 0 1 0 15 0 a7.5 7.5 0 1 0 -15 0zM97.5 495 a7.5 7.5 0 1 0 15 0 a7.5 7.5 0 1 0 -15 0z" fill="rgba(38, 163, 70, 1)"></path><path d="M975 315L1005 285L1065 285" stroke-width="5" stroke="rgba(38, 163, 70, 1)"></path><path d="M967.5 315 a7.5 7.5 0 1 0 15 0 a7.5 7.5 0 1 0 -15 0zM1057.5 285 a7.5 7.5 0 1 0 15 0 a7.5 7.5 0 1 0 -15 0z" fill="rgba(38, 163, 70, 1)"></path><path d="M1125 15L1125 135L1155 165L1155 195" stroke-width="5" stroke="rgba(38, 163, 70, 1)"></path><path d="M1117.5 15 a7.5 7.5 0 1 0 15 0 a7.5 7.5 0 1 0 -15 0zM1147.5 195 a7.5 7.5 0 1 0 15 0 a7.5 7.5 0 1 0 -15 0z" fill="rgba(38, 163, 70, 1)"></path><path d="M405 465L375 495L315 495" stroke-width="5" stroke="rgba(38, 163, 70, 1)"></path><path d="M397.5 465 a7.5 7.5 0 1 0 15 0 a7.5 7.5 0 1 0 -15 0zM307.5 495 a7.5 7.5 0 1 0 15 0 a7.5 7.5 0 1 0 -15 0z" fill="rgba(38, 163, 70, 1)"></path><path d="M1005 135L1005 75L1065 15" stroke-width="5" stroke="rgba(38, 163, 70, 1)"></path><path d="M997.5 135 a7.5 7.5 0 1 0 15 0 a7.5 7.5 0 1 0 -15 0zM1057.5 15 a7.5 7.5 0 1 0 15 0 a7.5 7.5 0 1 0 -15 0z" fill="rgba(38, 163, 70, 1)"></path><path d="M495 555L495 465" stroke-width="5" stroke="rgba(38, 163, 70, 1)"></path><path d="M487.5 555 a7.5 7.5 0 1 0 15 0 a7.5 7.5 0 1 0 -15 0zM487.5 465 a7.5 7.5 0 1 0 15 0 a7.5 7.5 0 1 0 -15 0z" fill="rgba(38, 163, 70, 1)"></path><path d="M315 735L285 765L225 765" stroke-width="5" stroke="rgba(38, 163, 70, 1)"></path><path d="M307.5 735 a7.5 7.5 0 1 0 15 0 a7.5 7.5 0 1 0 -15 0zM217.5 765 a7.5 7.5 0 1 0 15 0 a7.5 7.5 0 1 0 -15 0z" fill="rgba(38, 163, 70, 1)"></path><path d="M315 795L345 765L375 765" stroke-width="5" stroke="rgba(38, 163, 70, 1)"></path><path d="M307.5 795 a7.5 7.5 0 1 0 15 0 a7.5 7.5 0 1 0 -15 0zM367.5 765 a7.5 7.5 0 1 0 15 0 a7.5 7.5 0 1 0 -15 0z" fill="rgba(38, 163, 70, 1)"></path><path d="M1035 135L1035 75" stroke-width="5" stroke="rgba(38, 163, 70, 1)"></path><path d="M1027.5 135 a7.5 7.5 0 1 0 15 0 a7.5 7.5 0 1 0 -15 0zM1027.5 75 a7.5 7.5 0 1 0 15 0 a7.5 7.5 0 1 0 -15 0z" fill="rgba(38, 163, 70, 1)"></path><path d="M105 255L45 255" stroke-width="5" stroke="rgba(38, 163, 70, 1)"></path><path d="M97.5 255 a7.5 7.5 0 1 0 15 0 a7.5 7.5 0 1 0 -15 0zM37.5 255 a7.5 7.5 0 1 0 15 0 a7.5 7.5 0 1 0 -15 0z" fill="rgba(38, 163, 70, 1)"></path><path d="M255 465L195 525" stroke-width="5" stroke="rgba(38, 163, 70, 1)"></path><path d="M247.5 465 a7.5 7.5 0 1 0 15 0 a7.5 7.5 0 1 0 -15 0zM187.5 525 a7.5 7.5 0 1 0 15 0 a7.5 7.5 0 1 0 -15 0z" fill="rgba(38, 163, 70, 1)"></path></g></g><defs><mask id="SvgjsMask1065"><rect width="1200" height="800" fill="#ffffff"></rect></mask><mask id="SvgjsMask1066"><rect width="1200" height="800" fill="white"></rect><path d="M791.25 615 a3.75 3.75 0 1 0 7.5 0 a3.75 3.75 0 1 0 -7.5 0zM1181.25 615 a3.75 3.75 0 1 0 7.5 0 a3.75 3.75 0 1 0 -7.5 0z" fill="black"></path><path d="M1091.25 525 a3.75 3.75 0 1 0 7.5 0 a3.75 3.75 0 1 0 -7.5 0zM1181.25 585 a3.75 3.75 0 1 0 7.5 0 a3.75 3.75 0 1 0 -7.5 0z" fill="black"></path><path d="M1031.25 405 a3.75 3.75 0 1 0 7.5 0 a3.75 3.75 0 1 0 -7.5 0zM1181.25 555 a3.75 3.75 0 1 0 7.5 0 a3.75 3.75 0 1 0 -7.5 0z" fill="black"></path><path d="M11.25 585 a3.75 3.75 0 1 0 7.5 0 a3.75 3.75 0 1 0 -7.5 0zM161.25 255 a3.75 3.75 0 1 0 7.5 0 a3.75 3.75 0 1 0 -7.5 0z" fill="black"></path><path d="M821.25 705 a3.75 3.75 0 1 0 7.5 0 a3.75 3.75 0 1 0 -7.5 0zM251.25 525 a3.75 3.75 0 1 0 7.5 0 a3.75 3.75 0 1 0 -7.5 0z" fill="black"></path><path d="M731.25 435 a3.75 3.75 0 1 0 7.5 0 a3.75 3.75 0 1 0 -7.5 0zM1121.25 585 a3.75 3.75 0 1 0 7.5 0 a3.75 3.75 0 1 0 -7.5 0z" fill="black"></path><path d="M761.25 15 a3.75 3.75 0 1 0 7.5 0 a3.75 3.75 0 1 0 -7.5 0zM851.25 525 a3.75 3.75 0 1 0 7.5 0 a3.75 3.75 0 1 0 -7.5 0z" fill="black"></path><path d="M971.25 375 a3.75 3.75 0 1 0 7.5 0 a3.75 3.75 0 1 0 -7.5 0zM881.25 15 a3.75 3.75 0 1 0 7.5 0 a3.75 3.75 0 1 0 -7.5 0z" fill="black"></path><path d="M401.25 315 a3.75 3.75 0 1 0 7.5 0 a3.75 3.75 0 1 0 -7.5 0zM791.25 675 a3.75 3.75 0 1 0 7.5 0 a3.75 3.75 0 1 0 -7.5 0z" fill="black"></path><path d="M551.25 135 a3.75 3.75 0 1 0 7.5 0 a3.75 3.75 0 1 0 -7.5 0zM641.25 645 a3.75 3.75 0 1 0 7.5 0 a3.75 3.75 0 1 0 -7.5 0z" fill="black"></path><path d="M761.25 585 a3.75 3.75 0 1 0 7.5 0 a3.75 3.75 0 1 0 -7.5 0zM761.25 645 a3.75 3.75 0 1 0 7.5 0 a3.75 3.75 0 1 0 -7.5 0z" fill="black"></path><path d="M1121.25 735 a3.75 3.75 0 1 0 7.5 0 a3.75 3.75 0 1 0 -7.5 0zM1181.25 645 a3.75 3.75 0 1 0 7.5 0 a3.75 3.75 0 1 0 -7.5 0z" fill="black"></path><path d="M71.25 165 a3.75 3.75 0 1 0 7.5 0 a3.75 3.75 0 1 0 -7.5 0zM521.25 225 a3.75 3.75 0 1 0 7.5 0 a3.75 3.75 0 1 0 -7.5 0z" fill="black"></path><path d="M521.25 195 a3.75 3.75 0 1 0 7.5 0 a3.75 3.75 0 1 0 -7.5 0zM41.25 165 a3.75 3.75 0 1 0 7.5 0 a3.75 3.75 0 1 0 -7.5 0z" fill="black"></path><path d="M1151.25 255 a3.75 3.75 0 1 0 7.5 0 a3.75 3.75 0 1 0 -7.5 0zM881.25 525 a3.75 3.75 0 1 0 7.5 0 a3.75 3.75 0 1 0 -7.5 0z" fill="black"></path><path d="M1181.25 15 a3.75 3.75 0 1 0 7.5 0 a3.75 3.75 0 1 0 -7.5 0zM1181.25 525 a3.75 3.75 0 1 0 7.5 0 a3.75 3.75 0 1 0 -7.5 0z" fill="black"></path><path d="M671.25 255 a3.75 3.75 0 1 0 7.5 0 a3.75 3.75 0 1 0 -7.5 0zM821.25 255 a3.75 3.75 0 1 0 7.5 0 a3.75 3.75 0 1 0 -7.5 0z" fill="black"></path><path d="M281.25 135 a3.75 3.75 0 1 0 7.5 0 a3.75 3.75 0 1 0 -7.5 0zM491.25 195 a3.75 3.75 0 1 0 7.5 0 a3.75 3.75 0 1 0 -7.5 0z" fill="black"></path><path d="M461.25 345 a3.75 3.75 0 1 0 7.5 0 a3.75 3.75 0 1 0 -7.5 0zM461.25 255 a3.75 3.75 0 1 0 7.5 0 a3.75 3.75 0 1 0 -7.5 0z" fill="black"></path><path d="M71.25 555 a3.75 3.75 0 1 0 7.5 0 a3.75 3.75 0 1 0 -7.5 0zM11.25 555 a3.75 3.75 0 1 0 7.5 0 a3.75 3.75 0 1 0 -7.5 0z" fill="black"></path><path d="M251.25 285 a3.75 3.75 0 1 0 7.5 0 a3.75 3.75 0 1 0 -7.5 0zM11.25 525 a3.75 3.75 0 1 0 7.5 0 a3.75 3.75 0 1 0 -7.5 0z" fill="black"></path><path d="M881.25 765 a3.75 3.75 0 1 0 7.5 0 a3.75 3.75 0 1 0 -7.5 0zM881.25 645 a3.75 3.75 0 1 0 7.5 0 a3.75 3.75 0 1 0 -7.5 0z" fill="black"></path><path d="M11.25 645 a3.75 3.75 0 1 0 7.5 0 a3.75 3.75 0 1 0 -7.5 0zM11.25 795 a3.75 3.75 0 1 0 7.5 0 a3.75 3.75 0 1 0 -7.5 0z" fill="black"></path><path d="M131.25 555 a3.75 3.75 0 1 0 7.5 0 a3.75 3.75 0 1 0 -7.5 0zM71.25 525 a3.75 3.75 0 1 0 7.5 0 a3.75 3.75 0 1 0 -7.5 0z" fill="black"></path><path d="M161.25 285 a3.75 3.75 0 1 0 7.5 0 a3.75 3.75 0 1 0 -7.5 0zM11.25 495 a3.75 3.75 0 1 0 7.5 0 a3.75 3.75 0 1 0 -7.5 0z" fill="black"></path><path d="M491.25 345 a3.75 3.75 0 1 0 7.5 0 a3.75 3.75 0 1 0 -7.5 0zM521.25 585 a3.75 3.75 0 1 0 7.5 0 a3.75 3.75 0 1 0 -7.5 0z" fill="black"></path><path d="M371.25 405 a3.75 3.75 0 1 0 7.5 0 a3.75 3.75 0 1 0 -7.5 0zM431.25 525 a3.75 3.75 0 1 0 7.5 0 a3.75 3.75 0 1 0 -7.5 0z" fill="black"></path><path d="M671.25 195 a3.75 3.75 0 1 0 7.5 0 a3.75 3.75 0 1 0 -7.5 0zM461.25 15 a3.75 3.75 0 1 0 7.5 0 a3.75 3.75 0 1 0 -7.5 0z" fill="black"></path><path d="M521.25 255 a3.75 3.75 0 1 0 7.5 0 a3.75 3.75 0 1 0 -7.5 0zM521.25 345 a3.75 3.75 0 1 0 7.5 0 a3.75 3.75 0 1 0 -7.5 0z" fill="black"></path><path d="M1031.25 705 a3.75 3.75 0 1 0 7.5 0 a3.75 3.75 0 1 0 -7.5 0zM1031.25 645 a3.75 3.75 0 1 0 7.5 0 a3.75 3.75 0 1 0 -7.5 0z" fill="black"></path><path d="M941.25 585 a3.75 3.75 0 1 0 7.5 0 a3.75 3.75 0 1 0 -7.5 0zM1031.25 585 a3.75 3.75 0 1 0 7.5 0 a3.75 3.75 0 1 0 -7.5 0z" fill="black"></path><path d="M341.25 375 a3.75 3.75 0 1 0 7.5 0 a3.75 3.75 0 1 0 -7.5 0zM431.25 375 a3.75 3.75 0 1 0 7.5 0 a3.75 3.75 0 1 0 -7.5 0z" fill="black"></path><path d="M311.25 45 a3.75 3.75 0 1 0 7.5 0 a3.75 3.75 0 1 0 -7.5 0zM491.25 105 a3.75 3.75 0 1 0 7.5 0 a3.75 3.75 0 1 0 -7.5 0z" fill="black"></path><path d="M341.25 255 a3.75 3.75 0 1 0 7.5 0 a3.75 3.75 0 1 0 -7.5 0zM371.25 345 a3.75 3.75 0 1 0 7.5 0 a3.75 3.75 0 1 0 -7.5 0z" fill="black"></path><path d="M281.25 675 a3.75 3.75 0 1 0 7.5 0 a3.75 3.75 0 1 0 -7.5 0zM41.25 765 a3.75 3.75 0 1 0 7.5 0 a3.75 3.75 0 1 0 -7.5 0z" fill="black"></path><path d="M1151.25 765 a3.75 3.75 0 1 0 7.5 0 a3.75 3.75 0 1 0 -7.5 0zM1181.25 705 a3.75 3.75 0 1 0 7.5 0 a3.75 3.75 0 1 0 -7.5 0z" fill="black"></path><path d="M71.25 315 a3.75 3.75 0 1 0 7.5 0 a3.75 3.75 0 1 0 -7.5 0zM131.25 255 a3.75 3.75 0 1 0 7.5 0 a3.75 3.75 0 1 0 -7.5 0z" fill="black"></path><path d="M911.25 135 a3.75 3.75 0 1 0 7.5 0 a3.75 3.75 0 1 0 -7.5 0zM911.25 15 a3.75 3.75 0 1 0 7.5 0 a3.75 3.75 0 1 0 -7.5 0z" fill="black"></path><path d="M551.25 735 a3.75 3.75 0 1 0 7.5 0 a3.75 3.75 0 1 0 -7.5 0zM41.25 795 a3.75 3.75 0 1 0 7.5 0 a3.75 3.75 0 1 0 -7.5 0z" fill="black"></path><path d="M401.25 165 a3.75 3.75 0 1 0 7.5 0 a3.75 3.75 0 1 0 -7.5 0zM461.25 195 a3.75 3.75 0 1 0 7.5 0 a3.75 3.75 0 1 0 -7.5 0z" fill="black"></path><path d="M341.25 435 a3.75 3.75 0 1 0 7.5 0 a3.75 3.75 0 1 0 -7.5 0zM281.25 255 a3.75 3.75 0 1 0 7.5 0 a3.75 3.75 0 1 0 -7.5 0z" fill="black"></path><path d="M131.25 45 a3.75 3.75 0 1 0 7.5 0 a3.75 3.75 0 1 0 -7.5 0zM11.25 465 a3.75 3.75 0 1 0 7.5 0 a3.75 3.75 0 1 0 -7.5 0z" fill="black"></path><path d="M1121.25 705 a3.75 3.75 0 1 0 7.5 0 a3.75 3.75 0 1 0 -7.5 0zM551.25 795 a3.75 3.75 0 1 0 7.5 0 a3.75 3.75 0 1 0 -7.5 0z" fill="black"></path><path d="M941.25 105 a3.75 3.75 0 1 0 7.5 0 a3.75 3.75 0 1 0 -7.5 0zM1001.25 375 a3.75 3.75 0 1 0 7.5 0 a3.75 3.75 0 1 0 -7.5 0z" fill="black"></path><path d="M1151.25 75 a3.75 3.75 0 1 0 7.5 0 a3.75 3.75 0 1 0 -7.5 0zM1151.25 15 a3.75 3.75 0 1 0 7.5 0 a3.75 3.75 0 1 0 -7.5 0z" fill="black"></path><path d="M1061.25 45 a3.75 3.75 0 1 0 7.5 0 a3.75 3.75 0 1 0 -7.5 0zM1121.25 255 a3.75 3.75 0 1 0 7.5 0 a3.75 3.75 0 1 0 -7.5 0z" fill="black"></path><path d="M791.25 585 a3.75 3.75 0 1 0 7.5 0 a3.75 3.75 0 1 0 -7.5 0zM911.25 585 a3.75 3.75 0 1 0 7.5 0 a3.75 3.75 0 1 0 -7.5 0z" fill="black"></path><path d="M971.25 705 a3.75 3.75 0 1 0 7.5 0 a3.75 3.75 0 1 0 -7.5 0zM1031.25 765 a3.75 3.75 0 1 0 7.5 0 a3.75 3.75 0 1 0 -7.5 0z" fill="black"></path><path d="M1091.25 255 a3.75 3.75 0 1 0 7.5 0 a3.75 3.75 0 1 0 -7.5 0zM971.25 15 a3.75 3.75 0 1 0 7.5 0 a3.75 3.75 0 1 0 -7.5 0z" fill="black"></path><path d="M521.25 795 a3.75 3.75 0 1 0 7.5 0 a3.75 3.75 0 1 0 -7.5 0zM461.25 795 a3.75 3.75 0 1 0 7.5 0 a3.75 3.75 0 1 0 -7.5 0z" fill="black"></path><path d="M161.25 645 a3.75 3.75 0 1 0 7.5 0 a3.75 3.75 0 1 0 -7.5 0zM41.25 705 a3.75 3.75 0 1 0 7.5 0 a3.75 3.75 0 1 0 -7.5 0z" fill="black"></path><path d="M1091.25 705 a3.75 3.75 0 1 0 7.5 0 a3.75 3.75 0 1 0 -7.5 0zM1121.25 645 a3.75 3.75 0 1 0 7.5 0 a3.75 3.75 0 1 0 -7.5 0z" fill="black"></path><path d="M461.25 615 a3.75 3.75 0 1 0 7.5 0 a3.75 3.75 0 1 0 -7.5 0zM251.25 555 a3.75 3.75 0 1 0 7.5 0 a3.75 3.75 0 1 0 -7.5 0z" fill="black"></path><path d="M191.25 435 a3.75 3.75 0 1 0 7.5 0 a3.75 3.75 0 1 0 -7.5 0zM251.25 345 a3.75 3.75 0 1 0 7.5 0 a3.75 3.75 0 1 0 -7.5 0z" fill="black"></path><path d="M701.25 375 a3.75 3.75 0 1 0 7.5 0 a3.75 3.75 0 1 0 -7.5 0zM821.25 285 a3.75 3.75 0 1 0 7.5 0 a3.75 3.75 0 1 0 -7.5 0z" fill="black"></path><path d="M701.25 735 a3.75 3.75 0 1 0 7.5 0 a3.75 3.75 0 1 0 -7.5 0zM851.25 735 a3.75 3.75 0 1 0 7.5 0 a3.75 3.75 0 1 0 -7.5 0z" fill="black"></path><path d="M701.25 285 a3.75 3.75 0 1 0 7.5 0 a3.75 3.75 0 1 0 -7.5 0zM761.25 285 a3.75 3.75 0 1 0 7.5 0 a3.75 3.75 0 1 0 -7.5 0z" fill="black"></path><path d="M1061.25 495 a3.75 3.75 0 1 0 7.5 0 a3.75 3.75 0 1 0 -7.5 0zM911.25 525 a3.75 3.75 0 1 0 7.5 0 a3.75 3.75 0 1 0 -7.5 0z" fill="black"></path><path d="M701.25 135 a3.75 3.75 0 1 0 7.5 0 a3.75 3.75 0 1 0 -7.5 0zM701.25 45 a3.75 3.75 0 1 0 7.5 0 a3.75 3.75 0 1 0 -7.5 0z" fill="black"></path><path d="M581.25 345 a3.75 3.75 0 1 0 7.5 0 a3.75 3.75 0 1 0 -7.5 0zM731.25 645 a3.75 3.75 0 1 0 7.5 0 a3.75 3.75 0 1 0 -7.5 0z" fill="black"></path><path d="M641.25 525 a3.75 3.75 0 1 0 7.5 0 a3.75 3.75 0 1 0 -7.5 0zM731.25 615 a3.75 3.75 0 1 0 7.5 0 a3.75 3.75 0 1 0 -7.5 0z" fill="black"></path><path d="M161.25 615 a3.75 3.75 0 1 0 7.5 0 a3.75 3.75 0 1 0 -7.5 0zM11.25 615 a3.75 3.75 0 1 0 7.5 0 a3.75 3.75 0 1 0 -7.5 0z" fill="black"></path><path d="M641.25 375 a3.75 3.75 0 1 0 7.5 0 a3.75 3.75 0 1 0 -7.5 0zM671.25 45 a3.75 3.75 0 1 0 7.5 0 a3.75 3.75 0 1 0 -7.5 0z" fill="black"></path><path d="M521.25 45 a3.75 3.75 0 1 0 7.5 0 a3.75 3.75 0 1 0 -7.5 0zM581.25 45 a3.75 3.75 0 1 0 7.5 0 a3.75 3.75 0 1 0 -7.5 0z" fill="black"></path><path d="M221.25 135 a3.75 3.75 0 1 0 7.5 0 a3.75 3.75 0 1 0 -7.5 0zM101.25 165 a3.75 3.75 0 1 0 7.5 0 a3.75 3.75 0 1 0 -7.5 0z" fill="black"></path><path d="M641.25 435 a3.75 3.75 0 1 0 7.5 0 a3.75 3.75 0 1 0 -7.5 0zM611.25 495 a3.75 3.75 0 1 0 7.5 0 a3.75 3.75 0 1 0 -7.5 0z" fill="black"></path><path d="M791.25 465 a3.75 3.75 0 1 0 7.5 0 a3.75 3.75 0 1 0 -7.5 0zM821.25 315 a3.75 3.75 0 1 0 7.5 0 a3.75 3.75 0 1 0 -7.5 0z" fill="black"></path><path d="M911.25 165 a3.75 3.75 0 1 0 7.5 0 a3.75 3.75 0 1 0 -7.5 0zM911.25 285 a3.75 3.75 0 1 0 7.5 0 a3.75 3.75 0 1 0 -7.5 0z" fill="black"></path><path d="M821.25 555 a3.75 3.75 0 1 0 7.5 0 a3.75 3.75 0 1 0 -7.5 0zM611.25 405 a3.75 3.75 0 1 0 7.5 0 a3.75 3.75 0 1 0 -7.5 0z" fill="black"></path><path d="M131.25 705 a3.75 3.75 0 1 0 7.5 0 a3.75 3.75 0 1 0 -7.5 0zM251.25 585 a3.75 3.75 0 1 0 7.5 0 a3.75 3.75 0 1 0 -7.5 0z" fill="black"></path><path d="M1181.25 495 a3.75 3.75 0 1 0 7.5 0 a3.75 3.75 0 1 0 -7.5 0zM1181.25 345 a3.75 3.75 0 1 0 7.5 0 a3.75 3.75 0 1 0 -7.5 0z" fill="black"></path><path d="M821.25 405 a3.75 3.75 0 1 0 7.5 0 a3.75 3.75 0 1 0 -7.5 0zM821.25 495 a3.75 3.75 0 1 0 7.5 0 a3.75 3.75 0 1 0 -7.5 0z" fill="black"></path><path d="M221.25 645 a3.75 3.75 0 1 0 7.5 0 a3.75 3.75 0 1 0 -7.5 0zM161.25 705 a3.75 3.75 0 1 0 7.5 0 a3.75 3.75 0 1 0 -7.5 0z" fill="black"></path><path d="M191.25 465 a3.75 3.75 0 1 0 7.5 0 a3.75 3.75 0 1 0 -7.5 0zM101.25 525 a3.75 3.75 0 1 0 7.5 0 a3.75 3.75 0 1 0 -7.5 0z" fill="black"></path><path d="M611.25 255 a3.75 3.75 0 1 0 7.5 0 a3.75 3.75 0 1 0 -7.5 0zM611.25 75 a3.75 3.75 0 1 0 7.5 0 a3.75 3.75 0 1 0 -7.5 0z" fill="black"></path><path d="M851.25 675 a3.75 3.75 0 1 0 7.5 0 a3.75 3.75 0 1 0 -7.5 0zM791.25 645 a3.75 3.75 0 1 0 7.5 0 a3.75 3.75 0 1 0 -7.5 0z" fill="black"></path><path d="M971.25 405 a3.75 3.75 0 1 0 7.5 0 a3.75 3.75 0 1 0 -7.5 0zM881.25 315 a3.75 3.75 0 1 0 7.5 0 a3.75 3.75 0 1 0 -7.5 0z" fill="black"></path><path d="M791.25 15 a3.75 3.75 0 1 0 7.5 0 a3.75 3.75 0 1 0 -7.5 0zM851.25 75 a3.75 3.75 0 1 0 7.5 0 a3.75 3.75 0 1 0 -7.5 0z" fill="black"></path><path d="M911.25 675 a3.75 3.75 0 1 0 7.5 0 a3.75 3.75 0 1 0 -7.5 0zM1001.25 675 a3.75 3.75 0 1 0 7.5 0 a3.75 3.75 0 1 0 -7.5 0z" fill="black"></path><path d="M341.25 615 a3.75 3.75 0 1 0 7.5 0 a3.75 3.75 0 1 0 -7.5 0zM281.25 645 a3.75 3.75 0 1 0 7.5 0 a3.75 3.75 0 1 0 -7.5 0z" fill="black"></path><path d="M851.25 765 a3.75 3.75 0 1 0 7.5 0 a3.75 3.75 0 1 0 -7.5 0zM461.25 765 a3.75 3.75 0 1 0 7.5 0 a3.75 3.75 0 1 0 -7.5 0z" fill="black"></path><path d="M191.25 645 a3.75 3.75 0 1 0 7.5 0 a3.75 3.75 0 1 0 -7.5 0zM191.25 585 a3.75 3.75 0 1 0 7.5 0 a3.75 3.75 0 1 0 -7.5 0z" fill="black"></path><path d="M641.25 165 a3.75 3.75 0 1 0 7.5 0 a3.75 3.75 0 1 0 -7.5 0zM671.25 375 a3.75 3.75 0 1 0 7.5 0 a3.75 3.75 0 1 0 -7.5 0z" fill="black"></path><path d="M371.25 705 a3.75 3.75 0 1 0 7.5 0 a3.75 3.75 0 1 0 -7.5 0zM551.25 705 a3.75 3.75 0 1 0 7.5 0 a3.75 3.75 0 1 0 -7.5 0z" fill="black"></path><path d="M401.25 585 a3.75 3.75 0 1 0 7.5 0 a3.75 3.75 0 1 0 -7.5 0zM461.25 675 a3.75 3.75 0 1 0 7.5 0 a3.75 3.75 0 1 0 -7.5 0z" fill="black"></path><path d="M101.25 45 a3.75 3.75 0 1 0 7.5 0 a3.75 3.75 0 1 0 -7.5 0zM11.25 135 a3.75 3.75 0 1 0 7.5 0 a3.75 3.75 0 1 0 -7.5 0z" fill="black"></path><path d="M131.25 165 a3.75 3.75 0 1 0 7.5 0 a3.75 3.75 0 1 0 -7.5 0zM431.25 195 a3.75 3.75 0 1 0 7.5 0 a3.75 3.75 0 1 0 -7.5 0z" fill="black"></path><path d="M41.25 75 a3.75 3.75 0 1 0 7.5 0 a3.75 3.75 0 1 0 -7.5 0zM11.25 15 a3.75 3.75 0 1 0 7.5 0 a3.75 3.75 0 1 0 -7.5 0z" fill="black"></path><path d="M71.25 645 a3.75 3.75 0 1 0 7.5 0 a3.75 3.75 0 1 0 -7.5 0zM131.25 645 a3.75 3.75 0 1 0 7.5 0 a3.75 3.75 0 1 0 -7.5 0z" fill="black"></path><path d="M251.25 105 a3.75 3.75 0 1 0 7.5 0 a3.75 3.75 0 1 0 -7.5 0zM281.25 45 a3.75 3.75 0 1 0 7.5 0 a3.75 3.75 0 1 0 -7.5 0z" fill="black"></path><path d="M1001.25 315 a3.75 3.75 0 1 0 7.5 0 a3.75 3.75 0 1 0 -7.5 0zM1091.25 285 a3.75 3.75 0 1 0 7.5 0 a3.75 3.75 0 1 0 -7.5 0z" fill="black"></path><path d="M641.25 615 a3.75 3.75 0 1 0 7.5 0 a3.75 3.75 0 1 0 -7.5 0zM701.25 645 a3.75 3.75 0 1 0 7.5 0 a3.75 3.75 0 1 0 -7.5 0z" fill="black"></path><path d="M911.25 735 a3.75 3.75 0 1 0 7.5 0 a3.75 3.75 0 1 0 -7.5 0zM971.25 765 a3.75 3.75 0 1 0 7.5 0 a3.75 3.75 0 1 0 -7.5 0z" fill="black"></path><path d="M101.25 345 a3.75 3.75 0 1 0 7.5 0 a3.75 3.75 0 1 0 -7.5 0zM41.25 345 a3.75 3.75 0 1 0 7.5 0 a3.75 3.75 0 1 0 -7.5 0z" fill="black"></path><path d="M1061.25 405 a3.75 3.75 0 1 0 7.5 0 a3.75 3.75 0 1 0 -7.5 0zM1151.25 285 a3.75 3.75 0 1 0 7.5 0 a3.75 3.75 0 1 0 -7.5 0z" fill="black"></path><path d="M1091.25 15 a3.75 3.75 0 1 0 7.5 0 a3.75 3.75 0 1 0 -7.5 0zM1091.25 135 a3.75 3.75 0 1 0 7.5 0 a3.75 3.75 0 1 0 -7.5 0z" fill="black"></path><path d="M491.25 435 a3.75 3.75 0 1 0 7.5 0 a3.75 3.75 0 1 0 -7.5 0zM491.25 375 a3.75 3.75 0 1 0 7.5 0 a3.75 3.75 0 1 0 -7.5 0z" fill="black"></path><path d="M671.25 285 a3.75 3.75 0 1 0 7.5 0 a3.75 3.75 0 1 0 -7.5 0zM701.25 345 a3.75 3.75 0 1 0 7.5 0 a3.75 3.75 0 1 0 -7.5 0z" fill="black"></path><path d="M161.25 195 a3.75 3.75 0 1 0 7.5 0 a3.75 3.75 0 1 0 -7.5 0zM221.25 195 a3.75 3.75 0 1 0 7.5 0 a3.75 3.75 0 1 0 -7.5 0z" fill="black"></path><path d="M161.25 75 a3.75 3.75 0 1 0 7.5 0 a3.75 3.75 0 1 0 -7.5 0zM251.25 45 a3.75 3.75 0 1 0 7.5 0 a3.75 3.75 0 1 0 -7.5 0z" fill="black"></path><path d="M671.25 105 a3.75 3.75 0 1 0 7.5 0 a3.75 3.75 0 1 0 -7.5 0zM731.25 45 a3.75 3.75 0 1 0 7.5 0 a3.75 3.75 0 1 0 -7.5 0z" fill="black"></path><path d="M881.25 495 a3.75 3.75 0 1 0 7.5 0 a3.75 3.75 0 1 0 -7.5 0zM941.25 435 a3.75 3.75 0 1 0 7.5 0 a3.75 3.75 0 1 0 -7.5 0z" fill="black"></path><path d="M1061.25 525 a3.75 3.75 0 1 0 7.5 0 a3.75 3.75 0 1 0 -7.5 0zM941.25 525 a3.75 3.75 0 1 0 7.5 0 a3.75 3.75 0 1 0 -7.5 0z" fill="black"></path><path d="M191.25 105 a3.75 3.75 0 1 0 7.5 0 a3.75 3.75 0 1 0 -7.5 0zM131.25 105 a3.75 3.75 0 1 0 7.5 0 a3.75 3.75 0 1 0 -7.5 0z" fill="black"></path><path d="M911.25 705 a3.75 3.75 0 1 0 7.5 0 a3.75 3.75 0 1 0 -7.5 0zM971.25 735 a3.75 3.75 0 1 0 7.5 0 a3.75 3.75 0 1 0 -7.5 0z" fill="black"></path><path d="M701.25 555 a3.75 3.75 0 1 0 7.5 0 a3.75 3.75 0 1 0 -7.5 0zM731.25 495 a3.75 3.75 0 1 0 7.5 0 a3.75 3.75 0 1 0 -7.5 0z" fill="black"></path><path d="M701.25 165 a3.75 3.75 0 1 0 7.5 0 a3.75 3.75 0 1 0 -7.5 0zM761.25 165 a3.75 3.75 0 1 0 7.5 0 a3.75 3.75 0 1 0 -7.5 0z" fill="black"></path><path d="M161.25 465 a3.75 3.75 0 1 0 7.5 0 a3.75 3.75 0 1 0 -7.5 0zM101.25 495 a3.75 3.75 0 1 0 7.5 0 a3.75 3.75 0 1 0 -7.5 0z" fill="black"></path><path d="M971.25 315 a3.75 3.75 0 1 0 7.5 0 a3.75 3.75 0 1 0 -7.5 0zM1061.25 285 a3.75 3.75 0 1 0 7.5 0 a3.75 3.75 0 1 0 -7.5 0z" fill="black"></path><path d="M1121.25 15 a3.75 3.75 0 1 0 7.5 0 a3.75 3.75 0 1 0 -7.5 0zM1151.25 195 a3.75 3.75 0 1 0 7.5 0 a3.75 3.75 0 1 0 -7.5 0z" fill="black"></path><path d="M401.25 465 a3.75 3.75 0 1 0 7.5 0 a3.75 3.75 0 1 0 -7.5 0zM311.25 495 a3.75 3.75 0 1 0 7.5 0 a3.75 3.75 0 1 0 -7.5 0z" fill="black"></path><path d="M1001.25 135 a3.75 3.75 0 1 0 7.5 0 a3.75 3.75 0 1 0 -7.5 0zM1061.25 15 a3.75 3.75 0 1 0 7.5 0 a3.75 3.75 0 1 0 -7.5 0z" fill="black"></path><path d="M491.25 555 a3.75 3.75 0 1 0 7.5 0 a3.75 3.75 0 1 0 -7.5 0zM491.25 465 a3.75 3.75 0 1 0 7.5 0 a3.75 3.75 0 1 0 -7.5 0z" fill="black"></path><path d="M311.25 735 a3.75 3.75 0 1 0 7.5 0 a3.75 3.75 0 1 0 -7.5 0zM221.25 765 a3.75 3.75 0 1 0 7.5 0 a3.75 3.75 0 1 0 -7.5 0z" fill="black"></path><path d="M311.25 795 a3.75 3.75 0 1 0 7.5 0 a3.75 3.75 0 1 0 -7.5 0zM371.25 765 a3.75 3.75 0 1 0 7.5 0 a3.75 3.75 0 1 0 -7.5 0z" fill="black"></path><path d="M1031.25 135 a3.75 3.75 0 1 0 7.5 0 a3.75 3.75 0 1 0 -7.5 0zM1031.25 75 a3.75 3.75 0 1 0 7.5 0 a3.75 3.75 0 1 0 -7.5 0z" fill="black"></path><path d="M101.25 255 a3.75 3.75 0 1 0 7.5 0 a3.75 3.75 0 1 0 -7.5 0zM41.25 255 a3.75 3.75 0 1 0 7.5 0 a3.75 3.75 0 1 0 -7.5 0z" fill="black"></path><path d="M251.25 465 a3.75 3.75 0 1 0 7.5 0 a3.75 3.75 0 1 0 -7.5 0zM191.25 525 a3.75 3.75 0 1 0 7.5 0 a3.75 3.75 0 1 0 -7.5 0z" fill="black"></path></mask></defs></svg>