<svg xmlns="http://www.w3.org/2000/svg" xmlns:xlink="http://www.w3.org/1999/xlink" viewBox="0,0,256,256" width="100px" height="100px"><g fill="#ffffff" fill-rule="nonzero" stroke="none" stroke-width="1" stroke-linecap="butt" stroke-linejoin="miter" stroke-miterlimit="10" stroke-dasharray="" stroke-dashoffset="0" font-family="none" font-weight="none" font-size="none" text-anchor="none" style="mix-blend-mode: normal"><g transform="scale(5.12,5.12)"><path d="M9,4c-2.76,0 -5,2.24 -5,5v32c0,2.76 2.24,5 5,5h32c2.76,0 5,-2.24 5,-5v-32c0,-2.76 -2.24,-5 -5,-5zM12,18h6.73047c0.73,0 4.67969,-0.04969 4.67969,3.57031c0,1.92 -1.31039,2.56938 -1.90039,2.85938c0.88,0.28 2.49023,1.09031 2.49023,3.57031c0,3.83 -4.39047,4 -4.98047,4h-7.01953zM29,18h7v2h-7zM15,20.42969v3.28125h3.2207c0.44,0 1.89844,-0.24094 1.89844,-1.71094c0,-1.47 -1.89945,-1.57031 -2.18945,-1.57031zM32.73047,21c3.9,0 4.95914,3.03977 5.11914,3.75977c0.15,0.73 0.15039,1.37023 0.15039,2.24023h-7.90039c0,0.87 0.46102,2.83008 2.79102,2.83008c0.62,0 1.07883,-0.14945 1.54883,-0.43945c0.46,-0.29 0.62148,-0.57133 0.77148,-0.86133h2.62891c-0.46,1.15 -1.07977,2.02156 -2.00977,2.60156c-0.93,0.58 -2.01,0.86914 -3.25,0.86914c-0.78,0 -1.55008,-0.14945 -2.33008,-0.43945c-0.62,-0.29 -1.23922,-0.72039 -1.69922,-1.15039c-0.46,-0.44 -0.77008,-1.02023 -1.08008,-1.74023c-0.31,-0.58 -0.4707,-1.44992 -0.4707,-2.16992c0,-0.72 0.29047,-5.5 5.73047,-5.5zM32.73047,23.0293c-2.26,0 -2.63086,2.17055 -2.63086,2.31055h4.96094c-0.16,-0.72 -0.81008,-2.31055 -2.33008,-2.31055zM15,25.71094v3.85937h3.35156c0.289,0 2.32813,-0.08938 2.32813,-1.85937c0,-1.76 -1.60213,-2 -2.32813,-2z"></path></g></g></svg>