<svg xmlns="http://www.w3.org/2000/svg" xmlns:xlink="http://www.w3.org/1999/xlink" viewBox="0,0,256,256" width="100px" height="100px"><g fill="#ffffff" fill-rule="nonzero" stroke="none" stroke-width="1" stroke-linecap="butt" stroke-linejoin="miter" stroke-miterlimit="10" stroke-dasharray="" stroke-dashoffset="0" font-family="none" font-weight="none" font-size="none" text-anchor="none" style="mix-blend-mode: normal"><g transform="scale(5.12,5.12)"><path d="M25,2v14h-7c-3.855,0 -7,-3.145 -7,-7c0,-3.855 3.145,-7 7,-7zM25,18v14h-7c-3.855,0 -7,-3.145 -7,-7c0,-3.855 3.145,-7 7,-7zM25,34v7c0,3.855 -3.145,7 -7,7c-3.855,0 -7,-3.145 -7,-7c0,-3.855 3.145,-7 7,-7zM41,9c0,3.855 -3.145,7 -7,7h-7v-14h7c3.855,0 7,3.145 7,7zM34,18c-3.03757,7.45584 -11.54416,11.03757 -19,8c-7.45584,-3.03757 -11.03757,-11.54416 -8,-19c0,0 NaN,NaN NaN,NaNcNaN,NaN NaN,NaN NaN,NaNz"></path></g></g></svg>