<svg width="1079" height="1227" viewBox="0 0 1079 1227" fill="none" xmlns="http://www.w3.org/2000/svg">
<rect width="1079" height="1227" fill="#121212"/>
<path d="M1020 570.967C1054.67 590.982 1054.67 641.019 1020 661.033L132 1173.72C97.3333 1193.74 53.9999 1168.72 53.9999 1128.69L54 103.313C54 63.2834 97.3333 38.2649 132 58.2797L1020 570.967Z" fill="white"/>
<path d="M142 49V1072.89C148.042 1129.85 240.02 1134.39 254.119 1070.37V223.429C254.119 161.421 362.881 156.405 362.881 223.429V1070.37C368.923 1127.33 460.901 1131.87 475 1067.84M475 1072.89V236" stroke="#121212" stroke-width="56"/>
<path d="M590.171 694.086H706.26" stroke="#121212" stroke-width="56"/>
<path d="M587 1051V345.4C587 282.657 700.886 281.629 700.886 345.4V1051" stroke="#121212" stroke-width="56"/>
<path d="M818.425 1024.26V160.247C815.785 110.361 917.426 90.3034 925.346 160.247V1024.26" stroke="#121212" stroke-width="56"/>
</svg>
