<svg width="1440" height="1311" viewBox="0 0 1440 1311" fill="none" xmlns="http://www.w3.org/2000/svg">
<path d="M462.691 504C351.853 504 262 593.853 262 704.691V1133H525.054C631.063 1133 717 1047.06 717 941.054V520.111C717 511.213 709.787 504 700.889 504H462.691Z" fill="#1ED760"/>
<path d="M1178 1003.86C1178 893.022 1088.15 803.169 977.308 803.169H744.396V941.259C744.396 1047.27 830.333 1133.21 936.342 1133.21H1161.89C1170.79 1133.21 1178 1125.99 1178 1117.09V1003.86Z" fill="#1ED760"/>
<path d="M262 179.076V748.85C262 829.437 327.329 894.766 407.916 894.766H577.103V324.992C577.103 244.405 511.774 179.076 431.187 179.076H262Z" fill="#121212"/>
<path d="M1178 179L1178 852.421C1178 933.008 1112.67 998.337 1032.08 998.337L870.518 998.337L870.519 324.916C870.519 244.329 935.847 179 1016.43 179L1178 179Z" fill="#121212"/>
</svg>
