<svg width="1392" height="1392" viewBox="0 0 1392 1392" fill="none" xmlns="http://www.w3.org/2000/svg">
<rect width="1392" height="1392" fill="white"/>
<path d="M1314 650.967C1348.67 670.982 1348.67 721.019 1314 741.033L426 1253.72C391.333 1273.74 348 1248.72 348 1208.69L348 183.313C348 143.283 391.333 118.265 426 138.28L1314 650.967Z" fill="black"/>
<path d="M436 129V1152.89C442.042 1209.85 534.02 1214.39 548.119 1150.37V303.429C548.119 241.421 656.881 236.405 656.881 303.429V1150.37C662.923 1207.33 754.901 1211.87 769 1147.84M769 129V1152.89" stroke="white" stroke-width="56"/>
<path d="M884.171 774.086H1000.26" stroke="white" stroke-width="56"/>
<path d="M881 1131V425.4C881 362.657 994.886 361.629 994.886 425.4V1131" stroke="white" stroke-width="56"/>
<path d="M1112.43 1104.26V240.247C1109.79 190.361 1211.43 170.303 1219.35 240.247V1104.26" stroke="white" stroke-width="56"/>
</svg>
