<svg width="916" height="955" viewBox="0 0 916 955" fill="none" xmlns="http://www.w3.org/2000/svg">
<path d="M200.691 325C89.8526 325 0 414.853 0 525.691L0 954H263.054C369.063 954 455 868.063 455 762.054V341.111C455 332.213 447.787 325 438.889 325H200.691Z" fill="#1ED760"/>
<path d="M916 824.86C916 714.022 826.147 624.169 715.308 624.169H482.396V762.259C482.396 868.268 568.333 954.205 674.342 954.205H899.889C908.787 954.205 916 946.992 916 938.095V824.86Z" fill="#1ED760"/>
<path d="M0.000488281 0.0761719L0.000488281 569.85C0.000488281 650.437 65.3291 715.766 145.916 715.766H315.103V145.992C315.103 65.4049 249.774 0.0761719 169.187 0.0761719L0.000488281 0.0761719Z" fill="#FFFDED"/>
<path d="M916 0L916 673.421C916 754.008 850.671 819.337 770.084 819.337L608.518 819.337L608.519 145.916C608.519 65.3287 673.847 -1.05848e-05 754.434 -7.06227e-06L916 0Z" fill="#FFFDED"/>
</svg>
