<svg xmlns="http://www.w3.org/2000/svg" version="1.1" xmlns:xlink="http://www.w3.org/1999/xlink"
    xmlns:svgjs="http://svgjs.dev/svgjs" viewBox="0 0 800 800">
    <defs>
        <filter id="llleaves-blur-2" x="-100%" y="-100%" width="400%" height="400%">
            <feGaussianBlur in="SourceGraphic" stdDeviation="2"></feGaussianBlur>
        </filter>
        <filter id="llleaves-blur-3" x="-100%" y="-100%" width="400%" height="400%">
            <feGaussianBlur in="SourceGraphic" stdDeviation="4"></feGaussianBlur>
        </filter>
        <filter id="llleaves-blur-4" x="-100%" y="-100%" width="400%" height="400%">
            <feGaussianBlur in="SourceGraphic" stdDeviation="12"></feGaussianBlur>
        </filter>
    </defs>
    <g fill="hsl(305, 77%, 40%)">
        <path d="M361 20H411C439 20 461 42 461 70H411C383 70 361 48 361 20Z "
            transform="matrix(0.2044292835711069,-0.5059802322201588,0.5059802322201588,0.2044292835711069,304.2104540023679,243.75855768178545)">
        </path>
        <path d="M148 630H198C226 630 248 652 248 680H198C170 680 148 658 148 630Z "
            transform="matrix(0.5819831347100254,-0.21182453787938663,0.21182453787938663,0.5819831347100254,-55.97773298358325,315.7423052650519)">
        </path>
        <path d="M-7 257H43C71 257 93 279 93 307H43C15 307 -7 285 -7 257Z "
            transform="matrix(0.17636073550463272,-0.5121887664474637,0.5121887664474637,0.17636073550463272,-109.02074376488397,254.2903895449345)">
        </path>
        <path d="M3 461H53C81 461 103 483 103 511H53C25 511 3 489 3 461Z "
            transform="matrix(0.2512213233076564,-0.49304960833051253,0.49304960833051253,0.2512213233076564,-199.93683978393486,390.03806611399614)">
        </path>
        <path d="M500 731H550C578 731 600 753 600 781H550C522 781 500 759 500 731Z "
            transform="matrix(0.06382791205398153,-0.5198366275419201,0.5198366275419201,0.06382791205398153,121.89815794861863,993.656243635246)">
        </path>
        <path d="M305 372H355C383 372 405 394 405 422H355C327 422 305 400 305 372Z "
            transform="matrix(0.5961929766723312,-0.18227448503889868,0.18227448503889868,0.5961929766723312,70.9885227208797,225.01883044989358)">
        </path>
        <path d="M361 205H411C439 205 461 227 461 255H411C383 255 361 233 361 205Z "
            transform="matrix(0.5367072495254653,-0.2853723066137807,0.2853723066137807,0.5367072495254653,124.77768992386416,223.84535062740684)">
        </path>
        <path d="M605 82H655C683 82 705 104 705 132H655C627 132 605 110 605 82Z "
            transform="matrix(-0.3845499387080116,-0.09587906821153598,0.09587906821153598,-0.3845499387080116,896.6211495551133,210.9476331203133)"
            filter="url(#llleaves-blur-2)"></path>
        <path d="M626 628H676C704 628 726 650 726 678H676C648 678 626 656 626 628Z "
            transform="matrix(-0.3220808291802292,-0.30034523216629083,0.30034523216629083,-0.3220808291802292,697.601203921247,1066.3521583991023)">
        </path>
        <path d="M210 420H260C288 420 310 442 310 470H260C232 470 210 448 210 420Z "
            transform="matrix(0.6177171459089221,-0.1312998326190202,0.1312998326190202,0.6177171459089221,40.96511654821626,204.25382655147493)">
        </path>
        <path d="M120 727H170C198 727 220 749 220 777H170C142 777 120 755 120 727Z "
            transform="matrix(0.560968674586675,-0.24975934548549727,0.24975934548549727,0.560968674586675,-113.1837024848287,372.610645443355)">
        </path>
        <path d="M639 156H689C717 156 739 178 739 206H689C661 206 639 184 639 156Z "
            transform="matrix(-0.3706193311731069,-0.1888399813073016,0.1888399813073016,-0.3706193311731069,910.176682561649,378.19284606306314)">
        </path>
        <path d="M433 678H483C511 678 533 700 533 728H483C455 728 433 706 433 678Z "
            transform="matrix(0.38563923085377116,-0.42829575599530295,0.42829575599530295,0.38563923085377116,-4.355664967069458,638.7624708555302)">
        </path>
        <path d="M106 425H156C184 425 206 447 206 475H156C128 475 106 453 106 425Z "
            transform="matrix(0.5367375124417422,-0.28538839769179464,0.28538839769179464,0.5367375124417422,-56.15583090221938,252.988709441136)">
        </path>
        <path d="M564 14H614C642 14 664 36 664 64H614C586 64 564 42 564 14Z "
            transform="matrix(-0.38130356268572263,-0.13878314703726,0.13878314703726,-0.38130356268572263,842.7078447545805,139.08369122562078)">
        </path>
        <path d="M710 99H760C788 99 810 121 810 149H760C732 149 710 127 710 99Z "
            transform="matrix(-0.3012160805959313,0.14691289870671667,-0.14691289870671667,-0.3012160805959313,1007.1414206925407,49.696990976790815)"
            filter="url(#llleaves-blur-2)"></path>
        <path d="M515 295H565C593 295 615 317 615 345H565C537 345 515 323 515 295Z "
            transform="matrix(0.06382791205398153,-0.5198366275419201,0.5198366275419201,0.06382791205398153,362.58950887608603,593.2827627039107)">
        </path>
        <path d="M238 718H288C316 718 338 740 338 768H288C260 768 238 746 238 718Z "
            transform="matrix(0.6184910664460612,-0.1314643345074003,0.1314643345074003,0.6184910664460612,12.196572324535964,321.3228659687078)">
        </path>
        <path d="M390 428H440C468 428 490 450 490 478H440C412 478 390 456 390 428Z "
            transform="matrix(0.47400108059975327,-0.35718543403904507,0.35718543403904507,0.47400108059975327,69.63452291642119,395.43910146549155)">
        </path>
        <path d="M260 22H310C338 22 360 44 360 72H310C282 72 260 50 260 22Z "
            transform="matrix(0.34269366023267683,-0.4547698472139184,0.4547698472139184,0.34269366023267683,182.39078250881602,171.8720506053789)">
        </path>
        <path d="M193 327H243C271 327 293 349 293 377H243C215 377 193 355 193 327Z "
            transform="matrix(0.613662758122372,-0.14167521092883623,0.14167521092883623,0.613662758122372,44.01027552931325,170.41778539663224)">
        </path>
        <path d="M284 277H334C362 277 384 299 384 327H334C306 327 284 305 284 277Z "
            transform="matrix(0.605586859697412,-0.1622665100028211,0.1622665100028211,0.605586859697412,82.72950284021243,173.30978271232385)">
        </path>
        <path d="M461 210H511C539 210 561 232 561 260H511C483 260 461 238 461 210Z "
            transform="matrix(0.2698926123449301,-0.4868991614652125,0.4868991614652125,0.2698926123449301,258.6635721474157,420.380707607665)">
        </path>
        <path d="M74 215H124C152 215 174 237 174 265H124C96 265 74 243 74 215Z "
            transform="matrix(0.47355423451986706,-0.35684871136577423,0.35684871136577423,0.47355423451986706,-20.364415808249333,170.5962239245879)">
        </path>
        <path d="M492 486H542C570 486 592 508 592 536H542C514 536 492 514 492 486Z "
            transform="matrix(0.13849513387972165,-0.5168708762401741,0.5168708762401741,0.13849513387972165,202.8146196784619,720.3730015096367)">
        </path>
        <path d="M102 122H152C180 122 202 144 202 172H152C124 172 102 150 102 122Z "
            transform="matrix(0.4434367969910299,-0.38547372668400887,0.38547372668400887,0.4434367969910299,27.932969034814136,140.40679729828796)">
        </path>
        <path d="M585 405H635C663 405 685 427 685 455H635C607 455 585 433 585 405Z "
            transform="matrix(-0.24597451013673294,-0.3936415018357715,0.3936415018357715,-0.24597451013673294,621.9279681474436,785.7313930245101)">
        </path>
        <path d="M694 387H744C772 387 794 409 794 437H744C716 437 694 415 694 387Z "
            transform="matrix(-0.385347050379464,-0.08896437647667807,0.08896437647667807,-0.385347050379464,994.0448823739299,636.9524808549877)"
            filter="url(#llleaves-blur-2)"></path>
        <path d="M-2 140H48C76 140 98 162 98 190H48C20 190 -2 168 -2 140Z "
            transform="matrix(0.06380357276980818,-0.5196383999798034,0.5196383999798034,0.06380357276980818,-40.80290748961836,179.4150536920122)">
        </path>
        <path d="M1 363H51C79 363 101 385 101 413H51C23 413 1 391 1 363Z "
            transform="matrix(0.2512213233076564,-0.49304960833051253,0.49304960833051253,0.2512213233076564,-153.11553552092934,315.6716565814855)">
        </path>
        <path d="M200 114H250C278 114 300 136 300 164H250C222 164 200 142 200 114Z "
            transform="matrix(0.5602215835532857,-0.24942671912689557,0.24942671912689557,0.5602215835532857,75.27429015304011,123.48587966781719)">
        </path>
        <path d="M366 530H416C444 530 466 552 466 580H416C388 580 366 558 366 530Z "
            transform="matrix(0.5367072495254653,-0.2853723066137807,0.2853723066137807,0.5367072495254653,34.348154026758095,375.8423560646995)">
        </path>
        <path d="M165 23H215C243 23 265 45 265 73H215C187 73 165 51 165 23Z "
            transform="matrix(0.22338308466325565,-0.5017266228218307,0.5017266228218307,0.22338308466325565,142.88975890195218,145.1488358428573)">
        </path>
        <path d="M615 296H665C693 296 715 318 715 346H665C637 346 615 324 615 296Z "
            transform="matrix(-0.28458673491741787,-0.351435349737114,0.351435349737114,-0.28458673491741787,741.4394314544693,646.0568494836721)">
        </path>
        <path d="M-9 560H41C69 560 91 582 91 610H41C13 610 -9 588 -9 560Z "
            transform="matrix(0.17636073550463272,-0.5121887664474637,0.5121887664474637,0.17636073550463272,-265.86121852745623,502.8287091541359)">
        </path>
        <path d="M259 187H309C337 187 359 209 359 237H309C281 237 259 215 259 187Z "
            transform="matrix(0.6175949289222493,-0.13127385459655536,0.13127385459655536,0.6175949289222493,90.33310978855522,121.63349613881876)">
        </path>
        <path d="M702 206H752C780 206 802 228 802 256H752C724 256 702 234 702 206Z "
            transform="matrix(-0.38216576818161524,-0.04692405603830095,0.04692405603830095,-0.38216576818161524,1028.549200727727,354.56718259075546)"
            filter="url(#llleaves-blur-2)"></path>
        <path d="M86 540H136C164 540 186 562 186 590H136C108 590 86 568 86 540Z "
            transform="matrix(0.5095523052690475,-0.3184036187573743,0.3184036187573743,0.5095523052690475,-113.19715811450695,320.40583967399107)">
        </path>
    </g>
    <g fill="none" stroke-width="3" stroke="hsl(305, 77%, 40%)">
        <path d="M568 203H618C646 203 668 225 668 253H618C590 253 568 231 568 203Z "
            transform="matrix(-0.19369227244491713,-0.4350399667323583,0.4350399667323583,-0.19369227244491713,638.5127119559811,541.0165375580385)">
        </path>
        <path d="M310 107H360C388 107 410 129 410 157H360C332 157 310 135 310 107Z "
            transform="matrix(0.503319011814874,-0.3268591880732467,0.3268591880732467,0.503319011814874,135.65974292097675,183.23119814680544)">
        </path>
        <path d="M602 726H652C680 726 702 748 702 776H652C624 776 602 754 602 726Z "
            transform="matrix(-0.28458673491741787,-0.351435349737114,0.351435349737114,-0.28458673491741787,573.6226035135838,1193.860485951579)">
        </path>
        <path d="M479 382H529C557 382 579 404 579 432H529C501 432 479 410 479 382Z "
            transform="matrix(0.2045777108003278,-0.5063476025038924,0.5063476025038924,0.2045777108003278,214.6949167675424,591.5947534288257)">
        </path>
        <path d="M444 578H494C522 578 544 600 544 628H494C466 628 444 606 444 578Z "
            transform="matrix(0.3331513283020647,-0.4585434650559185,0.4585434650559185,0.3331513283020647,52.9215343900612,628.6302207714788)">
        </path>
        <path d="M24 644H74C102 644 124 666 124 694H74C46 694 24 672 24 644Z "
            transform="matrix(0.31559577742029776,-0.46788998143076854,0.46788998143076854,0.31559577742029776,-262.37248510628615,492.4902835316977)">
        </path>
        <path d="M398 307H448C476 307 498 329 498 357H448C420 357 398 335 398 307Z "
            transform="matrix(0.47400108059975327,-0.35718543403904507,0.35718543403904507,0.47400108059975327,117.06195179034756,334.6507156903741)">
        </path>
        <path d="M170 225H220C248 225 270 247 270 275H220C192 275 170 253 170 225Z "
            transform="matrix(0.6058352327683472,-0.16233306136659983,0.16233306136659983,0.6058352327683472,46.132983449313656,134.25446530856516)">
        </path>
        <path d="M706 588H756C784 588 806 610 806 638H756C728 638 706 616 706 588Z "
            transform="matrix(-0.38216576818161524,-0.04692405603830095,0.04692405603830095,-0.38216576818161524,1016.1528743938227,882.7422022602857)"
            filter="url(#llleaves-blur-2)"></path>
        <path d="M704 715H754C782 715 804 737 804 765H754C726 765 704 743 704 715Z "
            transform="matrix(-0.38216576818161524,-0.04692405603830095,0.04692405603830095,-0.38216576818161524,1007.4291877405951,1058.1834067072741)"
            filter="url(#llleaves-blur-2)"></path>
        <path d="M355 735H405C433 735 455 757 455 785H405C377 785 355 763 355 735Z "
            transform="matrix(0.5367072495254653,-0.2853723066137807,0.2853723066137807,0.5367072495254653,-29.249389084286747,467.6782745392275)">
        </path>
        <path d="M286 485H336C364 485 386 507 386 535H336C308 535 286 513 286 485Z "
            transform="matrix(0.605586859697412,-0.1622665100028211,0.1622665100028211,0.605586859697412,49.76689504023079,255.67224891526777)">
        </path>
        <path d="M688 14H738C766 14 788 36 788 64H738C710 64 688 42 688 14Z "
            transform="matrix(-0.2120444091151846,0.21957841350858315,-0.21957841350858315,-0.2120444091151846,903.0523320538409,-114.77913721384218)"
            filter="url(#llleaves-blur-2)"></path>
        <path d="M-9 31H41C69 31 91 53 91 81H41C13 81 -9 59 -9 31Z "
            transform="matrix(-0.30042680473296374,-0.33365776912657547,0.33365776912657547,-0.30042680473296374,34.63266392296329,86.50386959923557)">
        </path>
        <path d="M462 22H512C540 22 562 44 562 72H512C484 72 462 50 462 22Z "
            transform="matrix(-0.15000586795752455,-0.4616705902925579,0.4616705902925579,-0.15000586795752455,567.1044866505024,290.4256180237933)">
        </path>
        <path d="M410 114H460C488 114 510 136 510 164H460C432 164 410 142 410 114Z "
            transform="matrix(0.30678793424793827,-0.4724119912694526,0.4724119912694526,0.30678793424793827,253.2122834594945,313.6659931234848)">
        </path>
        <path d="M707 295H757C785 295 807 317 807 345H757C729 345 707 323 707 295Z "
            transform="matrix(-0.38216576818161524,-0.04692405603830095,0.04692405603830095,-0.38216576818161524,1031.2837885812264,477.8145562391107)"
            filter="url(#llleaves-blur-2)"></path>
        <path d="M75 26H125C153 26 175 48 175 76H125C97 76 75 54 75 26Z "
            transform="matrix(0.008984152805538608,-0.5147017695141979,0.5147017695141979,0.008984152805538608,97.62719065408359,114.87952939619227)">
        </path>
        <path d="M696 482H746C774 482 796 504 796 532H746C718 532 696 510 696 482Z "
            transform="matrix(-0.385347050379464,-0.08896437647667807,0.08896437647667807,-0.385347050379464,988.3639607094043,768.73837939399)"
            filter="url(#llleaves-blur-2)"></path>
        <path d="M93 317H143C171 317 193 339 193 367H143C115 367 93 345 93 317Z "
            transform="matrix(0.5095523052690475,-0.3184036187573743,0.3184036187573743,0.5095523052690475,-38.7600172684958,213.26482908029024)">
        </path>
        <path d="M511 114H561C589 114 611 136 611 164H561C533 164 511 142 511 114Z "
            transform="matrix(-0.10285522020814088,-0.4838957659082552,0.4838957659082552,-0.10285522020814088,551.4402670755195,424.7624002834628)">
        </path>
        <path d="M3 730H53C81 730 103 752 103 780H53C25 780 3 758 3 730Z "
            transform="matrix(0.2512213233076564,-0.49304960833051253,0.49304960833051253,0.2512213233076564,-332.56718442484276,591.4595301442366)">
        </path>
        <path d="M251 597H301C329 597 351 619 351 647H301C273 647 251 625 251 597Z "
            transform="matrix(0.6175949289222493,-0.13127385459655536,0.13127385459655536,0.6175949289222493,33.45158883534549,277.3693844439241)">
        </path>
        <path d="M532 615H582C610 615 632 637 632 665H582C554 665 532 643 532 615Z "
            transform="matrix(-9.407041511910765e-17,-0.5120954884548652,0.5120954884548652,-9.407041511910765e-17,254.25888738888636,938.0395742807315)">
        </path>
        <path d="M338 635H388C416 635 438 657 438 685H388C360 685 338 663 338 635Z "
            transform="matrix(0.560798155119587,-0.2496834253273462,0.2496834253273462,0.560798155119587,5.619255097551729,386.7503866480829)">
        </path>
        <path d="M182 518H232C260 518 282 540 282 568H232C204 568 182 546 182 518Z "
            transform="matrix(0.6058352327683472,-0.16233306136659983,0.16233306136659983,0.6058352327683472,3.299373675679732,251.69273884383864)">
        </path>
        <path d="M596 518H646C674 518 696 540 696 568H646C618 568 596 546 596 518Z "
            transform="matrix(-0.24597451013673294,-0.3936415018357715,0.3936415018357715,-0.24597451013673294,591.1521980515055,930.8565691901543)">
        </path>
    </g>
</svg>