<svg xmlns="http://www.w3.org/2000/svg" width="700" height="700" version="1.1" xmlns:xlink="http://www.w3.org/1999/xlink" xmlns:svgjs="http://svgjs.dev/svgjs" viewBox="0 0 1422 800" opacity="0.93"><defs><linearGradient x1="50%" y1="0%" x2="50%" y2="100%" id="oooscillate-grad"><stop stop-color="hsl(185, 53%, 55%)" stop-opacity="1" offset="0%"></stop><stop stop-color="hsl(0, 73%, 55%)" stop-opacity="1" offset="100%"></stop></linearGradient></defs><g stroke-width="14.5" stroke="url(#oooscillate-grad)" fill="none" stroke-linecap="round"><path d="M 0 1364 Q 355.5 115 711 400 Q 1066.5 685 1422 1364" opacity="0.23"></path><path d="M 0 1342 Q 355.5 115 711 400 Q 1066.5 685 1422 1342" opacity="0.55"></path><path d="M 0 1320 Q 355.5 115 711 400 Q 1066.5 685 1422 1320" opacity="0.31"></path><path d="M 0 1298 Q 355.5 115 711 400 Q 1066.5 685 1422 1298" opacity="0.36"></path><path d="M 0 1276 Q 355.5 115 711 400 Q 1066.5 685 1422 1276" opacity="0.24"></path><path d="M 0 1254 Q 355.5 115 711 400 Q 1066.5 685 1422 1254" opacity="0.54"></path><path d="M 0 1232 Q 355.5 115 711 400 Q 1066.5 685 1422 1232" opacity="0.35"></path><path d="M 0 1210 Q 355.5 115 711 400 Q 1066.5 685 1422 1210" opacity="0.82"></path><path d="M 0 1188 Q 355.5 115 711 400 Q 1066.5 685 1422 1188" opacity="0.70"></path><path d="M 0 1166 Q 355.5 115 711 400 Q 1066.5 685 1422 1166" opacity="0.09"></path><path d="M 0 1144 Q 355.5 115 711 400 Q 1066.5 685 1422 1144" opacity="0.87"></path><path d="M 0 1122 Q 355.5 115 711 400 Q 1066.5 685 1422 1122" opacity="1.00"></path><path d="M 0 1100 Q 355.5 115 711 400 Q 1066.5 685 1422 1100" opacity="0.33"></path><path d="M 0 1078 Q 355.5 115 711 400 Q 1066.5 685 1422 1078" opacity="0.72"></path><path d="M 0 1056 Q 355.5 115 711 400 Q 1066.5 685 1422 1056" opacity="0.47"></path><path d="M 0 1034 Q 355.5 115 711 400 Q 1066.5 685 1422 1034" opacity="0.41"></path><path d="M 0 1012 Q 355.5 115 711 400 Q 1066.5 685 1422 1012" opacity="0.16"></path><path d="M 0 990 Q 355.5 115 711 400 Q 1066.5 685 1422 990" opacity="0.46"></path><path d="M 0 968 Q 355.5 115 711 400 Q 1066.5 685 1422 968" opacity="0.11"></path><path d="M 0 946 Q 355.5 115 711 400 Q 1066.5 685 1422 946" opacity="0.32"></path><path d="M 0 924 Q 355.5 115 711 400 Q 1066.5 685 1422 924" opacity="0.40"></path><path d="M 0 902 Q 355.5 115 711 400 Q 1066.5 685 1422 902" opacity="0.79"></path><path d="M 0 880 Q 355.5 115 711 400 Q 1066.5 685 1422 880" opacity="0.27"></path><path d="M 0 858 Q 355.5 115 711 400 Q 1066.5 685 1422 858" opacity="0.25"></path><path d="M 0 836 Q 355.5 115 711 400 Q 1066.5 685 1422 836" opacity="0.23"></path><path d="M 0 814 Q 355.5 115 711 400 Q 1066.5 685 1422 814" opacity="0.24"></path><path d="M 0 792 Q 355.5 115 711 400 Q 1066.5 685 1422 792" opacity="0.90"></path><path d="M 0 770 Q 355.5 115 711 400 Q 1066.5 685 1422 770" opacity="0.30"></path><path d="M 0 748 Q 355.5 115 711 400 Q 1066.5 685 1422 748" opacity="0.34"></path><path d="M 0 726 Q 355.5 115 711 400 Q 1066.5 685 1422 726" opacity="0.46"></path><path d="M 0 704 Q 355.5 115 711 400 Q 1066.5 685 1422 704" opacity="0.79"></path><path d="M 0 682 Q 355.5 115 711 400 Q 1066.5 685 1422 682" opacity="0.34"></path><path d="M 0 660 Q 355.5 115 711 400 Q 1066.5 685 1422 660" opacity="0.38"></path><path d="M 0 638 Q 355.5 115 711 400 Q 1066.5 685 1422 638" opacity="0.48"></path><path d="M 0 616 Q 355.5 115 711 400 Q 1066.5 685 1422 616" opacity="0.29"></path><path d="M 0 594 Q 355.5 115 711 400 Q 1066.5 685 1422 594" opacity="0.48"></path><path d="M 0 572 Q 355.5 115 711 400 Q 1066.5 685 1422 572" opacity="0.56"></path><path d="M 0 550 Q 355.5 115 711 400 Q 1066.5 685 1422 550" opacity="0.94"></path><path d="M 0 528 Q 355.5 115 711 400 Q 1066.5 685 1422 528" opacity="0.65"></path><path d="M 0 506 Q 355.5 115 711 400 Q 1066.5 685 1422 506" opacity="0.62"></path><path d="M 0 484 Q 355.5 115 711 400 Q 1066.5 685 1422 484" opacity="0.77"></path><path d="M 0 462 Q 355.5 115 711 400 Q 1066.5 685 1422 462" opacity="0.94"></path><path d="M 0 440 Q 355.5 115 711 400 Q 1066.5 685 1422 440" opacity="0.88"></path><path d="M 0 418 Q 355.5 115 711 400 Q 1066.5 685 1422 418" opacity="0.16"></path><path d="M 0 396 Q 355.5 115 711 400 Q 1066.5 685 1422 396" opacity="0.86"></path><path d="M 0 374 Q 355.5 115 711 400 Q 1066.5 685 1422 374" opacity="0.20"></path><path d="M 0 352 Q 355.5 115 711 400 Q 1066.5 685 1422 352" opacity="0.71"></path><path d="M 0 330 Q 355.5 115 711 400 Q 1066.5 685 1422 330" opacity="0.10"></path><path d="M 0 308 Q 355.5 115 711 400 Q 1066.5 685 1422 308" opacity="0.61"></path><path d="M 0 286 Q 355.5 115 711 400 Q 1066.5 685 1422 286" opacity="0.59"></path><path d="M 0 264 Q 355.5 115 711 400 Q 1066.5 685 1422 264" opacity="0.15"></path><path d="M 0 242 Q 355.5 115 711 400 Q 1066.5 685 1422 242" opacity="0.43"></path><path d="M 0 220 Q 355.5 115 711 400 Q 1066.5 685 1422 220" opacity="0.63"></path><path d="M 0 198 Q 355.5 115 711 400 Q 1066.5 685 1422 198" opacity="0.99"></path><path d="M 0 176 Q 355.5 115 711 400 Q 1066.5 685 1422 176" opacity="0.30"></path><path d="M 0 154 Q 355.5 115 711 400 Q 1066.5 685 1422 154" opacity="0.63"></path><path d="M 0 132 Q 355.5 115 711 400 Q 1066.5 685 1422 132" opacity="0.37"></path><path d="M 0 110 Q 355.5 115 711 400 Q 1066.5 685 1422 110" opacity="0.46"></path><path d="M 0 88 Q 355.5 115 711 400 Q 1066.5 685 1422 88" opacity="0.90"></path><path d="M 0 66 Q 355.5 115 711 400 Q 1066.5 685 1422 66" opacity="0.07"></path><path d="M 0 44 Q 355.5 115 711 400 Q 1066.5 685 1422 44" opacity="0.69"></path></g></svg>