<svg id="visual" viewBox="0 0 3840 2160" width="3840" height="2160" xmlns="http://www.w3.org/2000/svg" xmlns:xlink="http://www.w3.org/1999/xlink" version="1.1"><path d="M0 109L167 131L334 109L501 131L668 152L835 131L1002 109L1169 109L1336 109L1503 131L1670 131L1837 131L2003 152L2170 131L2337 152L2504 131L2671 131L2838 109L3005 109L3172 131L3339 109L3506 109L3673 152L3840 131L3840 0L3673 0L3506 0L3339 0L3172 0L3005 0L2838 0L2671 0L2504 0L2337 0L2170 0L2003 0L1837 0L1670 0L1503 0L1336 0L1169 0L1002 0L835 0L668 0L501 0L334 0L167 0L0 0Z" fill="#e2c0ff"></path><path d="M0 692L167 692L334 671L501 714L668 606L835 563L1002 584L1169 541L1336 692L1503 606L1670 584L1837 606L2003 692L2170 649L2337 627L2504 671L2671 671L2838 584L3005 714L3172 757L3339 627L3506 692L3673 627L3840 627L3840 129L3673 150L3506 107L3339 107L3172 129L3005 107L2838 107L2671 129L2504 129L2337 150L2170 129L2003 150L1837 129L1670 129L1503 129L1336 107L1169 107L1002 107L835 129L668 150L501 129L334 107L167 129L0 107Z" fill="#ecabeb"></path><path d="M0 887L167 887L334 800L501 843L668 735L835 757L1002 735L1169 714L1336 887L1503 735L1670 779L1837 735L2003 887L2170 843L2337 800L2504 843L2671 865L2838 757L3005 908L3172 908L3339 800L3506 887L3673 822L3840 822L3840 625L3673 625L3506 690L3339 625L3172 755L3005 712L2838 582L2671 669L2504 669L2337 625L2170 647L2003 690L1837 604L1670 582L1503 604L1336 690L1169 539L1002 582L835 561L668 604L501 712L334 669L167 690L0 690Z" fill="#f596d0"></path><path d="M0 1297L167 1297L334 1254L501 1254L668 1340L835 1297L1002 1232L1169 1211L1336 1254L1503 1340L1670 1297L1837 1275L2003 1319L2170 1275L2337 1340L2504 1362L2671 1362L2838 1232L3005 1297L3172 1319L3339 1189L3506 1340L3673 1275L3840 1297L3840 820L3673 820L3506 885L3339 798L3172 906L3005 906L2838 755L2671 863L2504 841L2337 798L2170 841L2003 885L1837 733L1670 777L1503 733L1336 885L1169 712L1002 733L835 755L668 733L501 841L334 798L167 885L0 885Z" fill="#fa81b0"></path><path d="M0 1427L167 1427L334 1427L501 1405L668 1513L835 1448L1002 1405L1169 1362L1336 1383L1503 1491L1670 1427L1837 1448L2003 1470L2170 1427L2337 1470L2504 1491L2671 1535L2838 1362L3005 1448L3172 1470L3339 1362L3506 1470L3673 1448L3840 1427L3840 1295L3673 1273L3506 1338L3339 1187L3172 1317L3005 1295L2838 1230L2671 1360L2504 1360L2337 1338L2170 1273L2003 1317L1837 1273L1670 1295L1503 1338L1336 1252L1169 1209L1002 1230L835 1295L668 1338L501 1252L334 1252L167 1295L0 1295Z" fill="#f96e8b"></path><path d="M0 1707L167 1729L334 1729L501 1772L668 1772L835 1729L1002 1772L1169 1686L1336 1729L1503 1751L1670 1729L1837 1707L2003 1815L2170 1794L2337 1794L2504 1751L2671 1815L2838 1729L3005 1729L3172 1729L3339 1686L3506 1794L3673 1729L3840 1751L3840 1425L3673 1446L3506 1468L3339 1360L3172 1468L3005 1446L2838 1360L2671 1533L2504 1489L2337 1468L2170 1425L2003 1468L1837 1446L1670 1425L1503 1489L1336 1381L1169 1360L1002 1403L835 1446L668 1511L501 1403L334 1425L167 1425L0 1425Z" fill="#f06163"></path><path d="M0 1902L167 1945L334 1902L501 1945L668 1967L835 1923L1002 1967L1169 1923L1336 1967L1503 1923L1670 1923L1837 1945L2003 1967L2170 1967L2337 1967L2504 1923L2671 1967L2838 1923L3005 1923L3172 1967L3339 1902L3506 1967L3673 1923L3840 1923L3840 1749L3673 1727L3506 1792L3339 1684L3172 1727L3005 1727L2838 1727L2671 1813L2504 1749L2337 1792L2170 1792L2003 1813L1837 1705L1670 1727L1503 1749L1336 1727L1169 1684L1002 1770L835 1727L668 1770L501 1770L334 1727L167 1727L0 1705Z" fill="#df5a3a"></path><path d="M0 2161L167 2161L334 2161L501 2161L668 2161L835 2161L1002 2161L1169 2161L1336 2161L1503 2161L1670 2161L1837 2161L2003 2161L2170 2161L2337 2161L2504 2161L2671 2161L2838 2161L3005 2161L3172 2161L3339 2161L3506 2161L3673 2161L3840 2161L3840 1921L3673 1921L3506 1965L3339 1900L3172 1965L3005 1921L2838 1921L2671 1965L2504 1921L2337 1965L2170 1965L2003 1965L1837 1943L1670 1921L1503 1921L1336 1965L1169 1921L1002 1965L835 1921L668 1965L501 1943L334 1900L167 1943L0 1900Z" fill="#c65900"></path></svg>