<svg id="visual" viewBox="0 0 3840 2160" width="3840" height="2160" xmlns="http://www.w3.org/2000/svg" xmlns:xlink="http://www.w3.org/1999/xlink" version="1.1"><g stroke-width="1" stroke-linejoin="bevel"><path d="M1991 1177L2051 949L1777 975Z" fill="#630025" stroke="#630025"></path><path d="M1777 975L1742 1211L1991 1177Z" fill="#9e0052" stroke="#9e0052"></path><path d="M2051 949L1830 691L1777 975Z" fill="#ff65a3" stroke="#ff65a3"></path><path d="M1574 932L1588 1141L1777 975Z" fill="#9e0052" stroke="#9e0052"></path><path d="M1777 975L1588 1141L1742 1211Z" fill="#770033" stroke="#770033"></path><path d="M1991 1177L2270 985L2051 949Z" fill="#500018" stroke="#500018"></path><path d="M2051 949L2251 751L2057 724Z" fill="#c43271" stroke="#c43271"></path><path d="M2057 724L1830 691L2051 949Z" fill="#9e0052" stroke="#9e0052"></path><path d="M1830 691L1574 932L1777 975Z" fill="#500018" stroke="#500018"></path><path d="M1528 1463L1817 1388L1742 1211Z" fill="#770033" stroke="#770033"></path><path d="M1742 1211L1817 1388L1991 1177Z" fill="#630025" stroke="#630025"></path><path d="M1991 1177L2287 1202L2270 985Z" fill="#630025" stroke="#630025"></path><path d="M2106 1414L2287 1202L1991 1177Z" fill="#ff65a3" stroke="#ff65a3"></path><path d="M1817 1388L2106 1414L1991 1177Z" fill="#d84481" stroke="#d84481"></path><path d="M2270 985L2251 751L2051 949Z" fill="#c43271" stroke="#c43271"></path><path d="M2057 724L2028 511L1830 691Z" fill="#d84481" stroke="#d84481"></path><path d="M2068 1710L2264 1443L2106 1414Z" fill="#630025" stroke="#630025"></path><path d="M2106 1414L2264 1443L2287 1202Z" fill="#500018" stroke="#500018"></path><path d="M2249 473L2028 511L2057 724Z" fill="#d84481" stroke="#d84481"></path><path d="M1534 511L1491 693L1830 691Z" fill="#d84481" stroke="#d84481"></path><path d="M1830 691L1491 693L1574 932Z" fill="#c43271" stroke="#c43271"></path><path d="M1244 1015L1297 1256L1588 1141Z" fill="#630025" stroke="#630025"></path><path d="M2028 511L1755 484L1830 691Z" fill="#770033" stroke="#770033"></path><path d="M1297 1256L1528 1463L1588 1141Z" fill="#c43271" stroke="#c43271"></path><path d="M1588 1141L1528 1463L1742 1211Z" fill="#500018" stroke="#500018"></path><path d="M1817 1388L2068 1710L2106 1414Z" fill="#c43271" stroke="#c43271"></path><path d="M2523 1215L2512 931L2270 985Z" fill="#b11e61" stroke="#b11e61"></path><path d="M2270 985L2512 931L2251 751Z" fill="#770033" stroke="#770033"></path><path d="M2251 751L2249 473L2057 724Z" fill="#eb5492" stroke="#eb5492"></path><path d="M2523 1215L2270 985L2287 1202Z" fill="#770033" stroke="#770033"></path><path d="M2264 1443L2523 1215L2287 1202Z" fill="#500018" stroke="#500018"></path><path d="M2554 500L2249 473L2251 751Z" fill="#9e0052" stroke="#9e0052"></path><path d="M2028 511L1734 291L1755 484Z" fill="#d84481" stroke="#d84481"></path><path d="M1755 484L1534 511L1830 691Z" fill="#d84481" stroke="#d84481"></path><path d="M1234 500L1321 760L1491 693Z" fill="#9e0052" stroke="#9e0052"></path><path d="M1491 693L1321 760L1574 932Z" fill="#9e0052" stroke="#9e0052"></path><path d="M1244 1015L1588 1141L1574 932Z" fill="#770033" stroke="#770033"></path><path d="M1321 760L1244 1015L1574 932Z" fill="#b11e61" stroke="#b11e61"></path><path d="M1525 1727L1790 1712L1528 1463Z" fill="#b11e61" stroke="#b11e61"></path><path d="M1528 1463L1790 1712L1817 1388Z" fill="#b11e61" stroke="#b11e61"></path><path d="M1790 1712L2068 1710L1817 1388Z" fill="#ff65a3" stroke="#ff65a3"></path><path d="M2264 1443L2570 1463L2523 1215Z" fill="#500018" stroke="#500018"></path><path d="M1062 1410L1315 1427L1297 1256Z" fill="#500018" stroke="#500018"></path><path d="M1297 1256L1315 1427L1528 1463Z" fill="#8a0042" stroke="#8a0042"></path><path d="M2068 1710L2283 1682L2264 1443Z" fill="#ff65a3" stroke="#ff65a3"></path><path d="M2761 779L2599 694L2512 931Z" fill="#eb5492" stroke="#eb5492"></path><path d="M2512 931L2599 694L2251 751Z" fill="#770033" stroke="#770033"></path><path d="M2082 191L1734 291L2028 511Z" fill="#000000" stroke="#000000"></path><path d="M1755 484L1734 291L1534 511Z" fill="#d84481" stroke="#d84481"></path><path d="M2283 1682L2570 1463L2264 1443Z" fill="#ff65a3" stroke="#ff65a3"></path><path d="M2523 1215L2771 990L2512 931Z" fill="#ff65a3" stroke="#ff65a3"></path><path d="M1315 1427L1525 1727L1528 1463Z" fill="#9e0052" stroke="#9e0052"></path><path d="M1790 1712L2052 1879L2068 1710Z" fill="#eb5492" stroke="#eb5492"></path><path d="M2599 694L2554 500L2251 751Z" fill="#630025" stroke="#630025"></path><path d="M2249 473L2082 191L2028 511Z" fill="#630025" stroke="#630025"></path><path d="M1525 1727L1762 1866L1790 1712Z" fill="#8a0042" stroke="#8a0042"></path><path d="M2068 1710L2052 1879L2283 1682Z" fill="#d84481" stroke="#d84481"></path><path d="M2868 1185L2771 990L2523 1215Z" fill="#9e0052" stroke="#9e0052"></path><path d="M2599 694L2845 526L2554 500Z" fill="#c43271" stroke="#c43271"></path><path d="M1762 1866L2052 1879L1790 1712Z" fill="#8a0042" stroke="#8a0042"></path><path d="M2283 1682L2612 1640L2570 1463Z" fill="#630025" stroke="#630025"></path><path d="M2350 214L2082 191L2249 473Z" fill="#ff65a3" stroke="#ff65a3"></path><path d="M1534 511L1234 500L1491 693Z" fill="#eb5492" stroke="#eb5492"></path><path d="M1066 763L1032 966L1244 1015Z" fill="#9e0052" stroke="#9e0052"></path><path d="M1477 261L1234 500L1534 511Z" fill="#630025" stroke="#630025"></path><path d="M1032 966L1061 1193L1244 1015Z" fill="#500018" stroke="#500018"></path><path d="M1244 1015L1061 1193L1297 1256Z" fill="#500018" stroke="#500018"></path><path d="M1315 1427L1256 1728L1525 1727Z" fill="#c43271" stroke="#c43271"></path><path d="M2771 990L2761 779L2512 931Z" fill="#c43271" stroke="#c43271"></path><path d="M1066 763L1244 1015L1321 760Z" fill="#770033" stroke="#770033"></path><path d="M1541 0L1477 261L1734 291Z" fill="#770033" stroke="#770033"></path><path d="M1734 291L1477 261L1534 511Z" fill="#b11e61" stroke="#b11e61"></path><path d="M1234 500L1066 763L1321 760Z" fill="#8a0042" stroke="#8a0042"></path><path d="M2589 1939L2612 1640L2283 1682Z" fill="#500018" stroke="#500018"></path><path d="M2812 1400L2868 1185L2523 1215Z" fill="#500018" stroke="#500018"></path><path d="M2550 284L2249 473L2554 500Z" fill="#770033" stroke="#770033"></path><path d="M2550 284L2350 214L2249 473Z" fill="#000000" stroke="#000000"></path><path d="M812 1153L1062 1410L1061 1193Z" fill="#630025" stroke="#630025"></path><path d="M1061 1193L1062 1410L1297 1256Z" fill="#9e0052" stroke="#9e0052"></path><path d="M2812 1400L2523 1215L2570 1463Z" fill="#000000" stroke="#000000"></path><path d="M2771 990L3039 906L2761 779Z" fill="#c43271" stroke="#c43271"></path><path d="M1062 1410L1256 1728L1315 1427Z" fill="#500018" stroke="#500018"></path><path d="M1525 1727L1503 1938L1762 1866Z" fill="#500018" stroke="#500018"></path><path d="M2612 1640L2812 1400L2570 1463Z" fill="#c43271" stroke="#c43271"></path><path d="M2845 526L2550 284L2554 500Z" fill="#d84481" stroke="#d84481"></path><path d="M1293 1877L1503 1938L1525 1727Z" fill="#eb5492" stroke="#eb5492"></path><path d="M1736 2160L2086 2160L2052 1879Z" fill="#eb5492" stroke="#eb5492"></path><path d="M1477 261L1308 251L1234 500Z" fill="#eb5492" stroke="#eb5492"></path><path d="M1234 500L1011 491L1066 763Z" fill="#500018" stroke="#500018"></path><path d="M1264 0L1308 251L1477 261Z" fill="#8a0042" stroke="#8a0042"></path><path d="M2052 1879L2297 1968L2283 1682Z" fill="#770033" stroke="#770033"></path><path d="M2086 2160L2297 1968L2052 1879Z" fill="#c43271" stroke="#c43271"></path><path d="M2108 0L1844 0L2082 191Z" fill="#000000" stroke="#000000"></path><path d="M2082 191L1844 0L1734 291Z" fill="#500018" stroke="#500018"></path><path d="M2108 0L2082 191L2279 0Z" fill="#8a0042" stroke="#8a0042"></path><path d="M978 1885L1293 1877L1256 1728Z" fill="#ff65a3" stroke="#ff65a3"></path><path d="M1256 1728L1293 1877L1525 1727Z" fill="#eb5492" stroke="#eb5492"></path><path d="M2279 0L2082 191L2350 214Z" fill="#770033" stroke="#770033"></path><path d="M3018 694L2845 526L2761 779Z" fill="#630025" stroke="#630025"></path><path d="M2761 779L2845 526L2599 694Z" fill="#d84481" stroke="#d84481"></path><path d="M1308 251L1011 491L1234 500Z" fill="#000000" stroke="#000000"></path><path d="M1066 763L828 945L1032 966Z" fill="#b11e61" stroke="#b11e61"></path><path d="M2612 1640L2803 1679L2812 1400Z" fill="#770033" stroke="#770033"></path><path d="M2812 1400L3025 1200L2868 1185Z" fill="#8a0042" stroke="#8a0042"></path><path d="M2589 1939L2803 1679L2612 1640Z" fill="#b11e61" stroke="#b11e61"></path><path d="M2591 0L2350 214L2550 284Z" fill="#770033" stroke="#770033"></path><path d="M2591 0L2279 0L2350 214Z" fill="#000000" stroke="#000000"></path><path d="M814 717L828 945L1066 763Z" fill="#d84481" stroke="#d84481"></path><path d="M1032 966L812 1153L1061 1193Z" fill="#d84481" stroke="#d84481"></path><path d="M1062 1410L1026 1684L1256 1728Z" fill="#8a0042" stroke="#8a0042"></path><path d="M1844 0L1541 0L1734 291Z" fill="#ff65a3" stroke="#ff65a3"></path><path d="M1308 251L987 186L1011 491Z" fill="#d84481" stroke="#d84481"></path><path d="M750 1465L1026 1684L1062 1410Z" fill="#eb5492" stroke="#eb5492"></path><path d="M828 945L812 1153L1032 966Z" fill="#9e0052" stroke="#9e0052"></path><path d="M3051 1433L3025 1200L2812 1400Z" fill="#b11e61" stroke="#b11e61"></path><path d="M2868 1185L3039 906L2771 990Z" fill="#8a0042" stroke="#8a0042"></path><path d="M2297 1968L2589 1939L2283 1682Z" fill="#770033" stroke="#770033"></path><path d="M3025 1200L3039 906L2868 1185Z" fill="#500018" stroke="#500018"></path><path d="M1736 2160L1762 1866L1503 1938Z" fill="#c43271" stroke="#c43271"></path><path d="M1736 2160L2052 1879L1762 1866Z" fill="#c43271" stroke="#c43271"></path><path d="M2297 1968L2611 2160L2589 1939Z" fill="#8a0042" stroke="#8a0042"></path><path d="M1580 2160L1736 2160L1503 1938Z" fill="#d84481" stroke="#d84481"></path><path d="M3039 906L3018 694L2761 779Z" fill="#770033" stroke="#770033"></path><path d="M1011 491L814 717L1066 763Z" fill="#630025" stroke="#630025"></path><path d="M477 1015L537 1186L812 1153Z" fill="#630025" stroke="#630025"></path><path d="M1312 2160L1580 2160L1503 1938Z" fill="#eb5492" stroke="#eb5492"></path><path d="M1312 2160L1503 1938L1293 1877Z" fill="#ff65a3" stroke="#ff65a3"></path><path d="M2086 2160L2266 2160L2297 1968Z" fill="#8a0042" stroke="#8a0042"></path><path d="M3117 1697L3051 1433L2803 1679Z" fill="#c43271" stroke="#c43271"></path><path d="M2803 1679L3051 1433L2812 1400Z" fill="#8a0042" stroke="#8a0042"></path><path d="M3025 1200L3291 1012L3039 906Z" fill="#770033" stroke="#770033"></path><path d="M2845 526L2797 211L2550 284Z" fill="#ff65a3" stroke="#ff65a3"></path><path d="M3028 298L2797 211L2845 526Z" fill="#630025" stroke="#630025"></path><path d="M1541 0L1264 0L1477 261Z" fill="#8a0042" stroke="#8a0042"></path><path d="M1011 491L721 490L814 717Z" fill="#eb5492" stroke="#eb5492"></path><path d="M2797 211L2591 0L2550 284Z" fill="#c43271" stroke="#c43271"></path><path d="M537 1186L750 1465L812 1153Z" fill="#8a0042" stroke="#8a0042"></path><path d="M812 1153L750 1465L1062 1410Z" fill="#000000" stroke="#000000"></path><path d="M1026 1684L978 1885L1256 1728Z" fill="#eb5492" stroke="#eb5492"></path><path d="M1264 0L987 186L1308 251Z" fill="#000000" stroke="#000000"></path><path d="M777 1676L978 1885L1026 1684Z" fill="#000000" stroke="#000000"></path><path d="M3339 704L3040 431L3018 694Z" fill="#000000" stroke="#000000"></path><path d="M3018 694L3040 431L2845 526Z" fill="#d84481" stroke="#d84481"></path><path d="M2797 211L2795 0L2591 0Z" fill="#000000" stroke="#000000"></path><path d="M3339 704L3018 694L3039 906Z" fill="#630025" stroke="#630025"></path><path d="M997 2160L1312 2160L1293 1877Z" fill="#b11e61" stroke="#b11e61"></path><path d="M2611 2160L2830 1936L2589 1939Z" fill="#9e0052" stroke="#9e0052"></path><path d="M2589 1939L2830 1936L2803 1679Z" fill="#630025" stroke="#630025"></path><path d="M750 1465L777 1676L1026 1684Z" fill="#500018" stroke="#500018"></path><path d="M2266 2160L2611 2160L2297 1968Z" fill="#9e0052" stroke="#9e0052"></path><path d="M754 208L721 490L1011 491Z" fill="#c43271" stroke="#c43271"></path><path d="M477 1015L812 1153L828 945Z" fill="#eb5492" stroke="#eb5492"></path><path d="M3040 431L3028 298L2845 526Z" fill="#d84481" stroke="#d84481"></path><path d="M3088 0L2795 0L2797 211Z" fill="#c43271" stroke="#c43271"></path><path d="M3031 1958L3117 1697L2803 1679Z" fill="#ff65a3" stroke="#ff65a3"></path><path d="M3283 1221L3291 1012L3025 1200Z" fill="#c43271" stroke="#c43271"></path><path d="M3031 1958L2803 1679L2830 1936Z" fill="#9e0052" stroke="#9e0052"></path><path d="M3283 1221L3025 1200L3051 1433Z" fill="#ff65a3" stroke="#ff65a3"></path><path d="M3040 431L3347 445L3028 298Z" fill="#770033" stroke="#770033"></path><path d="M1264 0L1022 0L987 186Z" fill="#630025" stroke="#630025"></path><path d="M987 186L754 208L1011 491Z" fill="#500018" stroke="#500018"></path><path d="M3330 1419L3283 1221L3051 1433Z" fill="#630025" stroke="#630025"></path><path d="M537 693L828 945L814 717Z" fill="#c43271" stroke="#c43271"></path><path d="M750 1465L488 1646L777 1676Z" fill="#630025" stroke="#630025"></path><path d="M502 525L537 693L721 490Z" fill="#eb5492" stroke="#eb5492"></path><path d="M721 490L537 693L814 717Z" fill="#770033" stroke="#770033"></path><path d="M819 0L754 208L987 186Z" fill="#d84481" stroke="#d84481"></path><path d="M501 1892L801 1940L777 1676Z" fill="#500018" stroke="#500018"></path><path d="M777 1676L801 1940L978 1885Z" fill="#000000" stroke="#000000"></path><path d="M978 1885L997 2160L1293 1877Z" fill="#770033" stroke="#770033"></path><path d="M2859 2160L3031 1958L2830 1936Z" fill="#9e0052" stroke="#9e0052"></path><path d="M3117 1697L3330 1419L3051 1433Z" fill="#b11e61" stroke="#b11e61"></path><path d="M537 693L477 1015L828 945Z" fill="#eb5492" stroke="#eb5492"></path><path d="M537 1186L475 1403L750 1465Z" fill="#000000" stroke="#000000"></path><path d="M801 1940L997 2160L978 1885Z" fill="#000000" stroke="#000000"></path><path d="M3291 1012L3339 704L3039 906Z" fill="#c43271" stroke="#c43271"></path><path d="M3531 902L3339 704L3291 1012Z" fill="#000000" stroke="#000000"></path><path d="M3324 1668L3330 1419L3117 1697Z" fill="#c43271" stroke="#c43271"></path><path d="M3539 1154L3531 902L3291 1012Z" fill="#8a0042" stroke="#8a0042"></path><path d="M2611 2160L2859 2160L2830 1936Z" fill="#8a0042" stroke="#8a0042"></path><path d="M307 1165L475 1403L537 1186Z" fill="#500018" stroke="#500018"></path><path d="M537 693L311 965L477 1015Z" fill="#000000" stroke="#000000"></path><path d="M539 244L502 525L721 490Z" fill="#9e0052" stroke="#9e0052"></path><path d="M1022 0L819 0L987 186Z" fill="#770033" stroke="#770033"></path><path d="M754 208L539 244L721 490Z" fill="#d84481" stroke="#d84481"></path><path d="M3276 1905L3117 1697L3031 1958Z" fill="#c43271" stroke="#c43271"></path><path d="M3276 1905L3324 1668L3117 1697Z" fill="#ff65a3" stroke="#ff65a3"></path><path d="M3551 450L3347 445L3339 704Z" fill="#8a0042" stroke="#8a0042"></path><path d="M3339 704L3347 445L3040 431Z" fill="#770033" stroke="#770033"></path><path d="M3028 298L3088 0L2797 211Z" fill="#500018" stroke="#500018"></path><path d="M475 1403L488 1646L750 1465Z" fill="#ff65a3" stroke="#ff65a3"></path><path d="M801 1940L791 2160L997 2160Z" fill="#b11e61" stroke="#b11e61"></path><path d="M3364 243L3088 0L3028 298Z" fill="#500018" stroke="#500018"></path><path d="M520 0L539 244L754 208Z" fill="#eb5492" stroke="#eb5492"></path><path d="M561 2160L791 2160L801 1940Z" fill="#b11e61" stroke="#b11e61"></path><path d="M3101 2160L3276 1905L3031 1958Z" fill="#500018" stroke="#500018"></path><path d="M243 779L537 693L502 525Z" fill="#8a0042" stroke="#8a0042"></path><path d="M243 779L311 965L537 693Z" fill="#c43271" stroke="#c43271"></path><path d="M477 1015L307 1165L537 1186Z" fill="#b11e61" stroke="#b11e61"></path><path d="M475 1403L195 1416L488 1646Z" fill="#ff65a3" stroke="#ff65a3"></path><path d="M3539 1154L3330 1419L3576 1412Z" fill="#000000" stroke="#000000"></path><path d="M3539 1154L3283 1221L3330 1419Z" fill="#770033" stroke="#770033"></path><path d="M3539 1154L3291 1012L3283 1221Z" fill="#000000" stroke="#000000"></path><path d="M311 965L307 1165L477 1015Z" fill="#c43271" stroke="#c43271"></path><path d="M3576 1412L3330 1419L3324 1668Z" fill="#630025" stroke="#630025"></path><path d="M2859 2160L3101 2160L3031 1958Z" fill="#770033" stroke="#770033"></path><path d="M3551 450L3364 243L3347 445Z" fill="#c43271" stroke="#c43271"></path><path d="M3347 445L3364 243L3028 298Z" fill="#d84481" stroke="#d84481"></path><path d="M3840 720L3547 744L3531 902Z" fill="#770033" stroke="#770033"></path><path d="M3531 902L3547 744L3339 704Z" fill="#c43271" stroke="#c43271"></path><path d="M488 1646L501 1892L777 1676Z" fill="#770033" stroke="#770033"></path><path d="M212 1885L501 1892L488 1646Z" fill="#630025" stroke="#630025"></path><path d="M3608 1672L3576 1412L3324 1668Z" fill="#d84481" stroke="#d84481"></path><path d="M3539 1154L3840 986L3531 902Z" fill="#9e0052" stroke="#9e0052"></path><path d="M208 493L243 779L502 525Z" fill="#630025" stroke="#630025"></path><path d="M311 965L0 925L307 1165Z" fill="#ff65a3" stroke="#ff65a3"></path><path d="M3547 744L3551 450L3339 704Z" fill="#d84481" stroke="#d84481"></path><path d="M3581 218L3551 450L3840 471Z" fill="#c43271" stroke="#c43271"></path><path d="M819 0L520 0L754 208Z" fill="#ff65a3" stroke="#ff65a3"></path><path d="M252 230L208 493L502 525Z" fill="#9e0052" stroke="#9e0052"></path><path d="M3581 218L3341 0L3364 243Z" fill="#9e0052" stroke="#9e0052"></path><path d="M3364 243L3341 0L3088 0Z" fill="#8a0042" stroke="#8a0042"></path><path d="M207 2160L561 2160L501 1892Z" fill="#770033" stroke="#770033"></path><path d="M501 1892L561 2160L801 1940Z" fill="#500018" stroke="#500018"></path><path d="M0 1244L195 1416L307 1165Z" fill="#b11e61" stroke="#b11e61"></path><path d="M307 1165L195 1416L475 1403Z" fill="#500018" stroke="#500018"></path><path d="M252 230L502 525L539 244Z" fill="#c43271" stroke="#c43271"></path><path d="M243 779L0 925L311 965Z" fill="#ff65a3" stroke="#ff65a3"></path><path d="M3557 1906L3608 1672L3324 1668Z" fill="#eb5492" stroke="#eb5492"></path><path d="M3840 720L3551 450L3547 744Z" fill="#b11e61" stroke="#b11e61"></path><path d="M3557 1906L3324 1668L3276 1905Z" fill="#770033" stroke="#770033"></path><path d="M3101 2160L3332 2160L3276 1905Z" fill="#770033" stroke="#770033"></path><path d="M195 1416L198 1686L488 1646Z" fill="#eb5492" stroke="#eb5492"></path><path d="M3840 986L3539 1154L3840 1226Z" fill="#d84481" stroke="#d84481"></path><path d="M3551 450L3581 218L3364 243Z" fill="#b11e61" stroke="#b11e61"></path><path d="M3332 2160L3557 1906L3276 1905Z" fill="#8a0042" stroke="#8a0042"></path><path d="M520 0L252 230L539 244Z" fill="#d84481" stroke="#d84481"></path><path d="M198 1686L212 1885L488 1646Z" fill="#000000" stroke="#000000"></path><path d="M3840 1226L3576 1412L3840 1447Z" fill="#000000" stroke="#000000"></path><path d="M3840 1226L3539 1154L3576 1412Z" fill="#d84481" stroke="#d84481"></path><path d="M0 736L243 779L208 493Z" fill="#eb5492" stroke="#eb5492"></path><path d="M0 736L0 925L243 779Z" fill="#ff65a3" stroke="#ff65a3"></path><path d="M195 1416L0 1420L198 1686Z" fill="#500018" stroke="#500018"></path><path d="M198 1686L0 1728L212 1885Z" fill="#500018" stroke="#500018"></path><path d="M3840 1447L3576 1412L3608 1672Z" fill="#eb5492" stroke="#eb5492"></path><path d="M0 925L0 1244L307 1165Z" fill="#8a0042" stroke="#8a0042"></path><path d="M0 534L0 736L208 493Z" fill="#630025" stroke="#630025"></path><path d="M3840 986L3840 720L3531 902Z" fill="#d84481" stroke="#d84481"></path><path d="M520 0L269 0L252 230Z" fill="#eb5492" stroke="#eb5492"></path><path d="M0 251L0 534L208 493Z" fill="#630025" stroke="#630025"></path><path d="M0 1244L0 1420L195 1416Z" fill="#630025" stroke="#630025"></path><path d="M3840 1740L3840 1447L3608 1672Z" fill="#770033" stroke="#770033"></path><path d="M3332 2160L3555 2160L3557 1906Z" fill="#b11e61" stroke="#b11e61"></path><path d="M3557 1906L3840 1740L3608 1672Z" fill="#eb5492" stroke="#eb5492"></path><path d="M0 251L208 493L252 230Z" fill="#8a0042" stroke="#8a0042"></path><path d="M3840 190L3616 0L3581 218Z" fill="#8a0042" stroke="#8a0042"></path><path d="M3581 218L3616 0L3341 0Z" fill="#c43271" stroke="#c43271"></path><path d="M3840 720L3840 471L3551 450Z" fill="#c43271" stroke="#c43271"></path><path d="M0 1420L0 1728L198 1686Z" fill="#b11e61" stroke="#b11e61"></path><path d="M212 1885L207 2160L501 1892Z" fill="#ff65a3" stroke="#ff65a3"></path><path d="M3840 1907L3840 1740L3557 1906Z" fill="#b11e61" stroke="#b11e61"></path><path d="M0 1947L207 2160L212 1885Z" fill="#000000" stroke="#000000"></path><path d="M0 0L0 251L252 230Z" fill="#630025" stroke="#630025"></path><path d="M3840 471L3840 190L3581 218Z" fill="#8a0042" stroke="#8a0042"></path><path d="M3840 2160L3840 1907L3557 1906Z" fill="#630025" stroke="#630025"></path><path d="M0 1728L0 1947L212 1885Z" fill="#d84481" stroke="#d84481"></path><path d="M3840 190L3840 0L3616 0Z" fill="#ff65a3" stroke="#ff65a3"></path><path d="M269 0L0 0L252 230Z" fill="#c43271" stroke="#c43271"></path><path d="M3555 2160L3840 2160L3557 1906Z" fill="#630025" stroke="#630025"></path><path d="M0 1947L0 2160L207 2160Z" fill="#b11e61" stroke="#b11e61"></path></g></svg>