<svg id="visual" viewBox="0 0 3840 2160" width="3840" height="2160" xmlns="http://www.w3.org/2000/svg" xmlns:xlink="http://www.w3.org/1999/xlink" version="1.1"><g stroke-width="1" stroke-linejoin="bevel"><path d="M1841 1140L1755 1004L1531 1183Z" fill="#b57219" stroke="#b57219"></path><path d="M1755 1004L1553 1000L1531 1183Z" fill="#4a1800" stroke="#4a1800"></path><path d="M1531 1183L1838 1379L1841 1140Z" fill="#3b0600" stroke="#3b0600"></path><path d="M1531 1183L1557 1423L1838 1379Z" fill="#3b0600" stroke="#3b0600"></path><path d="M1553 1000L1334 1207L1531 1183Z" fill="#9e5f0c" stroke="#9e5f0c"></path><path d="M1531 1183L1334 1207L1557 1423Z" fill="#e49a30" stroke="#e49a30"></path><path d="M1838 1379L2049 1236L1841 1140Z" fill="#713b00" stroke="#713b00"></path><path d="M1841 1140L2075 977L1755 1004Z" fill="#3b0600" stroke="#3b0600"></path><path d="M2075 977L1736 728L1755 1004Z" fill="#b57219" stroke="#b57219"></path><path d="M1755 1004L1736 728L1553 1000Z" fill="#4a1800" stroke="#4a1800"></path><path d="M1553 1000L1301 951L1334 1207Z" fill="#5d2a00" stroke="#5d2a00"></path><path d="M2049 1236L2075 977L1841 1140Z" fill="#e49a30" stroke="#e49a30"></path><path d="M1314 678L1301 951L1553 1000Z" fill="#e49a30" stroke="#e49a30"></path><path d="M1838 1379L2072 1394L2049 1236Z" fill="#b57219" stroke="#b57219"></path><path d="M2049 1236L2313 1158L2075 977Z" fill="#000000" stroke="#000000"></path><path d="M2066 1639L2072 1394L1838 1379Z" fill="#874d00" stroke="#874d00"></path><path d="M1736 728L1589 659L1553 1000Z" fill="#713b00" stroke="#713b00"></path><path d="M1019 1404L1297 1458L1334 1207Z" fill="#5d2a00" stroke="#5d2a00"></path><path d="M1334 1207L1297 1458L1557 1423Z" fill="#000000" stroke="#000000"></path><path d="M1557 1423L1804 1673L1838 1379Z" fill="#713b00" stroke="#713b00"></path><path d="M1297 1458L1496 1635L1557 1423Z" fill="#5d2a00" stroke="#5d2a00"></path><path d="M1496 1635L1804 1673L1557 1423Z" fill="#000000" stroke="#000000"></path><path d="M1589 659L1314 678L1553 1000Z" fill="#e49a30" stroke="#e49a30"></path><path d="M2075 977L2074 676L1736 728Z" fill="#e49a30" stroke="#e49a30"></path><path d="M1761 431L1492 529L1589 659Z" fill="#3b0600" stroke="#3b0600"></path><path d="M1804 1673L2066 1639L1838 1379Z" fill="#000000" stroke="#000000"></path><path d="M2341 1440L2313 1158L2072 1394Z" fill="#874d00" stroke="#874d00"></path><path d="M2072 1394L2313 1158L2049 1236Z" fill="#5d2a00" stroke="#5d2a00"></path><path d="M2075 977L2332 703L2074 676Z" fill="#3b0600" stroke="#3b0600"></path><path d="M1761 431L1589 659L1736 728Z" fill="#874d00" stroke="#874d00"></path><path d="M1589 659L1492 529L1314 678Z" fill="#5d2a00" stroke="#5d2a00"></path><path d="M2313 1158L2330 1020L2075 977Z" fill="#b57219" stroke="#b57219"></path><path d="M1314 678L1049 913L1301 951Z" fill="#4a1800" stroke="#4a1800"></path><path d="M1301 951L973 1192L1334 1207Z" fill="#9e5f0c" stroke="#9e5f0c"></path><path d="M1049 913L973 1192L1301 951Z" fill="#cd8625" stroke="#cd8625"></path><path d="M1297 1458L1220 1688L1496 1635Z" fill="#e49a30" stroke="#e49a30"></path><path d="M973 1192L1019 1404L1334 1207Z" fill="#4a1800" stroke="#4a1800"></path><path d="M1019 1404L1220 1688L1297 1458Z" fill="#3b0600" stroke="#3b0600"></path><path d="M1496 1635L1482 1864L1804 1673Z" fill="#9e5f0c" stroke="#9e5f0c"></path><path d="M2074 676L1761 431L1736 728Z" fill="#9e5f0c" stroke="#9e5f0c"></path><path d="M2066 1639L2341 1440L2072 1394Z" fill="#9e5f0c" stroke="#9e5f0c"></path><path d="M2313 1158L2537 1169L2330 1020Z" fill="#874d00" stroke="#874d00"></path><path d="M1220 1688L1482 1864L1496 1635Z" fill="#e49a30" stroke="#e49a30"></path><path d="M1804 1673L1994 1927L2066 1639Z" fill="#3b0600" stroke="#3b0600"></path><path d="M1526 283L1325 454L1492 529Z" fill="#9e5f0c" stroke="#9e5f0c"></path><path d="M1492 529L1325 454L1314 678Z" fill="#713b00" stroke="#713b00"></path><path d="M1314 678L971 690L1049 913Z" fill="#5d2a00" stroke="#5d2a00"></path><path d="M2565 757L2332 703L2330 1020Z" fill="#874d00" stroke="#874d00"></path><path d="M2330 1020L2332 703L2075 977Z" fill="#9e5f0c" stroke="#9e5f0c"></path><path d="M2074 676L2090 459L1761 431Z" fill="#e49a30" stroke="#e49a30"></path><path d="M2324 445L2090 459L2074 676Z" fill="#5d2a00" stroke="#5d2a00"></path><path d="M1482 1864L1753 1951L1804 1673Z" fill="#b57219" stroke="#b57219"></path><path d="M2066 1639L2333 1727L2341 1440Z" fill="#5d2a00" stroke="#5d2a00"></path><path d="M1220 1688L1335 1905L1482 1864Z" fill="#874d00" stroke="#874d00"></path><path d="M1578 2160L1775 2160L1753 1951Z" fill="#3b0600" stroke="#3b0600"></path><path d="M1055 1871L1335 1905L1220 1688Z" fill="#000000" stroke="#000000"></path><path d="M1753 1951L1994 1927L1804 1673Z" fill="#fcaf3c" stroke="#fcaf3c"></path><path d="M1022 500L971 690L1314 678Z" fill="#713b00" stroke="#713b00"></path><path d="M708 989L748 1196L973 1192Z" fill="#3b0600" stroke="#3b0600"></path><path d="M799 1485L1009 1657L1019 1404Z" fill="#b57219" stroke="#b57219"></path><path d="M1019 1404L1009 1657L1220 1688Z" fill="#3b0600" stroke="#3b0600"></path><path d="M2616 1462L2537 1169L2341 1440Z" fill="#713b00" stroke="#713b00"></path><path d="M2341 1440L2537 1169L2313 1158Z" fill="#4a1800" stroke="#4a1800"></path><path d="M2335 1889L2333 1727L2066 1639Z" fill="#000000" stroke="#000000"></path><path d="M1761 431L1526 283L1492 529Z" fill="#b57219" stroke="#b57219"></path><path d="M1325 454L1022 500L1314 678Z" fill="#b57219" stroke="#b57219"></path><path d="M1788 250L1526 283L1761 431Z" fill="#4a1800" stroke="#4a1800"></path><path d="M2051 241L1788 250L1761 431Z" fill="#4a1800" stroke="#4a1800"></path><path d="M1272 217L1022 500L1325 454Z" fill="#3b0600" stroke="#3b0600"></path><path d="M708 989L973 1192L1049 913Z" fill="#874d00" stroke="#874d00"></path><path d="M973 1192L799 1485L1019 1404Z" fill="#713b00" stroke="#713b00"></path><path d="M708 989L1049 913L753 779Z" fill="#e49a30" stroke="#e49a30"></path><path d="M2537 1169L2597 933L2330 1020Z" fill="#713b00" stroke="#713b00"></path><path d="M2332 703L2324 445L2074 676Z" fill="#fcaf3c" stroke="#fcaf3c"></path><path d="M748 1196L799 1485L973 1192Z" fill="#9e5f0c" stroke="#9e5f0c"></path><path d="M2539 537L2324 445L2332 703Z" fill="#3b0600" stroke="#3b0600"></path><path d="M2090 459L2051 241L1761 431Z" fill="#9e5f0c" stroke="#9e5f0c"></path><path d="M778 1939L1055 1871L1009 1657Z" fill="#000000" stroke="#000000"></path><path d="M1009 1657L1055 1871L1220 1688Z" fill="#5d2a00" stroke="#5d2a00"></path><path d="M2597 933L2565 757L2330 1020Z" fill="#713b00" stroke="#713b00"></path><path d="M2244 278L2051 241L2090 459Z" fill="#4a1800" stroke="#4a1800"></path><path d="M2335 1889L2506 1683L2333 1727Z" fill="#9e5f0c" stroke="#9e5f0c"></path><path d="M2333 1727L2506 1683L2341 1440Z" fill="#713b00" stroke="#713b00"></path><path d="M2537 1169L2755 1157L2597 933Z" fill="#cd8625" stroke="#cd8625"></path><path d="M2506 1683L2616 1462L2341 1440Z" fill="#cd8625" stroke="#cd8625"></path><path d="M753 779L1049 913L971 690Z" fill="#5d2a00" stroke="#5d2a00"></path><path d="M568 1633L721 1658L799 1485Z" fill="#cd8625" stroke="#cd8625"></path><path d="M1994 1927L2335 1889L2066 1639Z" fill="#713b00" stroke="#713b00"></path><path d="M715 509L753 779L971 690Z" fill="#3b0600" stroke="#3b0600"></path><path d="M1501 0L1272 217L1526 283Z" fill="#fcaf3c" stroke="#fcaf3c"></path><path d="M1526 283L1272 217L1325 454Z" fill="#874d00" stroke="#874d00"></path><path d="M1022 500L715 509L971 690Z" fill="#713b00" stroke="#713b00"></path><path d="M1731 0L1526 283L1788 250Z" fill="#000000" stroke="#000000"></path><path d="M1578 2160L1753 1951L1482 1864Z" fill="#9e5f0c" stroke="#9e5f0c"></path><path d="M1753 1951L1775 2160L1994 1927Z" fill="#e49a30" stroke="#e49a30"></path><path d="M1994 1927L2277 2160L2335 1889Z" fill="#b57219" stroke="#b57219"></path><path d="M1578 2160L1482 1864L1335 1905Z" fill="#3b0600" stroke="#3b0600"></path><path d="M1301 2160L1578 2160L1335 1905Z" fill="#9e5f0c" stroke="#9e5f0c"></path><path d="M2324 445L2244 278L2090 459Z" fill="#b57219" stroke="#b57219"></path><path d="M2614 231L2244 278L2324 445Z" fill="#000000" stroke="#000000"></path><path d="M2786 518L2539 537L2565 757Z" fill="#713b00" stroke="#713b00"></path><path d="M2565 757L2539 537L2332 703Z" fill="#000000" stroke="#000000"></path><path d="M1775 2160L1996 2160L1994 1927Z" fill="#e49a30" stroke="#e49a30"></path><path d="M2616 1462L2755 1157L2537 1169Z" fill="#4a1800" stroke="#4a1800"></path><path d="M2597 933L2806 757L2565 757Z" fill="#3b0600" stroke="#3b0600"></path><path d="M1055 1871L1301 2160L1335 1905Z" fill="#4a1800" stroke="#4a1800"></path><path d="M799 1485L721 1658L1009 1657Z" fill="#000000" stroke="#000000"></path><path d="M1055 1871L1019 2160L1301 2160Z" fill="#713b00" stroke="#713b00"></path><path d="M553 1408L799 1485L748 1196Z" fill="#000000" stroke="#000000"></path><path d="M1272 217L972 298L1022 500Z" fill="#000000" stroke="#000000"></path><path d="M2080 0L1788 250L2051 241Z" fill="#5d2a00" stroke="#5d2a00"></path><path d="M2080 0L1731 0L1788 250Z" fill="#9e5f0c" stroke="#9e5f0c"></path><path d="M1272 217L1035 0L972 298Z" fill="#b57219" stroke="#b57219"></path><path d="M2755 1157L2803 902L2597 933Z" fill="#713b00" stroke="#713b00"></path><path d="M2506 1683L2768 1620L2616 1462Z" fill="#5d2a00" stroke="#5d2a00"></path><path d="M2616 1462L2868 1388L2755 1157Z" fill="#cd8625" stroke="#cd8625"></path><path d="M2335 1889L2585 1863L2506 1683Z" fill="#5d2a00" stroke="#5d2a00"></path><path d="M2521 2160L2585 1863L2335 1889Z" fill="#e49a30" stroke="#e49a30"></path><path d="M972 298L715 509L1022 500Z" fill="#b57219" stroke="#b57219"></path><path d="M753 779L552 693L708 989Z" fill="#9e5f0c" stroke="#9e5f0c"></path><path d="M1731 0L1501 0L1526 283Z" fill="#b57219" stroke="#b57219"></path><path d="M459 1231L748 1196L708 989Z" fill="#5d2a00" stroke="#5d2a00"></path><path d="M459 1231L553 1408L748 1196Z" fill="#4a1800" stroke="#4a1800"></path><path d="M1996 2160L2277 2160L1994 1927Z" fill="#9e5f0c" stroke="#9e5f0c"></path><path d="M2585 1863L2768 1620L2506 1683Z" fill="#fcaf3c" stroke="#fcaf3c"></path><path d="M2755 1157L3073 993L2803 902Z" fill="#5d2a00" stroke="#5d2a00"></path><path d="M2803 902L2806 757L2597 933Z" fill="#713b00" stroke="#713b00"></path><path d="M2347 0L2080 0L2244 278Z" fill="#9e5f0c" stroke="#9e5f0c"></path><path d="M494 1934L778 1939L721 1658Z" fill="#4a1800" stroke="#4a1800"></path><path d="M721 1658L778 1939L1009 1657Z" fill="#cd8625" stroke="#cd8625"></path><path d="M2768 1620L2868 1388L2616 1462Z" fill="#e49a30" stroke="#e49a30"></path><path d="M2803 902L3025 715L2806 757Z" fill="#5d2a00" stroke="#5d2a00"></path><path d="M2614 231L2324 445L2539 537Z" fill="#b57219" stroke="#b57219"></path><path d="M2244 278L2080 0L2051 241Z" fill="#4a1800" stroke="#4a1800"></path><path d="M778 1939L1019 2160L1055 1871Z" fill="#4a1800" stroke="#4a1800"></path><path d="M553 1408L568 1633L799 1485Z" fill="#874d00" stroke="#874d00"></path><path d="M715 509L552 693L753 779Z" fill="#874d00" stroke="#874d00"></path><path d="M1501 0L1259 0L1272 217Z" fill="#cd8625" stroke="#cd8625"></path><path d="M972 298L707 244L715 509Z" fill="#3b0600" stroke="#3b0600"></path><path d="M552 693L472 982L708 989Z" fill="#9e5f0c" stroke="#9e5f0c"></path><path d="M252 1494L313 1685L568 1633Z" fill="#b57219" stroke="#b57219"></path><path d="M472 982L459 1231L708 989Z" fill="#9e5f0c" stroke="#9e5f0c"></path><path d="M3025 715L2786 518L2806 757Z" fill="#000000" stroke="#000000"></path><path d="M2806 757L2786 518L2565 757Z" fill="#9e5f0c" stroke="#9e5f0c"></path><path d="M2786 518L2614 231L2539 537Z" fill="#9e5f0c" stroke="#9e5f0c"></path><path d="M1259 0L1035 0L1272 217Z" fill="#e49a30" stroke="#e49a30"></path><path d="M715 509L466 462L552 693Z" fill="#4a1800" stroke="#4a1800"></path><path d="M2277 2160L2521 2160L2335 1889Z" fill="#713b00" stroke="#713b00"></path><path d="M2585 1863L2798 1894L2768 1620Z" fill="#3b0600" stroke="#3b0600"></path><path d="M2614 231L2347 0L2244 278Z" fill="#713b00" stroke="#713b00"></path><path d="M714 0L707 244L972 298Z" fill="#713b00" stroke="#713b00"></path><path d="M473 2160L824 2160L778 1939Z" fill="#000000" stroke="#000000"></path><path d="M778 1939L824 2160L1019 2160Z" fill="#3b0600" stroke="#3b0600"></path><path d="M2768 1620L3037 1446L2868 1388Z" fill="#9e5f0c" stroke="#9e5f0c"></path><path d="M2521 2160L2798 1894L2585 1863Z" fill="#5d2a00" stroke="#5d2a00"></path><path d="M3037 1446L3064 1214L2868 1388Z" fill="#4a1800" stroke="#4a1800"></path><path d="M2868 1388L3064 1214L2755 1157Z" fill="#3b0600" stroke="#3b0600"></path><path d="M3073 1665L3037 1446L2768 1620Z" fill="#4a1800" stroke="#4a1800"></path><path d="M550 271L466 462L715 509Z" fill="#874d00" stroke="#874d00"></path><path d="M552 693L294 685L472 982Z" fill="#e49a30" stroke="#e49a30"></path><path d="M472 982L220 1191L459 1231Z" fill="#874d00" stroke="#874d00"></path><path d="M3064 1214L3073 993L2755 1157Z" fill="#fcaf3c" stroke="#fcaf3c"></path><path d="M2786 518L2790 188L2614 231Z" fill="#e49a30" stroke="#e49a30"></path><path d="M3073 993L3025 715L2803 902Z" fill="#5d2a00" stroke="#5d2a00"></path><path d="M568 1633L494 1934L721 1658Z" fill="#713b00" stroke="#713b00"></path><path d="M313 1685L494 1934L568 1633Z" fill="#cd8625" stroke="#cd8625"></path><path d="M570 0L550 271L707 244Z" fill="#4a1800" stroke="#4a1800"></path><path d="M707 244L550 271L715 509Z" fill="#9e5f0c" stroke="#9e5f0c"></path><path d="M3097 273L2790 188L2786 518Z" fill="#fcaf3c" stroke="#fcaf3c"></path><path d="M2614 231L2613 0L2347 0Z" fill="#713b00" stroke="#713b00"></path><path d="M221 452L294 685L466 462Z" fill="#4a1800" stroke="#4a1800"></path><path d="M466 462L294 685L552 693Z" fill="#b57219" stroke="#b57219"></path><path d="M459 1231L252 1494L553 1408Z" fill="#b57219" stroke="#b57219"></path><path d="M204 992L220 1191L472 982Z" fill="#713b00" stroke="#713b00"></path><path d="M252 1494L568 1633L553 1408Z" fill="#000000" stroke="#000000"></path><path d="M220 1191L252 1494L459 1231Z" fill="#4a1800" stroke="#4a1800"></path><path d="M2790 188L2613 0L2614 231Z" fill="#cd8625" stroke="#cd8625"></path><path d="M3113 1887L3073 1665L2798 1894Z" fill="#000000" stroke="#000000"></path><path d="M2798 1894L3073 1665L2768 1620Z" fill="#e49a30" stroke="#e49a30"></path><path d="M3037 1446L3282 1260L3064 1214Z" fill="#5d2a00" stroke="#5d2a00"></path><path d="M3064 1214L3282 1260L3073 993Z" fill="#874d00" stroke="#874d00"></path><path d="M294 685L204 992L472 982Z" fill="#874d00" stroke="#874d00"></path><path d="M1035 0L714 0L972 298Z" fill="#000000" stroke="#000000"></path><path d="M255 253L221 452L466 462Z" fill="#3b0600" stroke="#3b0600"></path><path d="M2521 2160L2825 2160L2798 1894Z" fill="#9e5f0c" stroke="#9e5f0c"></path><path d="M3285 747L3113 530L3025 715Z" fill="#b57219" stroke="#b57219"></path><path d="M3025 715L3113 530L2786 518Z" fill="#4a1800" stroke="#4a1800"></path><path d="M2790 188L2791 0L2613 0Z" fill="#713b00" stroke="#713b00"></path><path d="M3285 747L3025 715L3073 993Z" fill="#874d00" stroke="#874d00"></path><path d="M299 2160L473 2160L494 1934Z" fill="#5d2a00" stroke="#5d2a00"></path><path d="M494 1934L473 2160L778 1939Z" fill="#000000" stroke="#000000"></path><path d="M3014 0L2791 0L2790 188Z" fill="#3b0600" stroke="#3b0600"></path><path d="M714 0L570 0L707 244Z" fill="#b57219" stroke="#b57219"></path><path d="M3314 1444L3037 1446L3073 1665Z" fill="#cd8625" stroke="#cd8625"></path><path d="M3314 1444L3282 1260L3037 1446Z" fill="#874d00" stroke="#874d00"></path><path d="M313 1685L264 1899L494 1934Z" fill="#4a1800" stroke="#4a1800"></path><path d="M0 1631L264 1899L313 1685Z" fill="#cd8625" stroke="#cd8625"></path><path d="M0 1631L313 1685L252 1494Z" fill="#4a1800" stroke="#4a1800"></path><path d="M0 1455L252 1494L220 1191Z" fill="#3b0600" stroke="#3b0600"></path><path d="M2825 2160L3113 1887L2798 1894Z" fill="#4a1800" stroke="#4a1800"></path><path d="M255 253L466 462L550 271Z" fill="#000000" stroke="#000000"></path><path d="M0 963L0 1155L204 992Z" fill="#b57219" stroke="#b57219"></path><path d="M3368 952L3285 747L3073 993Z" fill="#b57219" stroke="#b57219"></path><path d="M3113 530L3097 273L2786 518Z" fill="#874d00" stroke="#874d00"></path><path d="M3275 1710L3314 1444L3073 1665Z" fill="#713b00" stroke="#713b00"></path><path d="M3282 1260L3368 952L3073 993Z" fill="#fcaf3c" stroke="#fcaf3c"></path><path d="M3325 523L3097 273L3113 530Z" fill="#b57219" stroke="#b57219"></path><path d="M0 963L204 992L0 747Z" fill="#874d00" stroke="#874d00"></path><path d="M204 992L0 1155L220 1191Z" fill="#713b00" stroke="#713b00"></path><path d="M570 0L255 253L550 271Z" fill="#713b00" stroke="#713b00"></path><path d="M0 747L204 992L294 685Z" fill="#cd8625" stroke="#cd8625"></path><path d="M3113 1887L3275 1710L3073 1665Z" fill="#5d2a00" stroke="#5d2a00"></path><path d="M0 747L294 685L0 497Z" fill="#874d00" stroke="#874d00"></path><path d="M3562 978L3368 952L3593 1196Z" fill="#5d2a00" stroke="#5d2a00"></path><path d="M3300 0L3014 0L3097 273Z" fill="#713b00" stroke="#713b00"></path><path d="M0 1155L0 1455L220 1191Z" fill="#713b00" stroke="#713b00"></path><path d="M0 2160L299 2160L264 1899Z" fill="#9e5f0c" stroke="#9e5f0c"></path><path d="M264 1899L299 2160L494 1934Z" fill="#000000" stroke="#000000"></path><path d="M0 497L294 685L221 452Z" fill="#4a1800" stroke="#4a1800"></path><path d="M2825 2160L3108 2160L3113 1887Z" fill="#874d00" stroke="#874d00"></path><path d="M3113 1887L3361 1928L3275 1710Z" fill="#713b00" stroke="#713b00"></path><path d="M0 1455L0 1631L252 1494Z" fill="#cd8625" stroke="#cd8625"></path><path d="M3097 273L3014 0L2790 188Z" fill="#874d00" stroke="#874d00"></path><path d="M3325 523L3113 530L3285 747Z" fill="#9e5f0c" stroke="#9e5f0c"></path><path d="M3565 714L3325 523L3285 747Z" fill="#874d00" stroke="#874d00"></path><path d="M0 229L0 497L221 452Z" fill="#000000" stroke="#000000"></path><path d="M3108 2160L3361 1928L3113 1887Z" fill="#b57219" stroke="#b57219"></path><path d="M3639 1483L3593 1196L3314 1444Z" fill="#5d2a00" stroke="#5d2a00"></path><path d="M3593 1196L3368 952L3282 1260Z" fill="#b57219" stroke="#b57219"></path><path d="M0 1631L0 1917L264 1899Z" fill="#874d00" stroke="#874d00"></path><path d="M570 0L201 0L255 253Z" fill="#3b0600" stroke="#3b0600"></path><path d="M255 253L0 229L221 452Z" fill="#fcaf3c" stroke="#fcaf3c"></path><path d="M3587 517L3344 261L3325 523Z" fill="#cd8625" stroke="#cd8625"></path><path d="M3325 523L3344 261L3097 273Z" fill="#713b00" stroke="#713b00"></path><path d="M3593 1196L3282 1260L3314 1444Z" fill="#5d2a00" stroke="#5d2a00"></path><path d="M3368 952L3565 714L3285 747Z" fill="#3b0600" stroke="#3b0600"></path><path d="M3639 1483L3314 1444L3595 1684Z" fill="#4a1800" stroke="#4a1800"></path><path d="M201 0L0 229L255 253Z" fill="#000000" stroke="#000000"></path><path d="M3562 978L3565 714L3368 952Z" fill="#fcaf3c" stroke="#fcaf3c"></path><path d="M3840 756L3565 714L3562 978Z" fill="#874d00" stroke="#874d00"></path><path d="M3108 2160L3335 2160L3361 1928Z" fill="#9e5f0c" stroke="#9e5f0c"></path><path d="M3595 1684L3314 1444L3275 1710Z" fill="#fcaf3c" stroke="#fcaf3c"></path><path d="M0 1917L0 2160L264 1899Z" fill="#000000" stroke="#000000"></path><path d="M3563 0L3300 0L3344 261Z" fill="#cd8625" stroke="#cd8625"></path><path d="M3344 261L3300 0L3097 273Z" fill="#9e5f0c" stroke="#9e5f0c"></path><path d="M3595 1684L3275 1710L3361 1928Z" fill="#e49a30" stroke="#e49a30"></path><path d="M3840 530L3587 517L3565 714Z" fill="#9e5f0c" stroke="#9e5f0c"></path><path d="M3618 1907L3595 1684L3361 1928Z" fill="#9e5f0c" stroke="#9e5f0c"></path><path d="M3840 1018L3562 978L3593 1196Z" fill="#713b00" stroke="#713b00"></path><path d="M3565 714L3587 517L3325 523Z" fill="#3b0600" stroke="#3b0600"></path><path d="M201 0L0 0L0 229Z" fill="#5d2a00" stroke="#5d2a00"></path><path d="M3635 2160L3618 1907L3361 1928Z" fill="#b57219" stroke="#b57219"></path><path d="M3840 1397L3593 1196L3639 1483Z" fill="#713b00" stroke="#713b00"></path><path d="M3840 257L3606 215L3587 517Z" fill="#874d00" stroke="#874d00"></path><path d="M3587 517L3606 215L3344 261Z" fill="#b57219" stroke="#b57219"></path><path d="M3840 1397L3639 1483L3840 1680Z" fill="#874d00" stroke="#874d00"></path><path d="M3840 1397L3840 1214L3593 1196Z" fill="#713b00" stroke="#713b00"></path><path d="M3840 1214L3840 1018L3593 1196Z" fill="#b57219" stroke="#b57219"></path><path d="M3840 1680L3639 1483L3595 1684Z" fill="#cd8625" stroke="#cd8625"></path><path d="M3840 1018L3840 756L3562 978Z" fill="#e49a30" stroke="#e49a30"></path><path d="M3335 2160L3635 2160L3361 1928Z" fill="#9e5f0c" stroke="#9e5f0c"></path><path d="M3618 1907L3840 1680L3595 1684Z" fill="#713b00" stroke="#713b00"></path><path d="M3840 0L3563 0L3606 215Z" fill="#713b00" stroke="#713b00"></path><path d="M3606 215L3563 0L3344 261Z" fill="#000000" stroke="#000000"></path><path d="M3840 1969L3840 1680L3618 1907Z" fill="#5d2a00" stroke="#5d2a00"></path><path d="M3840 756L3840 530L3565 714Z" fill="#fcaf3c" stroke="#fcaf3c"></path><path d="M3635 2160L3840 1969L3618 1907Z" fill="#9e5f0c" stroke="#9e5f0c"></path><path d="M3840 530L3840 257L3587 517Z" fill="#b57219" stroke="#b57219"></path><path d="M3635 2160L3840 2160L3840 1969Z" fill="#713b00" stroke="#713b00"></path><path d="M3840 257L3840 0L3606 215Z" fill="#b57219" stroke="#b57219"></path></g></svg>