<svg xmlns="http://www.w3.org/2000/svg" version="1.1" xmlns:xlink="http://www.w3.org/1999/xlink" xmlns:svgjs="http://svgjs.dev/svgjs" width="1200" height="800" preserveAspectRatio="none" viewBox="0 0 1200 800"><g mask="url(&quot;#SvgjsMask1048&quot;)" fill="none"><rect width="1200" height="800" x="0" y="0" fill="rgba(120, 225, 17, 1)"></rect><path d="M65 800L865 0L1264 0L464 800z" fill="url(&quot;#SvgjsLinearGradient1049&quot;)"></path><path d="M409 800L1209 0L1614 0L814 800z" fill="url(&quot;#SvgjsLinearGradient1049&quot;)"></path><path d="M1181 800L381 0L66 0L866 800z" fill="url(&quot;#SvgjsLinearGradient1050&quot;)"></path><path d="M756 800L-44 0L-161 0L639 800z" fill="url(&quot;#SvgjsLinearGradient1050&quot;)"></path><path d="M790.5226458290979 800L1200 390.5226458290978L1200 800z" fill="url(&quot;#SvgjsLinearGradient1049&quot;)"></path><path d="M0 800L409.4773541709022 800L 0 390.5226458290978z" fill="url(&quot;#SvgjsLinearGradient1050&quot;)"></path></g><defs><mask id="SvgjsMask1048"><rect width="1200" height="800" fill="#ffffff"></rect></mask><linearGradient x1="0%" y1="100%" x2="100%" y2="0%" id="SvgjsLinearGradient1049"><stop stop-color="rgba(72, 15, 97, 0.2)" offset="0"></stop><stop stop-opacity="0" stop-color="rgba(72, 15, 97, 0.2)" offset="0.66"></stop></linearGradient><linearGradient x1="100%" y1="100%" x2="0%" y2="0%" id="SvgjsLinearGradient1050"><stop stop-color="rgba(72, 15, 97, 0.2)" offset="0"></stop><stop stop-opacity="0" stop-color="rgba(72, 15, 97, 0.2)" offset="0.66"></stop></linearGradient></defs></svg>