<?xml version="1.0" encoding="iso-8859-1"?>
<!-- Uploaded to: SVG Repo, www.svgrepo.com, Generator: SVG Repo Mixer Tools -->
<!DOCTYPE svg PUBLIC "-//W3C//DTD SVG 1.1//EN" "http://www.w3.org/Graphics/SVG/1.1/DTD/svg11.dtd">
<svg fill="#000000" version="1.1" id="Capa_1" xmlns="http://www.w3.org/2000/svg" xmlns:xlink="http://www.w3.org/1999/xlink" 
	 width="800px" height="800px" viewBox="0 0 94 94" xml:space="preserve">
<g>
	<g>
		<path d="M68.456,48.956c-7.81-4.674-17.743-7.231-28.012-7.231c-6.555,0-11.06,0.935-15.469,2.146
			c-1.631,0.46-2.44,1.607-2.44,3.275c0,1.701,1.377,3.076,3.064,3.076c0.716,0,1.145-0.227,1.91-0.438
			c3.548-0.945,7.837-1.641,12.803-1.641c9.687,0,18.531,2.517,24.913,6.304c0.578,0.336,1.113,0.68,1.965,0.68
			c1.707,0,3.06-1.372,3.06-3.071C70.249,50.66,69.766,49.707,68.456,48.956z"/>
		<path d="M63.802,60.451c-6.584-3.946-14.235-5.916-22.819-5.916c-5.013,0-9.839,0.631-14.684,1.734
			c-1.183,0.228-2.135,1.047-2.135,2.695c0,1.282,0.993,2.465,2.483,2.465c0.483,0,1.291-0.248,1.934-0.387
			c3.951-0.822,8.177-1.359,12.374-1.359c7.523,0,14.613,1.808,20.3,5.248c0.595,0.359,1.026,0.58,1.66,0.58
			c1.291,0,2.44-1.039,2.44-2.453C65.355,61.607,64.781,61.023,63.802,60.451z"/>
		<path d="M73.736,35.813c-8.854-5.199-20.975-7.569-32.493-7.569c-6.785,0-13.028,0.768-18.621,2.416
			c-1.425,0.421-2.746,1.617-2.746,3.75c0,2.092,1.606,3.748,3.699,3.748c0.721,0,1.441-0.286,2.012-0.429
			c4.949-1.343,10.352-1.884,15.672-1.884c10.657,0,21.677,2.344,28.777,6.603c0.75,0.41,1.223,0.604,2.021,0.604
			c1.981,0,3.701-1.536,3.701-3.675C75.759,37.509,74.93,36.489,73.736,35.813z"/>
		<path d="M89,0H5C2.239,0,0,2.239,0,5v84c0,2.761,2.239,5,5,5h84c2.762,0,5-2.239,5-5V5C94,2.239,91.762,0,89,0z M47.001,86.23
			c-21.668,0-39.232-17.564-39.232-39.231S25.333,7.77,47.001,7.77c21.666,0,39.229,17.563,39.229,39.229S68.667,86.23,47.001,86.23
			z"/>
	</g>
</g>
</svg>