<svg xmlns="http://www.w3.org/2000/svg" version="1.1" xmlns:xlink="http://www.w3.org/1999/xlink" xmlns:svgjs="http://svgjs.dev/svgjs" width="1200" height="800" preserveAspectRatio="none" viewBox="0 0 1200 800"><g mask="url(&quot;#SvgjsMask1741&quot;)" fill="none"><rect width="1200" height="800" x="0" y="0" fill="url(&quot;#SvgjsLinearGradient1742&quot;)"></rect><use xlink:href="#SvgjsSymbol1749" x="0" y="0"></use><use xlink:href="#SvgjsSymbol1749" x="0" y="720"></use><use xlink:href="#SvgjsSymbol1749" x="720" y="0"></use><use xlink:href="#SvgjsSymbol1749" x="720" y="720"></use></g><defs><mask id="SvgjsMask1741"><rect width="1200" height="800" fill="#ffffff"></rect></mask><linearGradient x1="8.33%" y1="-12.5%" x2="91.67%" y2="112.5%" gradientUnits="userSpaceOnUse" id="SvgjsLinearGradient1742"><stop stop-color="rgba(14, 42, 71, 1)" offset="0.31"></stop><stop stop-color="rgba(158, 0, 3, 1)" offset="1"></stop></linearGradient><path d="M-1 0 a1 1 0 1 0 2 0 a1 1 0 1 0 -2 0z" id="SvgjsPath1743"></path><path d="M-3 0 a3 3 0 1 0 6 0 a3 3 0 1 0 -6 0z" id="SvgjsPath1748"></path><path d="M-5 0 a5 5 0 1 0 10 0 a5 5 0 1 0 -10 0z" id="SvgjsPath1744"></path><path d="M2 -2 L-2 2z" id="SvgjsPath1745"></path><path d="M6 -6 L-6 6z" id="SvgjsPath1747"></path><path d="M30 -30 L-30 30z" id="SvgjsPath1746"></path></defs><symbol id="SvgjsSymbol1749"><use xlink:href="#SvgjsPath1743" x="30" y="30" stroke="rgba(42, 107, 176, 1)"></use><use xlink:href="#SvgjsPath1744" x="30" y="90" stroke="rgba(42, 107, 176, 1)"></use><use xlink:href="#SvgjsPath1745" x="30" y="150" stroke="rgba(42, 107, 176, 1)"></use><use xlink:href="#SvgjsPath1745" x="30" y="210" stroke="rgba(42, 107, 176, 1)"></use><use xlink:href="#SvgjsPath1746" x="30" y="270" stroke="rgba(42, 107, 176, 1)" stroke-width="3"></use><use xlink:href="#SvgjsPath1747" x="30" y="330" stroke="rgba(42, 107, 176, 1)"></use><use xlink:href="#SvgjsPath1748" x="30" y="390" stroke="rgba(42, 107, 176, 1)"></use><use xlink:href="#SvgjsPath1744" x="30" y="450" stroke="rgba(42, 107, 176, 1)"></use><use xlink:href="#SvgjsPath1744" x="30" y="510" stroke="rgba(42, 107, 176, 1)"></use><use xlink:href="#SvgjsPath1747" x="30" y="570" stroke="rgba(42, 107, 176, 1)"></use><use xlink:href="#SvgjsPath1744" x="30" y="630" stroke="rgba(42, 107, 176, 1)"></use><use xlink:href="#SvgjsPath1747" x="30" y="690" stroke="rgba(42, 107, 176, 1)"></use><use xlink:href="#SvgjsPath1744" x="90" y="30" stroke="rgba(42, 107, 176, 1)"></use><use xlink:href="#SvgjsPath1744" x="90" y="90" stroke="rgba(42, 107, 176, 1)"></use><use xlink:href="#SvgjsPath1745" x="90" y="150" stroke="rgba(42, 107, 176, 1)"></use><use xlink:href="#SvgjsPath1744" x="90" y="210" stroke="rgba(42, 107, 176, 1)"></use><use xlink:href="#SvgjsPath1744" x="90" y="270" stroke="rgba(42, 107, 176, 1)"></use><use xlink:href="#SvgjsPath1745" x="90" y="330" stroke="rgba(42, 107, 176, 1)"></use><use xlink:href="#SvgjsPath1745" x="90" y="390" stroke="rgba(42, 107, 176, 1)"></use><use xlink:href="#SvgjsPath1747" x="90" y="450" stroke="rgba(42, 107, 176, 1)"></use><use xlink:href="#SvgjsPath1745" x="90" y="510" stroke="rgba(42, 107, 176, 1)"></use><use xlink:href="#SvgjsPath1747" x="90" y="570" stroke="rgba(42, 107, 176, 1)"></use><use xlink:href="#SvgjsPath1746" x="90" y="630" stroke="rgba(42, 107, 176, 1)" stroke-width="3"></use><use xlink:href="#SvgjsPath1746" x="90" y="690" stroke="rgba(42, 107, 176, 1)" stroke-width="3"></use><use xlink:href="#SvgjsPath1748" x="150" y="30" stroke="rgba(42, 107, 176, 1)"></use><use xlink:href="#SvgjsPath1747" x="150" y="90" stroke="rgba(42, 107, 176, 1)"></use><use xlink:href="#SvgjsPath1744" x="150" y="150" stroke="rgba(42, 107, 176, 1)"></use><use xlink:href="#SvgjsPath1743" x="150" y="210" stroke="rgba(42, 107, 176, 1)"></use><use xlink:href="#SvgjsPath1745" x="150" y="270" stroke="rgba(42, 107, 176, 1)"></use><use xlink:href="#SvgjsPath1744" x="150" y="330" stroke="rgba(42, 107, 176, 1)"></use><use xlink:href="#SvgjsPath1747" x="150" y="390" stroke="rgba(42, 107, 176, 1)"></use><use xlink:href="#SvgjsPath1744" x="150" y="450" stroke="rgba(42, 107, 176, 1)"></use><use xlink:href="#SvgjsPath1744" x="150" y="510" stroke="rgba(42, 107, 176, 1)"></use><use xlink:href="#SvgjsPath1744" x="150" y="570" stroke="rgba(42, 107, 176, 1)"></use><use xlink:href="#SvgjsPath1745" x="150" y="630" stroke="rgba(42, 107, 176, 1)"></use><use xlink:href="#SvgjsPath1747" x="150" y="690" stroke="rgba(42, 107, 176, 1)"></use><use xlink:href="#SvgjsPath1748" x="210" y="30" stroke="rgba(42, 107, 176, 1)"></use><use xlink:href="#SvgjsPath1744" x="210" y="90" stroke="rgba(42, 107, 176, 1)"></use><use xlink:href="#SvgjsPath1747" x="210" y="150" stroke="rgba(42, 107, 176, 1)"></use><use xlink:href="#SvgjsPath1747" x="210" y="210" stroke="rgba(42, 107, 176, 1)"></use><use xlink:href="#SvgjsPath1747" x="210" y="270" stroke="rgba(42, 107, 176, 1)"></use><use xlink:href="#SvgjsPath1747" x="210" y="330" stroke="rgba(42, 107, 176, 1)"></use><use xlink:href="#SvgjsPath1747" x="210" y="390" stroke="rgba(42, 107, 176, 1)"></use><use xlink:href="#SvgjsPath1748" x="210" y="450" stroke="rgba(42, 107, 176, 1)"></use><use xlink:href="#SvgjsPath1747" x="210" y="510" stroke="rgba(42, 107, 176, 1)"></use><use xlink:href="#SvgjsPath1745" x="210" y="570" stroke="rgba(42, 107, 176, 1)"></use><use xlink:href="#SvgjsPath1744" x="210" y="630" stroke="rgba(42, 107, 176, 1)"></use><use xlink:href="#SvgjsPath1748" x="210" y="690" stroke="rgba(42, 107, 176, 1)"></use><use xlink:href="#SvgjsPath1747" x="270" y="30" stroke="rgba(42, 107, 176, 1)"></use><use xlink:href="#SvgjsPath1744" x="270" y="90" stroke="rgba(42, 107, 176, 1)"></use><use xlink:href="#SvgjsPath1747" x="270" y="150" stroke="rgba(42, 107, 176, 1)"></use><use xlink:href="#SvgjsPath1743" x="270" y="210" stroke="rgba(42, 107, 176, 1)"></use><use xlink:href="#SvgjsPath1744" x="270" y="270" stroke="rgba(42, 107, 176, 1)"></use><use xlink:href="#SvgjsPath1744" x="270" y="330" stroke="rgba(42, 107, 176, 1)"></use><use xlink:href="#SvgjsPath1745" x="270" y="390" stroke="rgba(42, 107, 176, 1)"></use><use xlink:href="#SvgjsPath1744" x="270" y="450" stroke="rgba(42, 107, 176, 1)"></use><use xlink:href="#SvgjsPath1743" x="270" y="510" stroke="rgba(42, 107, 176, 1)"></use><use xlink:href="#SvgjsPath1745" x="270" y="570" stroke="rgba(42, 107, 176, 1)"></use><use xlink:href="#SvgjsPath1747" x="270" y="630" stroke="rgba(42, 107, 176, 1)"></use><use xlink:href="#SvgjsPath1745" x="270" y="690" stroke="rgba(42, 107, 176, 1)"></use><use xlink:href="#SvgjsPath1745" x="330" y="30" stroke="rgba(42, 107, 176, 1)"></use><use xlink:href="#SvgjsPath1747" x="330" y="90" stroke="rgba(42, 107, 176, 1)"></use><use xlink:href="#SvgjsPath1747" x="330" y="150" stroke="rgba(42, 107, 176, 1)"></use><use xlink:href="#SvgjsPath1747" x="330" y="210" stroke="rgba(42, 107, 176, 1)"></use><use xlink:href="#SvgjsPath1745" x="330" y="270" stroke="rgba(42, 107, 176, 1)"></use><use xlink:href="#SvgjsPath1747" x="330" y="330" stroke="rgba(42, 107, 176, 1)"></use><use xlink:href="#SvgjsPath1745" x="330" y="390" stroke="rgba(42, 107, 176, 1)"></use><use xlink:href="#SvgjsPath1745" x="330" y="450" stroke="rgba(42, 107, 176, 1)"></use><use xlink:href="#SvgjsPath1747" x="330" y="510" stroke="rgba(42, 107, 176, 1)"></use><use xlink:href="#SvgjsPath1747" x="330" y="570" stroke="rgba(42, 107, 176, 1)"></use><use xlink:href="#SvgjsPath1744" x="330" y="630" stroke="rgba(42, 107, 176, 1)"></use><use xlink:href="#SvgjsPath1747" x="330" y="690" stroke="rgba(42, 107, 176, 1)"></use><use xlink:href="#SvgjsPath1747" x="390" y="30" stroke="rgba(42, 107, 176, 1)"></use><use xlink:href="#SvgjsPath1746" x="390" y="90" stroke="rgba(42, 107, 176, 1)" stroke-width="3"></use><use xlink:href="#SvgjsPath1747" x="390" y="150" stroke="rgba(42, 107, 176, 1)"></use><use xlink:href="#SvgjsPath1743" x="390" y="210" stroke="rgba(42, 107, 176, 1)"></use><use xlink:href="#SvgjsPath1744" x="390" y="270" stroke="rgba(42, 107, 176, 1)"></use><use xlink:href="#SvgjsPath1748" x="390" y="330" stroke="rgba(42, 107, 176, 1)"></use><use xlink:href="#SvgjsPath1744" x="390" y="390" stroke="rgba(42, 107, 176, 1)"></use><use xlink:href="#SvgjsPath1744" x="390" y="450" stroke="rgba(42, 107, 176, 1)"></use><use xlink:href="#SvgjsPath1747" x="390" y="510" stroke="rgba(42, 107, 176, 1)"></use><use xlink:href="#SvgjsPath1745" x="390" y="570" stroke="rgba(42, 107, 176, 1)"></use><use xlink:href="#SvgjsPath1745" x="390" y="630" stroke="rgba(42, 107, 176, 1)"></use><use xlink:href="#SvgjsPath1744" x="390" y="690" stroke="rgba(42, 107, 176, 1)"></use><use xlink:href="#SvgjsPath1743" x="450" y="30" stroke="rgba(42, 107, 176, 1)"></use><use xlink:href="#SvgjsPath1744" x="450" y="90" stroke="rgba(42, 107, 176, 1)"></use><use xlink:href="#SvgjsPath1744" x="450" y="150" stroke="rgba(42, 107, 176, 1)"></use><use xlink:href="#SvgjsPath1747" x="450" y="210" stroke="rgba(42, 107, 176, 1)"></use><use xlink:href="#SvgjsPath1745" x="450" y="270" stroke="rgba(42, 107, 176, 1)"></use><use xlink:href="#SvgjsPath1747" x="450" y="330" stroke="rgba(42, 107, 176, 1)"></use><use xlink:href="#SvgjsPath1745" x="450" y="390" stroke="rgba(42, 107, 176, 1)"></use><use xlink:href="#SvgjsPath1747" x="450" y="450" stroke="rgba(42, 107, 176, 1)"></use><use xlink:href="#SvgjsPath1747" x="450" y="510" stroke="rgba(42, 107, 176, 1)"></use><use xlink:href="#SvgjsPath1744" x="450" y="570" stroke="rgba(42, 107, 176, 1)"></use><use xlink:href="#SvgjsPath1747" x="450" y="630" stroke="rgba(42, 107, 176, 1)"></use><use xlink:href="#SvgjsPath1744" x="450" y="690" stroke="rgba(42, 107, 176, 1)"></use><use xlink:href="#SvgjsPath1745" x="510" y="30" stroke="rgba(42, 107, 176, 1)"></use><use xlink:href="#SvgjsPath1746" x="510" y="90" stroke="rgba(42, 107, 176, 1)" stroke-width="3"></use><use xlink:href="#SvgjsPath1747" x="510" y="150" stroke="rgba(42, 107, 176, 1)"></use><use xlink:href="#SvgjsPath1745" x="510" y="210" stroke="rgba(42, 107, 176, 1)"></use><use xlink:href="#SvgjsPath1746" x="510" y="270" stroke="rgba(42, 107, 176, 1)" stroke-width="3"></use><use xlink:href="#SvgjsPath1747" x="510" y="330" stroke="rgba(42, 107, 176, 1)"></use><use xlink:href="#SvgjsPath1747" x="510" y="390" stroke="rgba(42, 107, 176, 1)"></use><use xlink:href="#SvgjsPath1744" x="510" y="450" stroke="rgba(42, 107, 176, 1)"></use><use xlink:href="#SvgjsPath1747" x="510" y="510" stroke="rgba(42, 107, 176, 1)"></use><use xlink:href="#SvgjsPath1744" x="510" y="570" stroke="rgba(42, 107, 176, 1)"></use><use xlink:href="#SvgjsPath1747" x="510" y="630" stroke="rgba(42, 107, 176, 1)"></use><use xlink:href="#SvgjsPath1745" x="510" y="690" stroke="rgba(42, 107, 176, 1)"></use><use xlink:href="#SvgjsPath1744" x="570" y="30" stroke="rgba(42, 107, 176, 1)"></use><use xlink:href="#SvgjsPath1744" x="570" y="90" stroke="rgba(42, 107, 176, 1)"></use><use xlink:href="#SvgjsPath1747" x="570" y="150" stroke="rgba(42, 107, 176, 1)"></use><use xlink:href="#SvgjsPath1744" x="570" y="210" stroke="rgba(42, 107, 176, 1)"></use><use xlink:href="#SvgjsPath1744" x="570" y="270" stroke="rgba(42, 107, 176, 1)"></use><use xlink:href="#SvgjsPath1744" x="570" y="330" stroke="rgba(42, 107, 176, 1)"></use><use xlink:href="#SvgjsPath1746" x="570" y="390" stroke="rgba(42, 107, 176, 1)" stroke-width="3"></use><use xlink:href="#SvgjsPath1744" x="570" y="450" stroke="rgba(42, 107, 176, 1)"></use><use xlink:href="#SvgjsPath1743" x="570" y="510" stroke="rgba(42, 107, 176, 1)"></use><use xlink:href="#SvgjsPath1747" x="570" y="570" stroke="rgba(42, 107, 176, 1)"></use><use xlink:href="#SvgjsPath1747" x="570" y="630" stroke="rgba(42, 107, 176, 1)"></use><use xlink:href="#SvgjsPath1745" x="570" y="690" stroke="rgba(42, 107, 176, 1)"></use><use xlink:href="#SvgjsPath1744" x="630" y="30" stroke="rgba(42, 107, 176, 1)"></use><use xlink:href="#SvgjsPath1744" x="630" y="90" stroke="rgba(42, 107, 176, 1)"></use><use xlink:href="#SvgjsPath1744" x="630" y="150" stroke="rgba(42, 107, 176, 1)"></use><use xlink:href="#SvgjsPath1748" x="630" y="210" stroke="rgba(42, 107, 176, 1)"></use><use xlink:href="#SvgjsPath1744" x="630" y="270" stroke="rgba(42, 107, 176, 1)"></use><use xlink:href="#SvgjsPath1743" x="630" y="330" stroke="rgba(42, 107, 176, 1)"></use><use xlink:href="#SvgjsPath1745" x="630" y="390" stroke="rgba(42, 107, 176, 1)"></use><use xlink:href="#SvgjsPath1745" x="630" y="450" stroke="rgba(42, 107, 176, 1)"></use><use xlink:href="#SvgjsPath1748" x="630" y="510" stroke="rgba(42, 107, 176, 1)"></use><use xlink:href="#SvgjsPath1744" x="630" y="570" stroke="rgba(42, 107, 176, 1)"></use><use xlink:href="#SvgjsPath1744" x="630" y="630" stroke="rgba(42, 107, 176, 1)"></use><use xlink:href="#SvgjsPath1747" x="630" y="690" stroke="rgba(42, 107, 176, 1)"></use><use xlink:href="#SvgjsPath1744" x="690" y="30" stroke="rgba(42, 107, 176, 1)"></use><use xlink:href="#SvgjsPath1748" x="690" y="90" stroke="rgba(42, 107, 176, 1)"></use><use xlink:href="#SvgjsPath1747" x="690" y="150" stroke="rgba(42, 107, 176, 1)"></use><use xlink:href="#SvgjsPath1744" x="690" y="210" stroke="rgba(42, 107, 176, 1)"></use><use xlink:href="#SvgjsPath1747" x="690" y="270" stroke="rgba(42, 107, 176, 1)"></use><use xlink:href="#SvgjsPath1744" x="690" y="330" stroke="rgba(42, 107, 176, 1)"></use><use xlink:href="#SvgjsPath1746" x="690" y="390" stroke="rgba(42, 107, 176, 1)" stroke-width="3"></use><use xlink:href="#SvgjsPath1747" x="690" y="450" stroke="rgba(42, 107, 176, 1)"></use><use xlink:href="#SvgjsPath1747" x="690" y="510" stroke="rgba(42, 107, 176, 1)"></use><use xlink:href="#SvgjsPath1747" x="690" y="570" stroke="rgba(42, 107, 176, 1)"></use><use xlink:href="#SvgjsPath1747" x="690" y="630" stroke="rgba(42, 107, 176, 1)"></use><use xlink:href="#SvgjsPath1748" x="690" y="690" stroke="rgba(42, 107, 176, 1)"></use></symbol></svg>