<svg xmlns="http://www.w3.org/2000/svg" version="1.1" xmlns:xlink="http://www.w3.org/1999/xlink" xmlns:svgjs="http://svgjs.dev/svgjs" viewBox="0 0 800 800"><g><circle r="32.5" cx="0" cy="0" fill="hsl(247, 85%, 47%)"></circle><circle r="32.5" cx="0" cy="65" fill="hsl(242, 85%, 47%)"></circle><circle r="32.5" cx="0" cy="130" fill="hsl(237, 85%, 47%)"></circle><circle r="32.5" cx="0" cy="195" fill="hsl(232, 85%, 47%)"></circle><circle r="32.5" cx="0" cy="260" fill="hsl(223, 85%, 47%)"></circle><circle r="32.5" cx="0" cy="325" fill="hsl(219, 85%, 47%)"></circle><circle r="32.5" cx="0" cy="390" fill="hsl(215, 85%, 47%)"></circle><circle r="32.5" cx="0" cy="455" fill="hsl(207, 85%, 47%)"></circle><circle r="32.5" cx="0" cy="520" fill="hsl(203, 85%, 47%)"></circle><circle r="32.5" cx="0" cy="585" fill="hsl(200, 85%, 47%)"></circle><circle r="32.5" cx="0" cy="650" fill="hsl(194, 85%, 47%)"></circle><circle r="32.5" cx="0" cy="715" fill="hsl(192, 85%, 47%)"></circle><circle r="32.5" cx="0" cy="780" fill="hsl(190, 85%, 47%)"></circle><circle r="32.5" cx="0" cy="845" fill="hsl(190, 85%, 47%)"></circle><circle r="32.5" cx="65" cy="0" fill="hsl(242, 85%, 47%)"></circle><circle r="32.5" cx="65" cy="65" fill="hsl(237, 85%, 47%)"></circle><circle r="32.5" cx="65" cy="130" fill="hsl(232, 85%, 47%)"></circle><circle r="32.5" cx="65" cy="195" fill="hsl(227, 85%, 47%)"></circle><circle r="32.5" cx="65" cy="260" fill="hsl(218, 85%, 47%)"></circle><circle r="32.5" cx="65" cy="325" fill="hsl(214, 85%, 47%)"></circle><circle r="32.5" cx="65" cy="390" fill="hsl(210, 85%, 47%)"></circle><circle r="32.5" cx="65" cy="455" fill="hsl(202, 85%, 47%)"></circle><circle r="32.5" cx="65" cy="520" fill="hsl(199, 85%, 47%)"></circle><circle r="32.5" cx="65" cy="585" fill="hsl(196, 85%, 47%)"></circle><circle r="32.5" cx="65" cy="650" fill="hsl(191, 85%, 47%)"></circle><circle r="32.5" cx="65" cy="715" fill="hsl(188, 85%, 47%)"></circle><circle r="32.5" cx="65" cy="780" fill="hsl(186, 85%, 47%)"></circle><circle r="32.5" cx="65" cy="845" fill="hsl(186, 85%, 47%)"></circle><circle r="32.5" cx="130" cy="0" fill="hsl(237, 85%, 47%)"></circle><circle r="32.5" cx="130" cy="65" fill="hsl(232, 85%, 47%)"></circle><circle r="32.5" cx="130" cy="130" fill="hsl(227, 85%, 47%)"></circle><circle r="32.5" cx="130" cy="195" fill="hsl(223, 85%, 47%)"></circle><circle r="32.5" cx="130" cy="260" fill="hsl(214, 85%, 47%)"></circle><circle r="32.5" cx="130" cy="325" fill="hsl(210, 85%, 47%)"></circle><circle r="32.5" cx="130" cy="390" fill="hsl(206, 85%, 47%)"></circle><circle r="32.5" cx="130" cy="455" fill="hsl(198, 85%, 47%)"></circle><circle r="32.5" cx="130" cy="520" fill="hsl(195, 85%, 47%)"></circle><circle r="32.5" cx="130" cy="585" fill="hsl(192, 85%, 47%)"></circle><circle r="32.5" cx="130" cy="650" fill="hsl(187, 85%, 47%)"></circle><circle r="32.5" cx="130" cy="715" fill="hsl(185, 85%, 47%)"></circle><circle r="32.5" cx="130" cy="780" fill="hsl(183, 85%, 47%)"></circle><circle r="32.5" cx="130" cy="845" fill="hsl(183, 85%, 47%)"></circle><circle r="32.5" cx="195" cy="0" fill="hsl(232, 85%, 47%)"></circle><circle r="32.5" cx="195" cy="65" fill="hsl(227, 85%, 47%)"></circle><circle r="32.5" cx="195" cy="130" fill="hsl(223, 85%, 47%)"></circle><circle r="32.5" cx="195" cy="195" fill="hsl(218, 85%, 47%)"></circle><circle r="32.5" cx="195" cy="260" fill="hsl(209, 85%, 47%)"></circle><circle r="32.5" cx="195" cy="325" fill="hsl(205, 85%, 47%)"></circle><circle r="32.5" cx="195" cy="390" fill="hsl(201, 85%, 47%)"></circle><circle r="32.5" cx="195" cy="455" fill="hsl(194, 85%, 47%)"></circle><circle r="32.5" cx="195" cy="520" fill="hsl(191, 85%, 47%)"></circle><circle r="32.5" cx="195" cy="585" fill="hsl(188, 85%, 47%)"></circle><circle r="32.5" cx="195" cy="650" fill="hsl(183, 85%, 47%)"></circle><circle r="32.5" cx="195" cy="715" fill="hsl(181, 85%, 47%)"></circle><circle r="32.5" cx="195" cy="780" fill="hsl(179, 85%, 47%)"></circle><circle r="32.5" cx="195" cy="845" fill="hsl(179, 85%, 47%)"></circle><circle r="32.5" cx="260" cy="0" fill="hsl(223, 85%, 47%)"></circle><circle r="32.5" cx="260" cy="65" fill="hsl(218, 85%, 47%)"></circle><circle r="32.5" cx="260" cy="130" fill="hsl(214, 85%, 47%)"></circle><circle r="32.5" cx="260" cy="195" fill="hsl(209, 85%, 47%)"></circle><circle r="32.5" cx="260" cy="260" fill="hsl(201, 85%, 47%)"></circle><circle r="32.5" cx="260" cy="325" fill="hsl(197, 85%, 47%)"></circle><circle r="32.5" cx="260" cy="390" fill="hsl(193, 85%, 47%)"></circle><circle r="32.5" cx="260" cy="455" fill="hsl(186, 85%, 47%)"></circle><circle r="32.5" cx="260" cy="520" fill="hsl(183, 85%, 47%)"></circle><circle r="32.5" cx="260" cy="585" fill="hsl(181, 85%, 47%)"></circle><circle r="32.5" cx="260" cy="650" fill="hsl(176, 85%, 47%)"></circle><circle r="32.5" cx="260" cy="715" fill="hsl(175, 85%, 47%)"></circle><circle r="32.5" cx="260" cy="780" fill="hsl(173, 85%, 47%)"></circle><circle r="32.5" cx="260" cy="845" fill="hsl(173, 85%, 47%)"></circle><circle r="32.5" cx="325" cy="0" fill="hsl(219, 85%, 47%)"></circle><circle r="32.5" cx="325" cy="65" fill="hsl(214, 85%, 47%)"></circle><circle r="32.5" cx="325" cy="130" fill="hsl(210, 85%, 47%)"></circle><circle r="32.5" cx="325" cy="195" fill="hsl(205, 85%, 47%)"></circle><circle r="32.5" cx="325" cy="260" fill="hsl(197, 85%, 47%)"></circle><circle r="32.5" cx="325" cy="325" fill="hsl(193, 85%, 47%)"></circle><circle r="32.5" cx="325" cy="390" fill="hsl(189, 85%, 47%)"></circle><circle r="32.5" cx="325" cy="455" fill="hsl(183, 85%, 47%)"></circle><circle r="32.5" cx="325" cy="520" fill="hsl(180, 85%, 47%)"></circle><circle r="32.5" cx="325" cy="585" fill="hsl(178, 85%, 47%)"></circle><circle r="32.5" cx="325" cy="650" fill="hsl(173, 85%, 47%)"></circle><circle r="32.5" cx="325" cy="715" fill="hsl(172, 85%, 47%)"></circle><circle r="32.5" cx="325" cy="780" fill="hsl(170, 85%, 47%)"></circle><circle r="32.5" cx="325" cy="845" fill="hsl(170, 85%, 47%)"></circle><circle r="32.5" cx="390" cy="0" fill="hsl(215, 85%, 47%)"></circle><circle r="32.5" cx="390" cy="65" fill="hsl(210, 85%, 47%)"></circle><circle r="32.5" cx="390" cy="130" fill="hsl(206, 85%, 47%)"></circle><circle r="32.5" cx="390" cy="195" fill="hsl(201, 85%, 47%)"></circle><circle r="32.5" cx="390" cy="260" fill="hsl(193, 85%, 47%)"></circle><circle r="32.5" cx="390" cy="325" fill="hsl(189, 85%, 47%)"></circle><circle r="32.5" cx="390" cy="390" fill="hsl(186, 85%, 47%)"></circle><circle r="32.5" cx="390" cy="455" fill="hsl(180, 85%, 47%)"></circle><circle r="32.5" cx="390" cy="520" fill="hsl(177, 85%, 47%)"></circle><circle r="32.5" cx="390" cy="585" fill="hsl(175, 85%, 47%)"></circle><circle r="32.5" cx="390" cy="650" fill="hsl(171, 85%, 47%)"></circle><circle r="32.5" cx="390" cy="715" fill="hsl(169, 85%, 47%)"></circle><circle r="32.5" cx="390" cy="780" fill="hsl(168, 85%, 47%)"></circle><circle r="32.5" cx="390" cy="845" fill="hsl(168, 85%, 47%)"></circle><circle r="32.5" cx="455" cy="0" fill="hsl(207, 85%, 47%)"></circle><circle r="32.5" cx="455" cy="65" fill="hsl(202, 85%, 47%)"></circle><circle r="32.5" cx="455" cy="130" fill="hsl(198, 85%, 47%)"></circle><circle r="32.5" cx="455" cy="195" fill="hsl(194, 85%, 47%)"></circle><circle r="32.5" cx="455" cy="260" fill="hsl(186, 85%, 47%)"></circle><circle r="32.5" cx="455" cy="325" fill="hsl(183, 85%, 47%)"></circle><circle r="32.5" cx="455" cy="390" fill="hsl(180, 85%, 47%)"></circle><circle r="32.5" cx="455" cy="455" fill="hsl(174, 85%, 47%)"></circle><circle r="32.5" cx="455" cy="520" fill="hsl(171, 85%, 47%)"></circle><circle r="32.5" cx="455" cy="585" fill="hsl(169, 85%, 47%)"></circle><circle r="32.5" cx="455" cy="650" fill="hsl(166, 85%, 47%)"></circle><circle r="32.5" cx="455" cy="715" fill="hsl(164, 85%, 47%)"></circle><circle r="32.5" cx="455" cy="780" fill="hsl(163, 85%, 47%)"></circle><circle r="32.5" cx="455" cy="845" fill="hsl(163, 85%, 47%)"></circle><circle r="32.5" cx="520" cy="0" fill="hsl(203, 85%, 47%)"></circle><circle r="32.5" cx="520" cy="65" fill="hsl(199, 85%, 47%)"></circle><circle r="32.5" cx="520" cy="130" fill="hsl(195, 85%, 47%)"></circle><circle r="32.5" cx="520" cy="195" fill="hsl(191, 85%, 47%)"></circle><circle r="32.5" cx="520" cy="260" fill="hsl(183, 85%, 47%)"></circle><circle r="32.5" cx="520" cy="325" fill="hsl(180, 85%, 47%)"></circle><circle r="32.5" cx="520" cy="390" fill="hsl(177, 85%, 47%)"></circle><circle r="32.5" cx="520" cy="455" fill="hsl(171, 85%, 47%)"></circle><circle r="32.5" cx="520" cy="520" fill="hsl(169, 85%, 47%)"></circle><circle r="32.5" cx="520" cy="585" fill="hsl(167, 85%, 47%)"></circle><circle r="32.5" cx="520" cy="650" fill="hsl(164, 85%, 47%)"></circle><circle r="32.5" cx="520" cy="715" fill="hsl(162, 85%, 47%)"></circle><circle r="32.5" cx="520" cy="780" fill="hsl(161, 85%, 47%)"></circle><circle r="32.5" cx="520" cy="845" fill="hsl(161, 85%, 47%)"></circle><circle r="32.5" cx="585" cy="0" fill="hsl(200, 85%, 47%)"></circle><circle r="32.5" cx="585" cy="65" fill="hsl(196, 85%, 47%)"></circle><circle r="32.5" cx="585" cy="130" fill="hsl(192, 85%, 47%)"></circle><circle r="32.5" cx="585" cy="195" fill="hsl(188, 85%, 47%)"></circle><circle r="32.5" cx="585" cy="260" fill="hsl(181, 85%, 47%)"></circle><circle r="32.5" cx="585" cy="325" fill="hsl(178, 85%, 47%)"></circle><circle r="32.5" cx="585" cy="390" fill="hsl(175, 85%, 47%)"></circle><circle r="32.5" cx="585" cy="455" fill="hsl(169, 85%, 47%)"></circle><circle r="32.5" cx="585" cy="520" fill="hsl(167, 85%, 47%)"></circle><circle r="32.5" cx="585" cy="585" fill="hsl(165, 85%, 47%)"></circle><circle r="32.5" cx="585" cy="650" fill="hsl(162, 85%, 47%)"></circle><circle r="32.5" cx="585" cy="715" fill="hsl(161, 85%, 47%)"></circle><circle r="32.5" cx="585" cy="780" fill="hsl(160, 85%, 47%)"></circle><circle r="32.5" cx="585" cy="845" fill="hsl(160, 85%, 47%)"></circle><circle r="32.5" cx="650" cy="0" fill="hsl(195, 85%, 47%)"></circle><circle r="32.5" cx="650" cy="65" fill="hsl(191, 85%, 47%)"></circle><circle r="32.5" cx="650" cy="130" fill="hsl(187, 85%, 47%)"></circle><circle r="32.5" cx="650" cy="195" fill="hsl(183, 85%, 47%)"></circle><circle r="32.5" cx="650" cy="260" fill="hsl(176, 85%, 47%)"></circle><circle r="32.5" cx="650" cy="325" fill="hsl(173, 85%, 47%)"></circle><circle r="32.5" cx="650" cy="390" fill="hsl(171, 85%, 47%)"></circle><circle r="32.5" cx="650" cy="455" fill="hsl(166, 85%, 47%)"></circle><circle r="32.5" cx="650" cy="520" fill="hsl(164, 85%, 47%)"></circle><circle r="32.5" cx="650" cy="585" fill="hsl(162, 85%, 47%)"></circle><circle r="32.5" cx="650" cy="650" fill="hsl(159, 85%, 47%)"></circle><circle r="32.5" cx="650" cy="715" fill="hsl(158, 85%, 47%)"></circle><circle r="32.5" cx="650" cy="780" fill="hsl(157, 85%, 47%)"></circle><circle r="32.5" cx="650" cy="845" fill="hsl(157, 85%, 47%)"></circle><circle r="32.5" cx="715" cy="0" fill="hsl(192, 85%, 47%)"></circle><circle r="32.5" cx="715" cy="65" fill="hsl(188, 85%, 47%)"></circle><circle r="32.5" cx="715" cy="130" fill="hsl(185, 85%, 47%)"></circle><circle r="32.5" cx="715" cy="195" fill="hsl(181, 85%, 47%)"></circle><circle r="32.5" cx="715" cy="260" fill="hsl(175, 85%, 47%)"></circle><circle r="32.5" cx="715" cy="325" fill="hsl(172, 85%, 47%)"></circle><circle r="32.5" cx="715" cy="390" fill="hsl(169, 85%, 47%)"></circle><circle r="32.5" cx="715" cy="455" fill="hsl(164, 85%, 47%)"></circle><circle r="32.5" cx="715" cy="520" fill="hsl(162, 85%, 47%)"></circle><circle r="32.5" cx="715" cy="585" fill="hsl(161, 85%, 47%)"></circle><circle r="32.5" cx="715" cy="650" fill="hsl(158, 85%, 47%)"></circle><circle r="32.5" cx="715" cy="715" fill="hsl(157, 85%, 47%)"></circle><circle r="32.5" cx="715" cy="780" fill="hsl(156, 85%, 47%)"></circle><circle r="32.5" cx="715" cy="845" fill="hsl(156, 85%, 47%)"></circle><circle r="32.5" cx="780" cy="0" fill="hsl(190, 85%, 47%)"></circle><circle r="32.5" cx="780" cy="65" fill="hsl(187, 85%, 47%)"></circle><circle r="32.5" cx="780" cy="130" fill="hsl(183, 85%, 47%)"></circle><circle r="32.5" cx="780" cy="195" fill="hsl(180, 85%, 47%)"></circle><circle r="32.5" cx="780" cy="260" fill="hsl(173, 85%, 47%)"></circle><circle r="32.5" cx="780" cy="325" fill="hsl(171, 85%, 47%)"></circle><circle r="32.5" cx="780" cy="390" fill="hsl(168, 85%, 47%)"></circle><circle r="32.5" cx="780" cy="455" fill="hsl(163, 85%, 47%)"></circle><circle r="32.5" cx="780" cy="520" fill="hsl(161, 85%, 47%)"></circle><circle r="32.5" cx="780" cy="585" fill="hsl(160, 85%, 47%)"></circle><circle r="32.5" cx="780" cy="650" fill="hsl(157, 85%, 47%)"></circle><circle r="32.5" cx="780" cy="715" fill="hsl(156, 85%, 47%)"></circle><circle r="32.5" cx="780" cy="780" fill="hsl(155, 85%, 47%)"></circle><circle r="32.5" cx="780" cy="845" fill="hsl(155, 85%, 47%)"></circle><circle r="32.5" cx="845" cy="0" fill="hsl(190, 85%, 47%)"></circle><circle r="32.5" cx="845" cy="65" fill="hsl(187, 85%, 47%)"></circle><circle r="32.5" cx="845" cy="130" fill="hsl(183, 85%, 47%)"></circle><circle r="32.5" cx="845" cy="195" fill="hsl(180, 85%, 47%)"></circle><circle r="32.5" cx="845" cy="260" fill="hsl(173, 85%, 47%)"></circle><circle r="32.5" cx="845" cy="325" fill="hsl(171, 85%, 47%)"></circle><circle r="32.5" cx="845" cy="390" fill="hsl(168, 85%, 47%)"></circle><circle r="32.5" cx="845" cy="455" fill="hsl(163, 85%, 47%)"></circle><circle r="32.5" cx="845" cy="520" fill="hsl(161, 85%, 47%)"></circle><circle r="32.5" cx="845" cy="585" fill="hsl(160, 85%, 47%)"></circle><circle r="32.5" cx="845" cy="650" fill="hsl(157, 85%, 47%)"></circle><circle r="32.5" cx="845" cy="715" fill="hsl(156, 85%, 47%)"></circle><circle r="32.5" cx="845" cy="780" fill="hsl(155, 85%, 47%)"></circle><circle r="32.5" cx="845" cy="845" fill="hsl(155, 85%, 47%)"></circle><circle r="32.5" cx="910" cy="0" fill="hsl(190, 85%, 47%)"></circle><circle r="32.5" cx="910" cy="65" fill="hsl(187, 85%, 47%)"></circle><circle r="32.5" cx="910" cy="130" fill="hsl(183, 85%, 47%)"></circle><circle r="32.5" cx="910" cy="195" fill="hsl(180, 85%, 47%)"></circle><circle r="32.5" cx="910" cy="260" fill="hsl(173, 85%, 47%)"></circle><circle r="32.5" cx="910" cy="325" fill="hsl(171, 85%, 47%)"></circle><circle r="32.5" cx="910" cy="390" fill="hsl(168, 85%, 47%)"></circle><circle r="32.5" cx="910" cy="455" fill="hsl(163, 85%, 47%)"></circle><circle r="32.5" cx="910" cy="520" fill="hsl(161, 85%, 47%)"></circle><circle r="32.5" cx="910" cy="585" fill="hsl(160, 85%, 47%)"></circle><circle r="32.5" cx="910" cy="650" fill="hsl(157, 85%, 47%)"></circle><circle r="32.5" cx="910" cy="715" fill="hsl(156, 85%, 47%)"></circle><circle r="32.5" cx="910" cy="780" fill="hsl(155, 85%, 47%)"></circle><circle r="32.5" cx="910" cy="845" fill="hsl(155, 85%, 47%)"></circle><circle r="32.5" cx="975" cy="0" fill="hsl(190, 85%, 47%)"></circle><circle r="32.5" cx="975" cy="65" fill="hsl(187, 85%, 47%)"></circle><circle r="32.5" cx="975" cy="130" fill="hsl(183, 85%, 47%)"></circle><circle r="32.5" cx="975" cy="195" fill="hsl(180, 85%, 47%)"></circle><circle r="32.5" cx="975" cy="260" fill="hsl(173, 85%, 47%)"></circle><circle r="32.5" cx="975" cy="325" fill="hsl(171, 85%, 47%)"></circle><circle r="32.5" cx="975" cy="390" fill="hsl(168, 85%, 47%)"></circle><circle r="32.5" cx="975" cy="455" fill="hsl(163, 85%, 47%)"></circle><circle r="32.5" cx="975" cy="520" fill="hsl(161, 85%, 47%)"></circle><circle r="32.5" cx="975" cy="585" fill="hsl(160, 85%, 47%)"></circle><circle r="32.5" cx="975" cy="650" fill="hsl(157, 85%, 47%)"></circle><circle r="32.5" cx="975" cy="715" fill="hsl(156, 85%, 47%)"></circle><circle r="32.5" cx="975" cy="780" fill="hsl(155, 85%, 47%)"></circle><circle r="32.5" cx="975" cy="845" fill="hsl(155, 85%, 47%)"></circle></g><g transform="matrix(1,0,0,1,-32.5,0)"><circle r="32.5" cx="0" cy="32.5" fill="hsl(247, 85%, 47%)"></circle><circle r="32.5" cx="0" cy="97.5" fill="hsl(242, 85%, 47%)"></circle><circle r="32.5" cx="0" cy="162.5" fill="hsl(232, 85%, 47%)"></circle><circle r="32.5" cx="0" cy="227.5" fill="hsl(228, 85%, 47%)"></circle><circle r="32.5" cx="0" cy="292.5" fill="hsl(223, 85%, 47%)"></circle><circle r="32.5" cx="0" cy="357.5" fill="hsl(215, 85%, 47%)"></circle><circle r="32.5" cx="0" cy="422.5" fill="hsl(211, 85%, 47%)"></circle><circle r="32.5" cx="0" cy="487.5" fill="hsl(207, 85%, 47%)"></circle><circle r="32.5" cx="0" cy="552.5" fill="hsl(200, 85%, 47%)"></circle><circle r="32.5" cx="0" cy="617.5" fill="hsl(197, 85%, 47%)"></circle><circle r="32.5" cx="0" cy="682.5" fill="hsl(194, 85%, 47%)"></circle><circle r="32.5" cx="0" cy="747.5" fill="hsl(192, 85%, 47%)"></circle><circle r="32.5" cx="0" cy="812.5" fill="hsl(190, 85%, 47%)"></circle><circle r="32.5" cx="0" cy="877.5" fill="hsl(190, 85%, 47%)"></circle><circle r="32.5" cx="65" cy="32.5" fill="hsl(242, 85%, 47%)"></circle><circle r="32.5" cx="65" cy="97.5" fill="hsl(237, 85%, 47%)"></circle><circle r="32.5" cx="65" cy="162.5" fill="hsl(227, 85%, 47%)"></circle><circle r="32.5" cx="65" cy="227.5" fill="hsl(223, 85%, 47%)"></circle><circle r="32.5" cx="65" cy="292.5" fill="hsl(218, 85%, 47%)"></circle><circle r="32.5" cx="65" cy="357.5" fill="hsl(210, 85%, 47%)"></circle><circle r="32.5" cx="65" cy="422.5" fill="hsl(206, 85%, 47%)"></circle><circle r="32.5" cx="65" cy="487.5" fill="hsl(202, 85%, 47%)"></circle><circle r="32.5" cx="65" cy="552.5" fill="hsl(196, 85%, 47%)"></circle><circle r="32.5" cx="65" cy="617.5" fill="hsl(193, 85%, 47%)"></circle><circle r="32.5" cx="65" cy="682.5" fill="hsl(191, 85%, 47%)"></circle><circle r="32.5" cx="65" cy="747.5" fill="hsl(188, 85%, 47%)"></circle><circle r="32.5" cx="65" cy="812.5" fill="hsl(186, 85%, 47%)"></circle><circle r="32.5" cx="65" cy="877.5" fill="hsl(186, 85%, 47%)"></circle><circle r="32.5" cx="130" cy="32.5" fill="hsl(237, 85%, 47%)"></circle><circle r="32.5" cx="130" cy="97.5" fill="hsl(232, 85%, 47%)"></circle><circle r="32.5" cx="130" cy="162.5" fill="hsl(223, 85%, 47%)"></circle><circle r="32.5" cx="130" cy="227.5" fill="hsl(218, 85%, 47%)"></circle><circle r="32.5" cx="130" cy="292.5" fill="hsl(214, 85%, 47%)"></circle><circle r="32.5" cx="130" cy="357.5" fill="hsl(206, 85%, 47%)"></circle><circle r="32.5" cx="130" cy="422.5" fill="hsl(202, 85%, 47%)"></circle><circle r="32.5" cx="130" cy="487.5" fill="hsl(198, 85%, 47%)"></circle><circle r="32.5" cx="130" cy="552.5" fill="hsl(192, 85%, 47%)"></circle><circle r="32.5" cx="130" cy="617.5" fill="hsl(189, 85%, 47%)"></circle><circle r="32.5" cx="130" cy="682.5" fill="hsl(187, 85%, 47%)"></circle><circle r="32.5" cx="130" cy="747.5" fill="hsl(185, 85%, 47%)"></circle><circle r="32.5" cx="130" cy="812.5" fill="hsl(183, 85%, 47%)"></circle><circle r="32.5" cx="130" cy="877.5" fill="hsl(183, 85%, 47%)"></circle><circle r="32.5" cx="195" cy="32.5" fill="hsl(232, 85%, 47%)"></circle><circle r="32.5" cx="195" cy="97.5" fill="hsl(227, 85%, 47%)"></circle><circle r="32.5" cx="195" cy="162.5" fill="hsl(218, 85%, 47%)"></circle><circle r="32.5" cx="195" cy="227.5" fill="hsl(214, 85%, 47%)"></circle><circle r="32.5" cx="195" cy="292.5" fill="hsl(209, 85%, 47%)"></circle><circle r="32.5" cx="195" cy="357.5" fill="hsl(201, 85%, 47%)"></circle><circle r="32.5" cx="195" cy="422.5" fill="hsl(198, 85%, 47%)"></circle><circle r="32.5" cx="195" cy="487.5" fill="hsl(194, 85%, 47%)"></circle><circle r="32.5" cx="195" cy="552.5" fill="hsl(188, 85%, 47%)"></circle><circle r="32.5" cx="195" cy="617.5" fill="hsl(185, 85%, 47%)"></circle><circle r="32.5" cx="195" cy="682.5" fill="hsl(183, 85%, 47%)"></circle><circle r="32.5" cx="195" cy="747.5" fill="hsl(181, 85%, 47%)"></circle><circle r="32.5" cx="195" cy="812.5" fill="hsl(179, 85%, 47%)"></circle><circle r="32.5" cx="195" cy="877.5" fill="hsl(179, 85%, 47%)"></circle><circle r="32.5" cx="260" cy="32.5" fill="hsl(223, 85%, 47%)"></circle><circle r="32.5" cx="260" cy="97.5" fill="hsl(218, 85%, 47%)"></circle><circle r="32.5" cx="260" cy="162.5" fill="hsl(209, 85%, 47%)"></circle><circle r="32.5" cx="260" cy="227.5" fill="hsl(205, 85%, 47%)"></circle><circle r="32.5" cx="260" cy="292.5" fill="hsl(201, 85%, 47%)"></circle><circle r="32.5" cx="260" cy="357.5" fill="hsl(193, 85%, 47%)"></circle><circle r="32.5" cx="260" cy="422.5" fill="hsl(190, 85%, 47%)"></circle><circle r="32.5" cx="260" cy="487.5" fill="hsl(186, 85%, 47%)"></circle><circle r="32.5" cx="260" cy="552.5" fill="hsl(181, 85%, 47%)"></circle><circle r="32.5" cx="260" cy="617.5" fill="hsl(178, 85%, 47%)"></circle><circle r="32.5" cx="260" cy="682.5" fill="hsl(176, 85%, 47%)"></circle><circle r="32.5" cx="260" cy="747.5" fill="hsl(175, 85%, 47%)"></circle><circle r="32.5" cx="260" cy="812.5" fill="hsl(173, 85%, 47%)"></circle><circle r="32.5" cx="260" cy="877.5" fill="hsl(173, 85%, 47%)"></circle><circle r="32.5" cx="325" cy="32.5" fill="hsl(219, 85%, 47%)"></circle><circle r="32.5" cx="325" cy="97.5" fill="hsl(214, 85%, 47%)"></circle><circle r="32.5" cx="325" cy="162.5" fill="hsl(205, 85%, 47%)"></circle><circle r="32.5" cx="325" cy="227.5" fill="hsl(201, 85%, 47%)"></circle><circle r="32.5" cx="325" cy="292.5" fill="hsl(197, 85%, 47%)"></circle><circle r="32.5" cx="325" cy="357.5" fill="hsl(189, 85%, 47%)"></circle><circle r="32.5" cx="325" cy="422.5" fill="hsl(186, 85%, 47%)"></circle><circle r="32.5" cx="325" cy="487.5" fill="hsl(183, 85%, 47%)"></circle><circle r="32.5" cx="325" cy="552.5" fill="hsl(178, 85%, 47%)"></circle><circle r="32.5" cx="325" cy="617.5" fill="hsl(175, 85%, 47%)"></circle><circle r="32.5" cx="325" cy="682.5" fill="hsl(173, 85%, 47%)"></circle><circle r="32.5" cx="325" cy="747.5" fill="hsl(172, 85%, 47%)"></circle><circle r="32.5" cx="325" cy="812.5" fill="hsl(170, 85%, 47%)"></circle><circle r="32.5" cx="325" cy="877.5" fill="hsl(170, 85%, 47%)"></circle><circle r="32.5" cx="390" cy="32.5" fill="hsl(215, 85%, 47%)"></circle><circle r="32.5" cx="390" cy="97.5" fill="hsl(210, 85%, 47%)"></circle><circle r="32.5" cx="390" cy="162.5" fill="hsl(201, 85%, 47%)"></circle><circle r="32.5" cx="390" cy="227.5" fill="hsl(197, 85%, 47%)"></circle><circle r="32.5" cx="390" cy="292.5" fill="hsl(193, 85%, 47%)"></circle><circle r="32.5" cx="390" cy="357.5" fill="hsl(186, 85%, 47%)"></circle><circle r="32.5" cx="390" cy="422.5" fill="hsl(183, 85%, 47%)"></circle><circle r="32.5" cx="390" cy="487.5" fill="hsl(180, 85%, 47%)"></circle><circle r="32.5" cx="390" cy="552.5" fill="hsl(175, 85%, 47%)"></circle><circle r="32.5" cx="390" cy="617.5" fill="hsl(172, 85%, 47%)"></circle><circle r="32.5" cx="390" cy="682.5" fill="hsl(171, 85%, 47%)"></circle><circle r="32.5" cx="390" cy="747.5" fill="hsl(169, 85%, 47%)"></circle><circle r="32.5" cx="390" cy="812.5" fill="hsl(168, 85%, 47%)"></circle><circle r="32.5" cx="390" cy="877.5" fill="hsl(168, 85%, 47%)"></circle><circle r="32.5" cx="455" cy="32.5" fill="hsl(207, 85%, 47%)"></circle><circle r="32.5" cx="455" cy="97.5" fill="hsl(202, 85%, 47%)"></circle><circle r="32.5" cx="455" cy="162.5" fill="hsl(194, 85%, 47%)"></circle><circle r="32.5" cx="455" cy="227.5" fill="hsl(190, 85%, 47%)"></circle><circle r="32.5" cx="455" cy="292.5" fill="hsl(186, 85%, 47%)"></circle><circle r="32.5" cx="455" cy="357.5" fill="hsl(180, 85%, 47%)"></circle><circle r="32.5" cx="455" cy="422.5" fill="hsl(177, 85%, 47%)"></circle><circle r="32.5" cx="455" cy="487.5" fill="hsl(174, 85%, 47%)"></circle><circle r="32.5" cx="455" cy="552.5" fill="hsl(169, 85%, 47%)"></circle><circle r="32.5" cx="455" cy="617.5" fill="hsl(167, 85%, 47%)"></circle><circle r="32.5" cx="455" cy="682.5" fill="hsl(166, 85%, 47%)"></circle><circle r="32.5" cx="455" cy="747.5" fill="hsl(164, 85%, 47%)"></circle><circle r="32.5" cx="455" cy="812.5" fill="hsl(163, 85%, 47%)"></circle><circle r="32.5" cx="455" cy="877.5" fill="hsl(163, 85%, 47%)"></circle><circle r="32.5" cx="520" cy="32.5" fill="hsl(203, 85%, 47%)"></circle><circle r="32.5" cx="520" cy="97.5" fill="hsl(199, 85%, 47%)"></circle><circle r="32.5" cx="520" cy="162.5" fill="hsl(191, 85%, 47%)"></circle><circle r="32.5" cx="520" cy="227.5" fill="hsl(187, 85%, 47%)"></circle><circle r="32.5" cx="520" cy="292.5" fill="hsl(183, 85%, 47%)"></circle><circle r="32.5" cx="520" cy="357.5" fill="hsl(177, 85%, 47%)"></circle><circle r="32.5" cx="520" cy="422.5" fill="hsl(174, 85%, 47%)"></circle><circle r="32.5" cx="520" cy="487.5" fill="hsl(171, 85%, 47%)"></circle><circle r="32.5" cx="520" cy="552.5" fill="hsl(167, 85%, 47%)"></circle><circle r="32.5" cx="520" cy="617.5" fill="hsl(165, 85%, 47%)"></circle><circle r="32.5" cx="520" cy="682.5" fill="hsl(164, 85%, 47%)"></circle><circle r="32.5" cx="520" cy="747.5" fill="hsl(162, 85%, 47%)"></circle><circle r="32.5" cx="520" cy="812.5" fill="hsl(161, 85%, 47%)"></circle><circle r="32.5" cx="520" cy="877.5" fill="hsl(161, 85%, 47%)"></circle><circle r="32.5" cx="585" cy="32.5" fill="hsl(200, 85%, 47%)"></circle><circle r="32.5" cx="585" cy="97.5" fill="hsl(196, 85%, 47%)"></circle><circle r="32.5" cx="585" cy="162.5" fill="hsl(188, 85%, 47%)"></circle><circle r="32.5" cx="585" cy="227.5" fill="hsl(184, 85%, 47%)"></circle><circle r="32.5" cx="585" cy="292.5" fill="hsl(181, 85%, 47%)"></circle><circle r="32.5" cx="585" cy="357.5" fill="hsl(175, 85%, 47%)"></circle><circle r="32.5" cx="585" cy="422.5" fill="hsl(172, 85%, 47%)"></circle><circle r="32.5" cx="585" cy="487.5" fill="hsl(169, 85%, 47%)"></circle><circle r="32.5" cx="585" cy="552.5" fill="hsl(165, 85%, 47%)"></circle><circle r="32.5" cx="585" cy="617.5" fill="hsl(163, 85%, 47%)"></circle><circle r="32.5" cx="585" cy="682.5" fill="hsl(162, 85%, 47%)"></circle><circle r="32.5" cx="585" cy="747.5" fill="hsl(161, 85%, 47%)"></circle><circle r="32.5" cx="585" cy="812.5" fill="hsl(160, 85%, 47%)"></circle><circle r="32.5" cx="585" cy="877.5" fill="hsl(160, 85%, 47%)"></circle><circle r="32.5" cx="650" cy="32.5" fill="hsl(195, 85%, 47%)"></circle><circle r="32.5" cx="650" cy="97.5" fill="hsl(191, 85%, 47%)"></circle><circle r="32.5" cx="650" cy="162.5" fill="hsl(183, 85%, 47%)"></circle><circle r="32.5" cx="650" cy="227.5" fill="hsl(180, 85%, 47%)"></circle><circle r="32.5" cx="650" cy="292.5" fill="hsl(176, 85%, 47%)"></circle><circle r="32.5" cx="650" cy="357.5" fill="hsl(171, 85%, 47%)"></circle><circle r="32.5" cx="650" cy="422.5" fill="hsl(168, 85%, 47%)"></circle><circle r="32.5" cx="650" cy="487.5" fill="hsl(166, 85%, 47%)"></circle><circle r="32.5" cx="650" cy="552.5" fill="hsl(162, 85%, 47%)"></circle><circle r="32.5" cx="650" cy="617.5" fill="hsl(160, 85%, 47%)"></circle><circle r="32.5" cx="650" cy="682.5" fill="hsl(159, 85%, 47%)"></circle><circle r="32.5" cx="650" cy="747.5" fill="hsl(158, 85%, 47%)"></circle><circle r="32.5" cx="650" cy="812.5" fill="hsl(157, 85%, 47%)"></circle><circle r="32.5" cx="650" cy="877.5" fill="hsl(157, 85%, 47%)"></circle><circle r="32.5" cx="715" cy="32.5" fill="hsl(192, 85%, 47%)"></circle><circle r="32.5" cx="715" cy="97.5" fill="hsl(188, 85%, 47%)"></circle><circle r="32.5" cx="715" cy="162.5" fill="hsl(181, 85%, 47%)"></circle><circle r="32.5" cx="715" cy="227.5" fill="hsl(178, 85%, 47%)"></circle><circle r="32.5" cx="715" cy="292.5" fill="hsl(175, 85%, 47%)"></circle><circle r="32.5" cx="715" cy="357.5" fill="hsl(169, 85%, 47%)"></circle><circle r="32.5" cx="715" cy="422.5" fill="hsl(167, 85%, 47%)"></circle><circle r="32.5" cx="715" cy="487.5" fill="hsl(164, 85%, 47%)"></circle><circle r="32.5" cx="715" cy="552.5" fill="hsl(161, 85%, 47%)"></circle><circle r="32.5" cx="715" cy="617.5" fill="hsl(159, 85%, 47%)"></circle><circle r="32.5" cx="715" cy="682.5" fill="hsl(158, 85%, 47%)"></circle><circle r="32.5" cx="715" cy="747.5" fill="hsl(157, 85%, 47%)"></circle><circle r="32.5" cx="715" cy="812.5" fill="hsl(156, 85%, 47%)"></circle><circle r="32.5" cx="715" cy="877.5" fill="hsl(156, 85%, 47%)"></circle><circle r="32.5" cx="780" cy="32.5" fill="hsl(190, 85%, 47%)"></circle><circle r="32.5" cx="780" cy="97.5" fill="hsl(187, 85%, 47%)"></circle><circle r="32.5" cx="780" cy="162.5" fill="hsl(180, 85%, 47%)"></circle><circle r="32.5" cx="780" cy="227.5" fill="hsl(176, 85%, 47%)"></circle><circle r="32.5" cx="780" cy="292.5" fill="hsl(173, 85%, 47%)"></circle><circle r="32.5" cx="780" cy="357.5" fill="hsl(168, 85%, 47%)"></circle><circle r="32.5" cx="780" cy="422.5" fill="hsl(165, 85%, 47%)"></circle><circle r="32.5" cx="780" cy="487.5" fill="hsl(163, 85%, 47%)"></circle><circle r="32.5" cx="780" cy="552.5" fill="hsl(160, 85%, 47%)"></circle><circle r="32.5" cx="780" cy="617.5" fill="hsl(158, 85%, 47%)"></circle><circle r="32.5" cx="780" cy="682.5" fill="hsl(157, 85%, 47%)"></circle><circle r="32.5" cx="780" cy="747.5" fill="hsl(156, 85%, 47%)"></circle><circle r="32.5" cx="780" cy="812.5" fill="hsl(155, 85%, 47%)"></circle><circle r="32.5" cx="780" cy="877.5" fill="hsl(155, 85%, 47%)"></circle><circle r="32.5" cx="845" cy="32.5" fill="hsl(190, 85%, 47%)"></circle><circle r="32.5" cx="845" cy="97.5" fill="hsl(187, 85%, 47%)"></circle><circle r="32.5" cx="845" cy="162.5" fill="hsl(180, 85%, 47%)"></circle><circle r="32.5" cx="845" cy="227.5" fill="hsl(176, 85%, 47%)"></circle><circle r="32.5" cx="845" cy="292.5" fill="hsl(173, 85%, 47%)"></circle><circle r="32.5" cx="845" cy="357.5" fill="hsl(168, 85%, 47%)"></circle><circle r="32.5" cx="845" cy="422.5" fill="hsl(165, 85%, 47%)"></circle><circle r="32.5" cx="845" cy="487.5" fill="hsl(163, 85%, 47%)"></circle><circle r="32.5" cx="845" cy="552.5" fill="hsl(160, 85%, 47%)"></circle><circle r="32.5" cx="845" cy="617.5" fill="hsl(158, 85%, 47%)"></circle><circle r="32.5" cx="845" cy="682.5" fill="hsl(157, 85%, 47%)"></circle><circle r="32.5" cx="845" cy="747.5" fill="hsl(156, 85%, 47%)"></circle><circle r="32.5" cx="845" cy="812.5" fill="hsl(155, 85%, 47%)"></circle><circle r="32.5" cx="845" cy="877.5" fill="hsl(155, 85%, 47%)"></circle><circle r="32.5" cx="910" cy="32.5" fill="hsl(190, 85%, 47%)"></circle><circle r="32.5" cx="910" cy="97.5" fill="hsl(187, 85%, 47%)"></circle><circle r="32.5" cx="910" cy="162.5" fill="hsl(180, 85%, 47%)"></circle><circle r="32.5" cx="910" cy="227.5" fill="hsl(176, 85%, 47%)"></circle><circle r="32.5" cx="910" cy="292.5" fill="hsl(173, 85%, 47%)"></circle><circle r="32.5" cx="910" cy="357.5" fill="hsl(168, 85%, 47%)"></circle><circle r="32.5" cx="910" cy="422.5" fill="hsl(165, 85%, 47%)"></circle><circle r="32.5" cx="910" cy="487.5" fill="hsl(163, 85%, 47%)"></circle><circle r="32.5" cx="910" cy="552.5" fill="hsl(160, 85%, 47%)"></circle><circle r="32.5" cx="910" cy="617.5" fill="hsl(158, 85%, 47%)"></circle><circle r="32.5" cx="910" cy="682.5" fill="hsl(157, 85%, 47%)"></circle><circle r="32.5" cx="910" cy="747.5" fill="hsl(156, 85%, 47%)"></circle><circle r="32.5" cx="910" cy="812.5" fill="hsl(155, 85%, 47%)"></circle><circle r="32.5" cx="910" cy="877.5" fill="hsl(155, 85%, 47%)"></circle><circle r="32.5" cx="975" cy="32.5" fill="hsl(190, 85%, 47%)"></circle><circle r="32.5" cx="975" cy="97.5" fill="hsl(187, 85%, 47%)"></circle><circle r="32.5" cx="975" cy="162.5" fill="hsl(180, 85%, 47%)"></circle><circle r="32.5" cx="975" cy="227.5" fill="hsl(176, 85%, 47%)"></circle><circle r="32.5" cx="975" cy="292.5" fill="hsl(173, 85%, 47%)"></circle><circle r="32.5" cx="975" cy="357.5" fill="hsl(168, 85%, 47%)"></circle><circle r="32.5" cx="975" cy="422.5" fill="hsl(165, 85%, 47%)"></circle><circle r="32.5" cx="975" cy="487.5" fill="hsl(163, 85%, 47%)"></circle><circle r="32.5" cx="975" cy="552.5" fill="hsl(160, 85%, 47%)"></circle><circle r="32.5" cx="975" cy="617.5" fill="hsl(158, 85%, 47%)"></circle><circle r="32.5" cx="975" cy="682.5" fill="hsl(157, 85%, 47%)"></circle><circle r="32.5" cx="975" cy="747.5" fill="hsl(156, 85%, 47%)"></circle><circle r="32.5" cx="975" cy="812.5" fill="hsl(155, 85%, 47%)"></circle><circle r="32.5" cx="975" cy="877.5" fill="hsl(155, 85%, 47%)"></circle></g></svg>