<svg id="visual" viewBox="0 0 3840 2160" width="3840" height="2160" xmlns="http://www.w3.org/2000/svg" xmlns:xlink="http://www.w3.org/1999/xlink" version="1.1"><path d="M0 109L35.5 109C71 109 142 109 213.2 90.8C284.3 72.7 355.7 36.3 426.8 43.5C498 50.7 569 101.3 640 130.3C711 159.3 782 166.7 853.2 145.2C924.3 123.7 995.7 73.3 1066.8 58.8C1138 44.3 1209 65.7 1280 87.2C1351 108.7 1422 130.3 1493.2 130.3C1564.3 130.3 1635.7 108.7 1706.8 112.3C1778 116 1849 145 1920 152.3C1991 159.7 2062 145.3 2133.2 134.5C2204.3 123.7 2275.7 116.3 2346.8 123.5C2418 130.7 2489 152.3 2560 141.5C2631 130.7 2702 87.3 2773.2 62.2C2844.3 37 2915.7 30 2986.8 48C3058 66 3129 109 3200 127C3271 145 3342 138 3413.2 138C3484.3 138 3555.7 145 3626.8 134.2C3698 123.3 3769 94.7 3804.5 80.3L3840 66L3840 0L3804.5 0C3769 0 3698 0 3626.8 0C3555.7 0 3484.3 0 3413.2 0C3342 0 3271 0 3200 0C3129 0 3058 0 2986.8 0C2915.7 0 2844.3 0 2773.2 0C2702 0 2631 0 2560 0C2489 0 2418 0 2346.8 0C2275.7 0 2204.3 0 2133.2 0C2062 0 1991 0 1920 0C1849 0 1778 0 1706.8 0C1635.7 0 1564.3 0 1493.2 0C1422 0 1351 0 1280 0C1209 0 1138 0 1066.8 0C995.7 0 924.3 0 853.2 0C782 0 711 0 640 0C569 0 498 0 426.8 0C355.7 0 284.3 0 213.2 0C142 0 71 0 35.5 0L0 0Z" fill="#fff500"></path><path d="M0 303L35.5 281.5C71 260 142 217 213.2 195.5C284.3 174 355.7 174 426.8 181.2C498 188.3 569 202.7 640 227.8C711 253 782 289 853.2 278.2C924.3 267.3 995.7 209.7 1066.8 191.7C1138 173.7 1209 195.3 1280 202.5C1351 209.7 1422 202.3 1493.2 206C1564.3 209.7 1635.7 224.3 1706.8 231.7C1778 239 1849 239 1920 257C1991 275 2062 311 2133.2 321.7C2204.3 332.3 2275.7 317.7 2346.8 317.7C2418 317.7 2489 332.3 2560 314.3C2631 296.3 2702 245.7 2773.2 231.2C2844.3 216.7 2915.7 238.3 2986.8 252.8C3058 267.3 3129 274.7 3200 271.2C3271 267.7 3342 253.3 3413.2 249.7C3484.3 246 3555.7 253 3626.8 267.3C3698 281.7 3769 303.3 3804.5 314.2L3840 325L3840 64L3804.5 78.3C3769 92.7 3698 121.3 3626.8 132.2C3555.7 143 3484.3 136 3413.2 136C3342 136 3271 143 3200 125C3129 107 3058 64 2986.8 46C2915.7 28 2844.3 35 2773.2 60.2C2702 85.3 2631 128.7 2560 139.5C2489 150.3 2418 128.7 2346.8 121.5C2275.7 114.3 2204.3 121.7 2133.2 132.5C2062 143.3 1991 157.7 1920 150.3C1849 143 1778 114 1706.8 110.3C1635.7 106.7 1564.3 128.3 1493.2 128.3C1422 128.3 1351 106.7 1280 85.2C1209 63.7 1138 42.3 1066.8 56.8C995.7 71.3 924.3 121.7 853.2 143.2C782 164.7 711 157.3 640 128.7C569 100 498 50 426.8 42.8C355.7 35.7 284.3 71.3 213.2 89.2C142 107 71 107 35.5 107L0 107Z" fill="#ffe300"></path><path d="M0 325L35.5 332.2C71 339.3 142 353.7 213.2 332C284.3 310.3 355.7 252.7 426.8 241.8C498 231 569 267 640 295.8C711 324.7 782 346.3 853.2 332C924.3 317.7 995.7 267.3 1066.8 245.8C1138 224.3 1209 231.7 1280 253.3C1351 275 1422 311 1493.2 318.2C1564.3 325.3 1635.7 303.7 1706.8 303.7C1778 303.7 1849 325.3 1920 343.3C1991 361.3 2062 375.7 2133.2 386.3C2204.3 397 2275.7 404 2346.8 404C2418 404 2489 397 2560 389.8C2631 382.7 2702 375.3 2773.2 353.7C2844.3 332 2915.7 296 2986.8 303.2C3058 310.3 3129 360.7 3200 385.8C3271 411 3342 411 3413.2 393C3484.3 375 3555.7 339 3626.8 331.8C3698 324.7 3769 346.3 3804.5 357.2L3840 368L3840 323L3804.5 312.2C3769 301.3 3698 279.7 3626.8 265.3C3555.7 251 3484.3 244 3413.2 247.7C3342 251.3 3271 265.7 3200 269.2C3129 272.7 3058 265.3 2986.8 250.8C2915.7 236.3 2844.3 214.7 2773.2 229.2C2702 243.7 2631 294.3 2560 312.3C2489 330.3 2418 315.7 2346.8 315.7C2275.7 315.7 2204.3 330.3 2133.2 319.7C2062 309 1991 273 1920 255C1849 237 1778 237 1706.8 229.7C1635.7 222.3 1564.3 207.7 1493.2 204C1422 200.3 1351 207.7 1280 200.5C1209 193.3 1138 171.7 1066.8 189.7C995.7 207.7 924.3 265.3 853.2 276.2C782 287 711 251 640 225.8C569 200.7 498 186.3 426.8 179.2C355.7 172 284.3 172 213.2 193.5C142 215 71 258 35.5 279.5L0 301Z" fill="#ffd100"></path><path d="M0 390L35.5 397.2C71 404.3 142 418.7 213.2 393.5C284.3 368.3 355.7 303.7 426.8 307.3C498 311 569 383 640 415.3C711 447.7 782 440.3 853.2 418.7C924.3 397 995.7 361 1066.8 361C1138 361 1209 397 1280 415C1351 433 1422 433 1493.2 407.8C1564.3 382.7 1635.7 332.3 1706.8 336C1778 339.7 1849 397.3 1920 433.3C1991 469.3 2062 483.7 2133.2 508.8C2204.3 534 2275.7 570 2346.8 562.8C2418 555.7 2489 505.3 2560 483.7C2631 462 2702 469 2773.2 461.7C2844.3 454.3 2915.7 432.7 2986.8 443.5C3058 454.3 3129 497.7 3200 501.3C3271 505 3342 469 3413.2 440.2C3484.3 411.3 3555.7 389.7 3626.8 386C3698 382.3 3769 396.7 3804.5 403.8L3840 411L3840 366L3804.5 355.2C3769 344.3 3698 322.7 3626.8 329.8C3555.7 337 3484.3 373 3413.2 391C3342 409 3271 409 3200 383.8C3129 358.7 3058 308.3 2986.8 301.2C2915.7 294 2844.3 330 2773.2 351.7C2702 373.3 2631 380.7 2560 387.8C2489 395 2418 402 2346.8 402C2275.7 402 2204.3 395 2133.2 384.3C2062 373.7 1991 359.3 1920 341.3C1849 323.3 1778 301.7 1706.8 301.7C1635.7 301.7 1564.3 323.3 1493.2 316.2C1422 309 1351 273 1280 251.3C1209 229.7 1138 222.3 1066.8 243.8C995.7 265.3 924.3 315.7 853.2 330C782 344.3 711 322.7 640 293.8C569 265 498 229 426.8 239.8C355.7 250.7 284.3 308.3 213.2 330C142 351.7 71 337.3 35.5 330.2L0 323Z" fill="#ffbf00"></path><path d="M0 627L35.5 634.3C71 641.7 142 656.3 213.2 609.7C284.3 563 355.7 455 426.8 447.7C498 440.3 569 533.7 640 576.8C711 620 782 613 853.2 634.7C924.3 656.3 995.7 706.7 1066.8 742.7C1138 778.7 1209 800.3 1280 757.2C1351 714 1422 606 1493.2 562.8C1564.3 519.7 1635.7 541.3 1706.8 555.7C1778 570 1849 577 1920 623.7C1991 670.3 2062 756.7 2133.2 807.2C2204.3 857.7 2275.7 872.3 2346.8 811.2C2418 750 2489 613 2560 587.7C2631 562.3 2702 648.7 2773.2 641.5C2844.3 634.3 2915.7 533.7 2986.8 544.5C3058 555.3 3129 677.7 3200 706.5C3271 735.3 3342 670.7 3413.2 602.3C3484.3 534 3555.7 462 3626.8 465.5C3698 469 3769 548 3804.5 587.5L3840 627L3840 409L3804.5 401.8C3769 394.7 3698 380.3 3626.8 384C3555.7 387.7 3484.3 409.3 3413.2 438.2C3342 467 3271 503 3200 499.3C3129 495.7 3058 452.3 2986.8 441.5C2915.7 430.7 2844.3 452.3 2773.2 459.7C2702 467 2631 460 2560 481.7C2489 503.3 2418 553.7 2346.8 560.8C2275.7 568 2204.3 532 2133.2 506.8C2062 481.7 1991 467.3 1920 431.3C1849 395.3 1778 337.7 1706.8 334C1635.7 330.3 1564.3 380.7 1493.2 405.8C1422 431 1351 431 1280 413C1209 395 1138 359 1066.8 359C995.7 359 924.3 395 853.2 416.7C782 438.3 711 445.7 640 413.3C569 381 498 309 426.8 305.3C355.7 301.7 284.3 366.3 213.2 391.5C142 416.7 71 402.3 35.5 395.2L0 388Z" fill="#ffad00"></path><path d="M0 1103L35.5 1038.2C71 973.3 142 843.7 213.2 789.7C284.3 735.7 355.7 757.3 426.8 750.2C498 743 569 707 640 717.7C711 728.3 782 785.7 853.2 868.3C924.3 951 995.7 1059 1066.8 1156.3C1138 1253.7 1209 1340.3 1280 1250.3C1351 1160.3 1422 893.7 1493.2 839.7C1564.3 785.7 1635.7 944.3 1706.8 969.7C1778 995 1849 887 1920 905C1991 923 2062 1067 2133.2 1157C2204.3 1247 2275.7 1283 2346.8 1301C2418 1319 2489 1319 2560 1283C2631 1247 2702 1175 2773.2 1049C2844.3 923 2915.7 743 2986.8 717.7C3058 692.3 3129 821.7 3200 972.8C3271 1124 3342 1297 3413.2 1365.5C3484.3 1434 3555.7 1398 3626.8 1272C3698 1146 3769 930 3804.5 822L3840 714L3840 625L3804.5 585.5C3769 546 3698 467 3626.8 463.5C3555.7 460 3484.3 532 3413.2 600.3C3342 668.7 3271 733.3 3200 704.5C3129 675.7 3058 553.3 2986.8 542.5C2915.7 531.7 2844.3 632.3 2773.2 639.5C2702 646.7 2631 560.3 2560 585.7C2489 611 2418 748 2346.8 809.2C2275.7 870.3 2204.3 855.7 2133.2 805.2C2062 754.7 1991 668.3 1920 621.7C1849 575 1778 568 1706.8 553.7C1635.7 539.3 1564.3 517.7 1493.2 560.8C1422 604 1351 712 1280 755.2C1209 798.3 1138 776.7 1066.8 740.7C995.7 704.7 924.3 654.3 853.2 632.7C782 611 711 618 640 574.8C569 531.7 498 438.3 426.8 445.7C355.7 453 284.3 561 213.2 607.7C142 654.3 71 639.7 35.5 632.3L0 625Z" fill="#ff9b00"></path><path d="M0 1146L35.5 1077.5C71 1009 142 872 213.2 825.2C284.3 778.3 355.7 821.7 426.8 814.5C498 807.3 569 749.7 640 753.3C711 757 782 822 853.2 908.5C924.3 995 995.7 1103 1066.8 1200.2C1138 1297.3 1209 1383.7 1280 1311.7C1351 1239.7 1422 1009.3 1493.2 948.2C1564.3 887 1635.7 995 1706.8 1009.3C1778 1023.7 1849 944.3 1920 965.8C1991 987.3 2062 1109.7 2133.2 1203.3C2204.3 1297 2275.7 1362 2346.8 1390.8C2418 1419.7 2489 1412.3 2560 1379.8C2631 1347.3 2702 1289.7 2773.2 1170.8C2844.3 1052 2915.7 872 2986.8 843.2C3058 814.3 3129 936.7 3200 1073.5C3271 1210.3 3342 1361.7 3413.2 1423C3484.3 1484.3 3555.7 1455.7 3626.8 1347.7C3698 1239.7 3769 1052.3 3804.5 958.7L3840 865L3840 712L3804.5 820C3769 928 3698 1144 3626.8 1270C3555.7 1396 3484.3 1432 3413.2 1363.5C3342 1295 3271 1122 3200 970.8C3129 819.7 3058 690.3 2986.8 715.7C2915.7 741 2844.3 921 2773.2 1047C2702 1173 2631 1245 2560 1281C2489 1317 2418 1317 2346.8 1299C2275.7 1281 2204.3 1245 2133.2 1155C2062 1065 1991 921 1920 903C1849 885 1778 993 1706.8 967.7C1635.7 942.3 1564.3 783.7 1493.2 837.7C1422 891.7 1351 1158.3 1280 1248.3C1209 1338.3 1138 1251.7 1066.8 1154.3C995.7 1057 924.3 949 853.2 866.3C782 783.7 711 726.3 640 715.7C569 705 498 741 426.8 748.2C355.7 755.3 284.3 733.7 213.2 787.7C142 841.7 71 971.3 35.5 1036.2L0 1101Z" fill="#ff8909"></path><path d="M0 1189L35.5 1135C71 1081 142 973 213.2 951.3C284.3 929.7 355.7 994.3 426.8 983.5C498 972.7 569 886.3 640 872C711 857.7 782 915.3 853.2 991C924.3 1066.7 995.7 1160.3 1066.8 1272C1138 1383.7 1209 1513.3 1280 1441.3C1351 1369.3 1422 1095.7 1493.2 1034.3C1564.3 973 1635.7 1124 1706.8 1149.2C1778 1174.3 1849 1073.7 1920 1081C1991 1088.3 2062 1203.7 2133.2 1286.5C2204.3 1369.3 2275.7 1419.7 2346.8 1459.2C2418 1498.7 2489 1527.3 2560 1516.5C2631 1505.7 2702 1455.3 2773.2 1340.2C2844.3 1225 2915.7 1045 2986.8 1012.7C3058 980.3 3129 1095.7 3200 1232.5C3271 1369.3 3342 1527.7 3413.2 1588.8C3484.3 1650 3555.7 1614 3626.8 1477.2C3698 1340.3 3769 1102.7 3804.5 983.8L3840 865L3840 863L3804.5 956.7C3769 1050.3 3698 1237.7 3626.8 1345.7C3555.7 1453.7 3484.3 1482.3 3413.2 1421C3342 1359.7 3271 1208.3 3200 1071.5C3129 934.7 3058 812.3 2986.8 841.2C2915.7 870 2844.3 1050 2773.2 1168.8C2702 1287.7 2631 1345.3 2560 1377.8C2489 1410.3 2418 1417.7 2346.8 1388.8C2275.7 1360 2204.3 1295 2133.2 1201.3C2062 1107.7 1991 985.3 1920 963.8C1849 942.3 1778 1021.7 1706.8 1007.3C1635.7 993 1564.3 885 1493.2 946.2C1422 1007.3 1351 1237.7 1280 1309.7C1209 1381.7 1138 1295.3 1066.8 1198.2C995.7 1101 924.3 993 853.2 906.5C782 820 711 755 640 751.3C569 747.7 498 805.3 426.8 812.5C355.7 819.7 284.3 776.3 213.2 823.2C142 870 71 1007 35.5 1075.5L0 1144Z" fill="#ff771a"></path><path d="M0 1470L35.5 1516.8C71 1563.7 142 1657.3 213.2 1714.8C284.3 1772.3 355.7 1793.7 426.8 1786.3C498 1779 569 1743 640 1725C711 1707 782 1707 853.2 1764.7C924.3 1822.3 995.7 1937.7 1066.8 1970.2C1138 2002.7 1209 1952.3 1280 1840.7C1351 1729 1422 1556 1493.2 1462.3C1564.3 1368.7 1635.7 1354.3 1706.8 1358C1778 1361.7 1849 1383.3 1920 1426.5C1991 1469.7 2062 1534.3 2133.2 1556C2204.3 1577.7 2275.7 1556.3 2346.8 1585.2C2418 1614 2489 1693 2560 1693C2631 1693 2702 1614 2773.2 1596C2844.3 1578 2915.7 1621 2986.8 1671.3C3058 1721.7 3129 1779.3 3200 1808.2C3271 1837 3342 1837 3413.2 1808.2C3484.3 1779.3 3555.7 1721.7 3626.8 1685.7C3698 1649.7 3769 1635.3 3804.5 1628.2L3840 1621L3840 863L3804.5 981.8C3769 1100.7 3698 1338.3 3626.8 1475.2C3555.7 1612 3484.3 1648 3413.2 1586.8C3342 1525.7 3271 1367.3 3200 1230.5C3129 1093.7 3058 978.3 2986.8 1010.7C2915.7 1043 2844.3 1223 2773.2 1338.2C2702 1453.3 2631 1503.7 2560 1514.5C2489 1525.3 2418 1496.7 2346.8 1457.2C2275.7 1417.7 2204.3 1367.3 2133.2 1284.5C2062 1201.7 1991 1086.3 1920 1079C1849 1071.7 1778 1172.3 1706.8 1147.2C1635.7 1122 1564.3 971 1493.2 1032.3C1422 1093.7 1351 1367.3 1280 1439.3C1209 1511.3 1138 1381.7 1066.8 1270C995.7 1158.3 924.3 1064.7 853.2 989C782 913.3 711 855.7 640 870C569 884.3 498 970.7 426.8 981.5C355.7 992.3 284.3 927.7 213.2 949.3C142 971 71 1079 35.5 1133L0 1187Z" fill="#ff6327"></path><path d="M0 1837L35.5 1847.8C71 1858.7 142 1880.3 213.2 1884C284.3 1887.7 355.7 1873.3 426.8 1916.5C498 1959.7 569 2060.3 640 2042.3C711 2024.3 782 1887.7 853.2 1884C924.3 1880.3 995.7 2009.7 1066.8 2042C1138 2074.3 1209 2009.7 1280 1977.3C1351 1945 1422 1945 1493.2 1919.8C1564.3 1894.7 1635.7 1844.3 1706.8 1830C1778 1815.7 1849 1837.3 1920 1858.8C1991 1880.3 2062 1901.7 2133.2 1880C2204.3 1858.3 2275.7 1793.7 2346.8 1783C2418 1772.3 2489 1815.7 2560 1822.8C2631 1830 2702 1801 2773.2 1840.5C2844.3 1880 2915.7 1988 2986.8 2038.5C3058 2089 3129 2082 3200 2067.7C3271 2053.3 3342 2031.7 3413.2 1981.2C3484.3 1930.7 3555.7 1851.3 3626.8 1833.3C3698 1815.3 3769 1858.7 3804.5 1880.3L3840 1902L3840 1619L3804.5 1626.2C3769 1633.3 3698 1647.7 3626.8 1683.7C3555.7 1719.7 3484.3 1777.3 3413.2 1806.2C3342 1835 3271 1835 3200 1806.2C3129 1777.3 3058 1719.7 2986.8 1669.3C2915.7 1619 2844.3 1576 2773.2 1594C2702 1612 2631 1691 2560 1691C2489 1691 2418 1612 2346.8 1583.2C2275.7 1554.3 2204.3 1575.7 2133.2 1554C2062 1532.3 1991 1467.7 1920 1424.5C1849 1381.3 1778 1359.7 1706.8 1356C1635.7 1352.3 1564.3 1366.7 1493.2 1460.3C1422 1554 1351 1727 1280 1838.7C1209 1950.3 1138 2000.7 1066.8 1968.2C995.7 1935.7 924.3 1820.3 853.2 1762.7C782 1705 711 1705 640 1723C569 1741 498 1777 426.8 1784.3C355.7 1791.7 284.3 1770.3 213.2 1712.8C142 1655.3 71 1561.7 35.5 1514.8L0 1468Z" fill="#ff4d33"></path><path d="M0 1902L35.5 1930.8C71 1959.7 142 2017.3 213.2 2042.5C284.3 2067.7 355.7 2060.3 426.8 2074.7C498 2089 569 2125 640 2089C711 2053 782 1945 853.2 1945C924.3 1945 995.7 2053 1066.8 2089C1138 2125 1209 2089 1280 2056.7C1351 2024.3 1422 1995.7 1493.2 1966.8C1564.3 1938 1635.7 1909 1706.8 1927C1778 1945 1849 2010 1920 2035.2C1991 2060.3 2062 2045.7 2133.2 2016.8C2204.3 1988 2275.7 1945 2346.8 1919.8C2418 1894.7 2489 1887.3 2560 1898.2C2631 1909 2702 1938 2773.2 1977.7C2844.3 2017.3 2915.7 2067.7 2986.8 2092.8C3058 2118 3129 2118 3200 2103.5C3271 2089 3342 2060 3413.2 2034.8C3484.3 2009.7 3555.7 1988.3 3626.8 1974C3698 1959.7 3769 1952.3 3804.5 1948.7L3840 1945L3840 1900L3804.5 1878.3C3769 1856.7 3698 1813.3 3626.8 1831.3C3555.7 1849.3 3484.3 1928.7 3413.2 1979.2C3342 2029.7 3271 2051.3 3200 2065.7C3129 2080 3058 2087 2986.8 2036.5C2915.7 1986 2844.3 1878 2773.2 1838.5C2702 1799 2631 1828 2560 1820.8C2489 1813.7 2418 1770.3 2346.8 1781C2275.7 1791.7 2204.3 1856.3 2133.2 1878C2062 1899.7 1991 1878.3 1920 1856.8C1849 1835.3 1778 1813.7 1706.8 1828C1635.7 1842.3 1564.3 1892.7 1493.2 1917.8C1422 1943 1351 1943 1280 1975.3C1209 2007.7 1138 2072.3 1066.8 2040C995.7 2007.7 924.3 1878.3 853.2 1882C782 1885.7 711 2022.3 640 2040.3C569 2058.3 498 1957.7 426.8 1914.5C355.7 1871.3 284.3 1885.7 213.2 1882C142 1878.3 71 1856.7 35.5 1845.8L0 1835Z" fill="#ff333f"></path><path d="M0 2161L35.5 2161C71 2161 142 2161 213.2 2161C284.3 2161 355.7 2161 426.8 2161C498 2161 569 2161 640 2161C711 2161 782 2161 853.2 2161C924.3 2161 995.7 2161 1066.8 2161C1138 2161 1209 2161 1280 2161C1351 2161 1422 2161 1493.2 2161C1564.3 2161 1635.7 2161 1706.8 2161C1778 2161 1849 2161 1920 2161C1991 2161 2062 2161 2133.2 2161C2204.3 2161 2275.7 2161 2346.8 2161C2418 2161 2489 2161 2560 2161C2631 2161 2702 2161 2773.2 2161C2844.3 2161 2915.7 2161 2986.8 2161C3058 2161 3129 2161 3200 2161C3271 2161 3342 2161 3413.2 2161C3484.3 2161 3555.7 2161 3626.8 2161C3698 2161 3769 2161 3804.5 2161L3840 2161L3840 1943L3804.5 1946.7C3769 1950.3 3698 1957.7 3626.8 1972C3555.7 1986.3 3484.3 2007.7 3413.2 2032.8C3342 2058 3271 2087 3200 2101.5C3129 2116 3058 2116 2986.8 2090.8C2915.7 2065.7 2844.3 2015.3 2773.2 1975.7C2702 1936 2631 1907 2560 1896.2C2489 1885.3 2418 1892.7 2346.8 1917.8C2275.7 1943 2204.3 1986 2133.2 2014.8C2062 2043.7 1991 2058.3 1920 2033.2C1849 2008 1778 1943 1706.8 1925C1635.7 1907 1564.3 1936 1493.2 1964.8C1422 1993.7 1351 2022.3 1280 2054.7C1209 2087 1138 2123 1066.8 2087C995.7 2051 924.3 1943 853.2 1943C782 1943 711 2051 640 2087C569 2123 498 2087 426.8 2072.7C355.7 2058.3 284.3 2065.7 213.2 2040.5C142 2015.3 71 1957.7 35.5 1928.8L0 1900Z" fill="#ff004a"></path></svg>